<?xml version="1.0" encoding="UTF-8" standalone="no"?>
<!DOCTYPE svg PUBLIC "-//W3C//DTD SVG 1.1//EN"
 "http://www.w3.org/Graphics/SVG/1.1/DTD/svg11.dtd">
<!-- Generated by graphviz version 2.40.1 (20161225.0304)
 -->
<!-- Title: active Pages: 1 -->
<svg width="211pt" height="28pt"
 viewBox="0.00 0.00 211.00 28.00" xmlns="http://www.w3.org/2000/svg" xmlns:xlink="http://www.w3.org/1999/xlink">
<g id="graph0" class="graph" transform="scale(1 1) rotate(0) translate(4 24)">
<title>active</title>
<!-- Node1 -->
<g id="node1" class="node">
<title>Node1</title>
<polygon fill="#bfbfbf" stroke="#000000" points="0,-.5 0,-19.5 43,-19.5 43,-.5 0,-.5"/>
<text text-anchor="middle" x="21.5" y="-7.5" font-family="Helvetica,sans-Serif" font-size="10.00" fill="#000000">active</text>
</g>
<!-- Node2 -->
<g id="node2" class="node">
<title>Node2</title>
<g id="a_node2"><a xlink:href="mainlb_8f.html#a5a0132dc055b1aade2710adfff9b8f09" target="_top" xlink:title="This subroutine solves bound constrained optimization problems by using the compact formula of the li...">
<polygon fill="none" stroke="#000000" points="79,-.5 79,-19.5 124,-19.5 124,-.5 79,-.5"/>
<text text-anchor="middle" x="101.5" y="-7.5" font-family="Helvetica,sans-Serif" font-size="10.00" fill="#000000">mainlb</text>
</a>
</g>
</g>
<!-- Node1&#45;&gt;Node2 -->
<g id="edge1" class="edge">
<title>Node1&#45;&gt;Node2</title>
<path fill="none" stroke="#191970" d="M53.382,-10C61.8962,-10 70.9226,-10 78.8293,-10"/>
<polygon fill="#191970" stroke="#191970" points="53.3604,-6.5001 43.3604,-10 53.3603,-13.5001 53.3604,-6.5001"/>
</g>
<!-- Node3 -->
<g id="node3" class="node">
<title>Node3</title>
<g id="a_node3"><a xlink:href="setulb_8f.html#a98990772aba60ae5986ecbbcc015ebed" target="_top" xlink:title="This subroutine partitions the working arrays wa and iwa, and then uses the limited memory BFGS metho...">
<polygon fill="none" stroke="#000000" points="160,-.5 160,-19.5 203,-19.5 203,-.5 160,-.5"/>
<text text-anchor="middle" x="181.5" y="-7.5" font-family="Helvetica,sans-Serif" font-size="10.00" fill="#000000">setulb</text>
</a>
</g>
</g>
<!-- Node2&#45;&gt;Node3 -->
<g id="edge2" class="edge">
<title>Node2&#45;&gt;Node3</title>
<path fill="none" stroke="#191970" d="M134.3531,-10C142.944,-10 151.9895,-10 159.8344,-10"/>
<polygon fill="#191970" stroke="#191970" points="134.2108,-6.5001 124.2108,-10 134.2108,-13.5001 134.2108,-6.5001"/>
</g>
</g>
</svg>
