<?xml version="1.0" encoding="UTF-8" standalone="no"?>
<!DOCTYPE svg PUBLIC "-//W3C//DTD SVG 1.1//EN"
 "http://www.w3.org/Graphics/SVG/1.1/DTD/svg11.dtd">
<!-- Generated by graphviz version 2.44.0 ()
 -->
<!-- Title: bmv Pages: 1 -->
<svg width="286pt" height="66pt"
 viewBox="0.00 0.00 286.00 66.00" xmlns="http://www.w3.org/2000/svg" xmlns:xlink="http://www.w3.org/1999/xlink">
<g id="graph0" class="graph" transform="scale(1 1) rotate(0) translate(4 62)">
<title>bmv</title>
<!-- Node1 -->
<g id="node1" class="node">
<title>Node1</title>
<g id="a_node1"><a xlink:title="This subroutine computes the product of the 2m x 2m middle matrix in the compact L&#45;BFGS formula of B ...">
<polygon fill="#bfbfbf" stroke="black" points="243,-19.5 243,-38.5 278,-38.5 278,-19.5 243,-19.5"/>
<text text-anchor="middle" x="260.5" y="-26.5" font-family="Helvetica,sans-Serif" font-size="10.00">bmv</text>
</a>
</g>
</g>
<!-- Node2 -->
<g id="node2" class="node">
<title>Node2</title>
<g id="a_node2"><a xlink:href="cauchy_8f.html#ade50ac4208f509bdc3d04a325285a8be" target="_top" xlink:title="Compute the Generalized Cauchy Point along the projected gradient direction.">
<polygon fill="none" stroke="black" points="160,-38.5 160,-57.5 207,-57.5 207,-38.5 160,-38.5"/>
<text text-anchor="middle" x="183.5" y="-45.5" font-family="Helvetica,sans-Serif" font-size="10.00">cauchy</text>
</a>
</g>
</g>
<!-- Node1&#45;&gt;Node2 -->
<g id="edge1" class="edge">
<title>Node1&#45;&gt;Node2</title>
<path fill="none" stroke="midnightblue" d="M233.05,-35.7C224.57,-37.85 215.25,-40.21 207.07,-42.28"/>
<polygon fill="midnightblue" stroke="midnightblue" points="234.02,-39.07 242.86,-33.22 232.3,-32.28 234.02,-39.07"/>
</g>
<!-- Node5 -->
<g id="node5" class="node">
<title>Node5</title>
<g id="a_node5"><a xlink:href="cmprlb_8f.html#aeca70b38353e4c44297fef717a66def4" target="_top" xlink:title="This subroutine computes r=&#45;Z&#39;B(xcp&#45;xk)&#45;Z&#39;g by using wa(2m+1)=W&#39;(xcp&#45;x) from subroutine cauchy.">
<polygon fill="none" stroke="black" points="160.5,-0.5 160.5,-19.5 206.5,-19.5 206.5,-0.5 160.5,-0.5"/>
<text text-anchor="middle" x="183.5" y="-7.5" font-family="Helvetica,sans-Serif" font-size="10.00">cmprlb</text>
</a>
</g>
</g>
<!-- Node1&#45;&gt;Node5 -->
<g id="edge4" class="edge">
<title>Node1&#45;&gt;Node5</title>
<path fill="none" stroke="midnightblue" d="M232.88,-22.26C224.25,-20.07 214.77,-17.67 206.51,-15.58"/>
<polygon fill="midnightblue" stroke="midnightblue" points="232.3,-25.72 242.86,-24.78 234.02,-18.93 232.3,-25.72"/>
</g>
<!-- Node3 -->
<g id="node3" class="node">
<title>Node3</title>
<g id="a_node3"><a xlink:href="mainlb_8f.html#a5a0132dc055b1aade2710adfff9b8f09" target="_top" xlink:title="This subroutine solves bound constrained optimization problems by using the compact formula of the li...">
<polygon fill="none" stroke="black" points="79,-19.5 79,-38.5 124,-38.5 124,-19.5 79,-19.5"/>
<text text-anchor="middle" x="101.5" y="-26.5" font-family="Helvetica,sans-Serif" font-size="10.00">mainlb</text>
</a>
</g>
</g>
<!-- Node2&#45;&gt;Node3 -->
<g id="edge2" class="edge">
<title>Node2&#45;&gt;Node3</title>
<path fill="none" stroke="midnightblue" d="M149.93,-40.26C141.25,-38.2 132.1,-36.03 124.17,-34.15"/>
<polygon fill="midnightblue" stroke="midnightblue" points="149.25,-43.7 159.79,-42.61 150.87,-36.89 149.25,-43.7"/>
</g>
<!-- Node4 -->
<g id="node4" class="node">
<title>Node4</title>
<g id="a_node4"><a xlink:href="setulb_8f.html#a98990772aba60ae5986ecbbcc015ebed" target="_top" xlink:title="This subroutine partitions the working arrays wa and iwa, and then uses the limited memory BFGS metho...">
<polygon fill="none" stroke="black" points="0,-19.5 0,-38.5 43,-38.5 43,-19.5 0,-19.5"/>
<text text-anchor="middle" x="21.5" y="-26.5" font-family="Helvetica,sans-Serif" font-size="10.00">setulb</text>
</a>
</g>
</g>
<!-- Node3&#45;&gt;Node4 -->
<g id="edge3" class="edge">
<title>Node3&#45;&gt;Node4</title>
<path fill="none" stroke="midnightblue" d="M68.6,-29C59.97,-29 50.86,-29 43.04,-29"/>
<polygon fill="midnightblue" stroke="midnightblue" points="68.77,-32.5 78.77,-29 68.77,-25.5 68.77,-32.5"/>
</g>
<!-- Node5&#45;&gt;Node3 -->
<g id="edge5" class="edge">
<title>Node5&#45;&gt;Node3</title>
<path fill="none" stroke="midnightblue" d="M150.25,-17.66C141.46,-19.75 132.15,-21.96 124.11,-23.87"/>
<polygon fill="midnightblue" stroke="midnightblue" points="151.29,-21.01 160.22,-15.29 149.68,-14.2 151.29,-21.01"/>
</g>
</g>
</svg>
