<?xml version="1.0" encoding="UTF-8" standalone="no"?>
<!DOCTYPE svg PUBLIC "-//W3C//DTD SVG 1.1//EN"
 "http://www.w3.org/Graphics/SVG/1.1/DTD/svg11.dtd">
<!-- Generated by graphviz version 2.40.1 (20161225.0304)
 -->
<!-- Title: bmv Pages: 1 -->
<svg width="193pt" height="28pt"
 viewBox="0.00 0.00 193.00 28.00" xmlns="http://www.w3.org/2000/svg" xmlns:xlink="http://www.w3.org/1999/xlink">
<g id="graph0" class="graph" transform="scale(1 1) rotate(0) translate(4 24)">
<title>bmv</title>
<!-- Node0 -->
<g id="node1" class="node">
<title>Node0</title>
<polygon fill="#bfbfbf" stroke="#000000" points="0,-.5 0,-19.5 35,-19.5 35,-.5 0,-.5"/>
<text text-anchor="middle" x="17.5" y="-7.5" font-family="Helvetica,sans-Serif" font-size="10.00" fill="#000000">bmv</text>
</g>
<!-- Node1 -->
<g id="node2" class="node">
<title>Node1</title>
<g id="a_node2"><a xlink:href="dtrsl_8f.html#addd03dfa6a12af9f384b521e1f765a19" target="_top" xlink:title="dtrsl solves triangular systems. ">
<polygon fill="none" stroke="#000000" points="71,-.5 71,-19.5 106,-19.5 106,-.5 71,-.5"/>
<text text-anchor="middle" x="88.5" y="-7.5" font-family="Helvetica,sans-Serif" font-size="10.00" fill="#000000">dtrsl</text>
</a>
</g>
</g>
<!-- Node0&#45;&gt;Node1 -->
<g id="edge1" class="edge">
<title>Node0&#45;&gt;Node1</title>
<path fill="none" stroke="#191970" d="M35.0506,-10C42.7579,-10 51.997,-10 60.6092,-10"/>
<polygon fill="#191970" stroke="#191970" points="60.6582,-13.5001 70.6582,-10 60.6581,-6.5001 60.6582,-13.5001"/>
</g>
<!-- Node2 -->
<g id="node3" class="node">
<title>Node2</title>
<g id="a_node3"><a xlink:href="daxpy_8f.html#adb136e14634fe4b772a0b034f52f3939" target="_top" xlink:title="constant times a vector plus a vector. ">
<polygon fill="none" stroke="#000000" points="142,-.5 142,-19.5 185,-19.5 185,-.5 142,-.5"/>
<text text-anchor="middle" x="163.5" y="-7.5" font-family="Helvetica,sans-Serif" font-size="10.00" fill="#000000">daxpy</text>
</a>
</g>
</g>
<!-- Node1&#45;&gt;Node2 -->
<g id="edge2" class="edge">
<title>Node1&#45;&gt;Node2</title>
<path fill="none" stroke="#191970" d="M106.274,-10C113.8498,-10 122.9271,-10 131.5963,-10"/>
<polygon fill="#191970" stroke="#191970" points="131.84,-13.5001 141.8399,-10 131.8399,-6.5001 131.84,-13.5001"/>
</g>
</g>
</svg>
