<?xml version="1.0" encoding="UTF-8" standalone="no"?>
<!DOCTYPE svg PUBLIC "-//W3C//DTD SVG 1.1//EN"
 "http://www.w3.org/Graphics/SVG/1.1/DTD/svg11.dtd">
<!-- Generated by graphviz version 2.40.1 (20161225.0304)
 -->
<!-- Title: cauchy Pages: 1 -->
<svg width="216pt" height="28pt"
 viewBox="0.00 0.00 216.00 28.00" xmlns="http://www.w3.org/2000/svg" xmlns:xlink="http://www.w3.org/1999/xlink">
<g id="graph0" class="graph" transform="scale(1 1) rotate(0) translate(4 24)">
<title>cauchy</title>
<!-- Node8 -->
<g id="node1" class="node">
<title>Node8</title>
<polygon fill="#bfbfbf" stroke="#000000" points="0,-.5 0,-19.5 48,-19.5 48,-.5 0,-.5"/>
<text text-anchor="middle" x="24" y="-7.5" font-family="Helvetica,sans-Serif" font-size="10.00" fill="#000000">cauchy</text>
</g>
<!-- Node9 -->
<g id="node2" class="node">
<title>Node9</title>
<g id="a_node2"><a xlink:href="mainlb_8f.html#a5a0132dc055b1aade2710adfff9b8f09" target="_top" xlink:title="This subroutine solves bound constrained optimization problems by using the compact formula of the li...">
<polygon fill="none" stroke="#000000" points="84,-.5 84,-19.5 129,-19.5 129,-.5 84,-.5"/>
<text text-anchor="middle" x="106.5" y="-7.5" font-family="Helvetica,sans-Serif" font-size="10.00" fill="#000000">mainlb</text>
</a>
</g>
</g>
<!-- Node8&#45;&gt;Node9 -->
<g id="edge1" class="edge">
<title>Node8&#45;&gt;Node9</title>
<path fill="none" stroke="#191970" d="M58.4384,-10C66.9923,-10 75.948,-10 83.7791,-10"/>
<polygon fill="#191970" stroke="#191970" points="58.3065,-6.5001 48.3065,-10 58.3065,-13.5001 58.3065,-6.5001"/>
</g>
<!-- Node10 -->
<g id="node3" class="node">
<title>Node10</title>
<g id="a_node3"><a xlink:href="setulb_8f.html#a98990772aba60ae5986ecbbcc015ebed" target="_top" xlink:title="This subroutine partitions the working arrays wa and iwa, and then uses the limited memory BFGS metho...">
<polygon fill="none" stroke="#000000" points="165,-.5 165,-19.5 208,-19.5 208,-.5 165,-.5"/>
<text text-anchor="middle" x="186.5" y="-7.5" font-family="Helvetica,sans-Serif" font-size="10.00" fill="#000000">setulb</text>
</a>
</g>
</g>
<!-- Node9&#45;&gt;Node10 -->
<g id="edge2" class="edge">
<title>Node9&#45;&gt;Node10</title>
<path fill="none" stroke="#191970" d="M139.3531,-10C147.944,-10 156.9895,-10 164.8344,-10"/>
<polygon fill="#191970" stroke="#191970" points="139.2108,-6.5001 129.2108,-10 139.2108,-13.5001 139.2108,-6.5001"/>
</g>
</g>
</svg>
