<?xml version="1.0" encoding="UTF-8" standalone="no"?>
<!DOCTYPE svg PUBLIC "-//W3C//DTD SVG 1.1//EN"
 "http://www.w3.org/Graphics/SVG/1.1/DTD/svg11.dtd">
<!-- Generated by graphviz version 2.44.0 ()
 -->
<!-- Title: cauchy Pages: 1 -->
<svg width="136pt" height="66pt"
 viewBox="0.00 0.00 136.00 66.00" xmlns="http://www.w3.org/2000/svg" xmlns:xlink="http://www.w3.org/1999/xlink">
<g id="graph0" class="graph" transform="scale(1 1) rotate(0) translate(4 62)">
<title>cauchy</title>
<!-- Node1 -->
<g id="node1" class="node">
<title>Node1</title>
<g id="a_node1"><a xlink:title="Compute the Generalized Cauchy Point along the projected gradient direction.">
<polygon fill="#bfbfbf" stroke="black" points="0,-19.5 0,-38.5 47,-38.5 47,-19.5 0,-19.5"/>
<text text-anchor="middle" x="23.5" y="-26.5" font-family="Helvetica,sans-Serif" font-size="10.00">cauchy</text>
</a>
</g>
</g>
<!-- Node2 -->
<g id="node2" class="node">
<title>Node2</title>
<g id="a_node2"><a xlink:href="bmv_8f.html#a3b7cf8256f5c958dd10a7f72db1a0f14" target="_top" xlink:title="This subroutine computes the product of the 2m x 2m middle matrix in the compact L&#45;BFGS formula of B ...">
<polygon fill="none" stroke="black" points="88,-38.5 88,-57.5 123,-57.5 123,-38.5 88,-38.5"/>
<text text-anchor="middle" x="105.5" y="-45.5" font-family="Helvetica,sans-Serif" font-size="10.00">bmv</text>
</a>
</g>
</g>
<!-- Node1&#45;&gt;Node2 -->
<g id="edge1" class="edge">
<title>Node1&#45;&gt;Node2</title>
<path fill="none" stroke="midnightblue" d="M47.21,-34.39C56.81,-36.67 68.06,-39.34 78.03,-41.71"/>
<polygon fill="midnightblue" stroke="midnightblue" points="77.3,-45.14 87.84,-44.04 78.92,-38.33 77.3,-45.14"/>
</g>
<!-- Node3 -->
<g id="node3" class="node">
<title>Node3</title>
<g id="a_node3"><a xlink:href="hpsolb_8f.html#a94349c617519970019d2f15efcb1df41" target="_top" xlink:title="This subroutine sorts out the least element of t, and puts the remaining elements of t in a heap.">
<polygon fill="none" stroke="black" points="83,-0.5 83,-19.5 128,-19.5 128,-0.5 83,-0.5"/>
<text text-anchor="middle" x="105.5" y="-7.5" font-family="Helvetica,sans-Serif" font-size="10.00">hpsolb</text>
</a>
</g>
</g>
<!-- Node1&#45;&gt;Node3 -->
<g id="edge2" class="edge">
<title>Node1&#45;&gt;Node3</title>
<path fill="none" stroke="midnightblue" d="M47.21,-23.61C55.25,-21.7 64.43,-19.52 73.06,-17.47"/>
<polygon fill="midnightblue" stroke="midnightblue" points="73.91,-20.86 82.83,-15.15 72.3,-14.05 73.91,-20.86"/>
</g>
</g>
</svg>
