<?xml version="1.0" encoding="UTF-8" standalone="no"?>
<!DOCTYPE svg PUBLIC "-//W3C//DTD SVG 1.1//EN"
 "http://www.w3.org/Graphics/SVG/1.1/DTD/svg11.dtd">
<!-- Generated by graphviz version 2.40.1 (20161225.0304)
 -->
<!-- Title: cauchy Pages: 1 -->
<svg width="287pt" height="218pt"
 viewBox="0.00 0.00 287.00 218.00" xmlns="http://www.w3.org/2000/svg" xmlns:xlink="http://www.w3.org/1999/xlink">
<g id="graph0" class="graph" transform="scale(1 1) rotate(0) translate(4 214)">
<title>cauchy</title>
<!-- Node0 -->
<g id="node1" class="node">
<title>Node0</title>
<polygon fill="#bfbfbf" stroke="#000000" points="0,-95.5 0,-114.5 48,-114.5 48,-95.5 0,-95.5"/>
<text text-anchor="middle" x="24" y="-102.5" font-family="Helvetica,sans-Serif" font-size="10.00" fill="#000000">cauchy</text>
</g>
<!-- Node1 -->
<g id="node2" class="node">
<title>Node1</title>
<g id="a_node2"><a xlink:href="ddot_8f.html#a2a42ecc597403b22ad786715c739196b" target="_top" xlink:title="forms the dot product of two vectors. ">
<polygon fill="none" stroke="#000000" points="89,-190.5 89,-209.5 124,-209.5 124,-190.5 89,-190.5"/>
<text text-anchor="middle" x="106.5" y="-197.5" font-family="Helvetica,sans-Serif" font-size="10.00" fill="#000000">ddot</text>
</a>
</g>
</g>
<!-- Node0&#45;&gt;Node1 -->
<g id="edge1" class="edge">
<title>Node0&#45;&gt;Node1</title>
<path fill="none" stroke="#191970" d="M30.8089,-114.868C41.3746,-129.8754 62.7253,-159.012 84,-181 84.7821,-181.8084 85.596,-182.6181 86.4304,-183.423"/>
<polygon fill="#191970" stroke="#191970" points="84.405,-186.3074 94.1902,-190.3694 89.0738,-181.0918 84.405,-186.3074"/>
</g>
<!-- Node2 -->
<g id="node3" class="node">
<title>Node2</title>
<g id="a_node3"><a xlink:href="dcopy_8f.html#afc29c83942509cba5f3764115f0471d5" target="_top" xlink:title="copies a vector, x, to a vector, y. ">
<polygon fill="none" stroke="#000000" points="85,-152.5 85,-171.5 128,-171.5 128,-152.5 85,-152.5"/>
<text text-anchor="middle" x="106.5" y="-159.5" font-family="Helvetica,sans-Serif" font-size="10.00" fill="#000000">dcopy</text>
</a>
</g>
</g>
<!-- Node0&#45;&gt;Node2 -->
<g id="edge2" class="edge">
<title>Node0&#45;&gt;Node2</title>
<path fill="none" stroke="#191970" d="M37.995,-114.6693C50.6344,-123.4019 69.4532,-136.404 84.1702,-146.5722"/>
<polygon fill="#191970" stroke="#191970" points="82.4948,-149.6687 92.7117,-152.4735 86.4739,-143.9096 82.4948,-149.6687"/>
</g>
<!-- Node3 -->
<g id="node4" class="node">
<title>Node3</title>
<g id="a_node4"><a xlink:href="dscal_8f.html#a0590f8db475e11dc2c9137bb13887acf" target="_top" xlink:title="scales a vector by a constant. ">
<polygon fill="none" stroke="#000000" points="86.5,-114.5 86.5,-133.5 126.5,-133.5 126.5,-114.5 86.5,-114.5"/>
<text text-anchor="middle" x="106.5" y="-121.5" font-family="Helvetica,sans-Serif" font-size="10.00" fill="#000000">dscal</text>
</a>
</g>
</g>
<!-- Node0&#45;&gt;Node3 -->
<g id="edge3" class="edge">
<title>Node0&#45;&gt;Node3</title>
<path fill="none" stroke="#191970" d="M48.3065,-110.5979C57.0781,-112.618 67.0868,-114.923 76.3012,-117.0451"/>
<polygon fill="#191970" stroke="#191970" points="75.7284,-120.5048 86.2588,-119.3384 77.2994,-113.6833 75.7284,-120.5048"/>
</g>
<!-- Node4 -->
<g id="node5" class="node">
<title>Node4</title>
<g id="a_node5"><a xlink:href="bmv_8f.html#a3b7cf8256f5c958dd10a7f72db1a0f14" target="_top" xlink:title="This subroutine computes the product of the 2m x 2m middle matrix in the compact L&#45;BFGS formula of B ...">
<polygon fill="none" stroke="#000000" points="89,-76.5 89,-95.5 124,-95.5 124,-76.5 89,-76.5"/>
<text text-anchor="middle" x="106.5" y="-83.5" font-family="Helvetica,sans-Serif" font-size="10.00" fill="#000000">bmv</text>
</a>
</g>
</g>
<!-- Node0&#45;&gt;Node4 -->
<g id="edge4" class="edge">
<title>Node0&#45;&gt;Node4</title>
<path fill="none" stroke="#191970" d="M48.3065,-99.4021C57.9722,-97.1761 69.1402,-94.6041 79.0922,-92.3121"/>
<polygon fill="#191970" stroke="#191970" points="79.9498,-95.7063 88.9092,-90.0512 78.3788,-88.8849 79.9498,-95.7063"/>
</g>
<!-- Node6 -->
<g id="node7" class="node">
<title>Node6</title>
<g id="a_node7"><a xlink:href="daxpy_8f.html#adb136e14634fe4b772a0b034f52f3939" target="_top" xlink:title="constant times a vector plus a vector. ">
<polygon fill="none" stroke="#000000" points="236,-57.5 236,-76.5 279,-76.5 279,-57.5 236,-57.5"/>
<text text-anchor="middle" x="257.5" y="-64.5" font-family="Helvetica,sans-Serif" font-size="10.00" fill="#000000">daxpy</text>
</a>
</g>
</g>
<!-- Node0&#45;&gt;Node6 -->
<g id="edge8" class="edge">
<title>Node0&#45;&gt;Node6</title>
<path fill="none" stroke="#191970" d="M34.991,-95.2949C46.352,-85.9652 65.0527,-72.4953 84,-67 131.8465,-53.1231 190.287,-57.1767 225.6622,-61.7847"/>
<polygon fill="#191970" stroke="#191970" points="225.4741,-65.2924 235.8629,-63.2133 226.445,-58.3601 225.4741,-65.2924"/>
</g>
<!-- Node7 -->
<g id="node8" class="node">
<title>Node7</title>
<g id="a_node8"><a xlink:href="hpsolb_8f.html#a94349c617519970019d2f15efcb1df41" target="_top" xlink:title="This subroutine sorts out the least element of t, and puts the remaining elements of t in a heap...">
<polygon fill="none" stroke="#000000" points="84,-.5 84,-19.5 129,-19.5 129,-.5 84,-.5"/>
<text text-anchor="middle" x="106.5" y="-7.5" font-family="Helvetica,sans-Serif" font-size="10.00" fill="#000000">hpsolb</text>
</a>
</g>
</g>
<!-- Node0&#45;&gt;Node7 -->
<g id="edge7" class="edge">
<title>Node0&#45;&gt;Node7</title>
<path fill="none" stroke="#191970" d="M31.9963,-95.2184C43.3529,-81.4004 64.8993,-55.4561 84,-34 85.9938,-31.7604 88.116,-29.43 90.2303,-27.1403"/>
<polygon fill="#191970" stroke="#191970" points="92.9124,-29.3965 97.189,-19.7031 87.8009,-24.6139 92.9124,-29.3965"/>
</g>
<!-- Node5 -->
<g id="node6" class="node">
<title>Node5</title>
<g id="a_node6"><a xlink:href="dtrsl_8f.html#addd03dfa6a12af9f384b521e1f765a19" target="_top" xlink:title="dtrsl solves triangular systems. ">
<polygon fill="none" stroke="#000000" points="165,-76.5 165,-95.5 200,-95.5 200,-76.5 165,-76.5"/>
<text text-anchor="middle" x="182.5" y="-83.5" font-family="Helvetica,sans-Serif" font-size="10.00" fill="#000000">dtrsl</text>
</a>
</g>
</g>
<!-- Node4&#45;&gt;Node5 -->
<g id="edge5" class="edge">
<title>Node4&#45;&gt;Node5</title>
<path fill="none" stroke="#191970" d="M124.127,-86C133.2395,-86 144.5713,-86 154.8195,-86"/>
<polygon fill="#191970" stroke="#191970" points="154.9687,-89.5001 164.9686,-86 154.9686,-82.5001 154.9687,-89.5001"/>
</g>
<!-- Node5&#45;&gt;Node6 -->
<g id="edge6" class="edge">
<title>Node5&#45;&gt;Node6</title>
<path fill="none" stroke="#191970" d="M200.274,-81.4973C207.933,-79.557 217.1268,-77.2279 225.8819,-75.0099"/>
<polygon fill="#191970" stroke="#191970" points="227.0057,-78.3359 235.8399,-72.4872 225.2866,-71.5502 227.0057,-78.3359"/>
</g>
</g>
</svg>
