<?xml version="1.0" encoding="UTF-8" standalone="no"?>
<!DOCTYPE svg PUBLIC "-//W3C//DTD SVG 1.1//EN"
 "http://www.w3.org/Graphics/SVG/1.1/DTD/svg11.dtd">
<!-- Generated by graphviz version 2.40.1 (20161225.0304)
 -->
<!-- Title: cmprlb Pages: 1 -->
<svg width="275pt" height="28pt"
 viewBox="0.00 0.00 275.00 28.00" xmlns="http://www.w3.org/2000/svg" xmlns:xlink="http://www.w3.org/1999/xlink">
<g id="graph0" class="graph" transform="scale(1 1) rotate(0) translate(4 24)">
<title>cmprlb</title>
<!-- Node0 -->
<g id="node1" class="node">
<title>Node0</title>
<polygon fill="#bfbfbf" stroke="#000000" points="0,-.5 0,-19.5 46,-19.5 46,-.5 0,-.5"/>
<text text-anchor="middle" x="23" y="-7.5" font-family="Helvetica,sans-Serif" font-size="10.00" fill="#000000">cmprlb</text>
</g>
<!-- Node1 -->
<g id="node2" class="node">
<title>Node1</title>
<g id="a_node2"><a xlink:href="bmv_8f.html#a3b7cf8256f5c958dd10a7f72db1a0f14" target="_top" xlink:title="This subroutine computes the product of the 2m x 2m middle matrix in the compact L&#45;BFGS formula of B ...">
<polygon fill="none" stroke="#000000" points="82,-.5 82,-19.5 117,-19.5 117,-.5 82,-.5"/>
<text text-anchor="middle" x="99.5" y="-7.5" font-family="Helvetica,sans-Serif" font-size="10.00" fill="#000000">bmv</text>
</a>
</g>
</g>
<!-- Node0&#45;&gt;Node1 -->
<g id="edge1" class="edge">
<title>Node0&#45;&gt;Node1</title>
<path fill="none" stroke="#191970" d="M46.3682,-10C54.401,-10 63.4712,-10 71.8138,-10"/>
<polygon fill="#191970" stroke="#191970" points="71.8593,-13.5001 81.8593,-10 71.8593,-6.5001 71.8593,-13.5001"/>
</g>
<!-- Node2 -->
<g id="node3" class="node">
<title>Node2</title>
<g id="a_node3"><a xlink:href="dtrsl_8f.html#addd03dfa6a12af9f384b521e1f765a19" target="_top" xlink:title="dtrsl solves triangular systems. ">
<polygon fill="none" stroke="#000000" points="153,-.5 153,-19.5 188,-19.5 188,-.5 153,-.5"/>
<text text-anchor="middle" x="170.5" y="-7.5" font-family="Helvetica,sans-Serif" font-size="10.00" fill="#000000">dtrsl</text>
</a>
</g>
</g>
<!-- Node1&#45;&gt;Node2 -->
<g id="edge2" class="edge">
<title>Node1&#45;&gt;Node2</title>
<path fill="none" stroke="#191970" d="M117.0506,-10C124.7579,-10 133.997,-10 142.6092,-10"/>
<polygon fill="#191970" stroke="#191970" points="142.6582,-13.5001 152.6582,-10 142.6581,-6.5001 142.6582,-13.5001"/>
</g>
<!-- Node3 -->
<g id="node4" class="node">
<title>Node3</title>
<g id="a_node4"><a xlink:href="daxpy_8f.html#adb136e14634fe4b772a0b034f52f3939" target="_top" xlink:title="constant times a vector plus a vector. ">
<polygon fill="none" stroke="#000000" points="224,-.5 224,-19.5 267,-19.5 267,-.5 224,-.5"/>
<text text-anchor="middle" x="245.5" y="-7.5" font-family="Helvetica,sans-Serif" font-size="10.00" fill="#000000">daxpy</text>
</a>
</g>
</g>
<!-- Node2&#45;&gt;Node3 -->
<g id="edge3" class="edge">
<title>Node2&#45;&gt;Node3</title>
<path fill="none" stroke="#191970" d="M188.274,-10C195.8498,-10 204.9271,-10 213.5963,-10"/>
<polygon fill="#191970" stroke="#191970" points="213.84,-13.5001 223.8399,-10 213.8399,-6.5001 213.84,-13.5001"/>
</g>
</g>
</svg>
