<?xml version="1.0" encoding="UTF-8" standalone="no"?>
<!DOCTYPE svg PUBLIC "-//W3C//DTD SVG 1.1//EN"
 "http://www.w3.org/Graphics/SVG/1.1/DTD/svg11.dtd">
<!-- Generated by graphviz version 2.40.1 (20161225.0304)
 -->
<!-- Title: daxpy Pages: 1 -->
<svg width="448pt" height="142pt"
 viewBox="0.00 0.00 448.00 142.00" xmlns="http://www.w3.org/2000/svg" xmlns:xlink="http://www.w3.org/1999/xlink">
<g id="graph0" class="graph" transform="scale(1 1) rotate(0) translate(4 138)">
<title>daxpy</title>
<!-- Node1 -->
<g id="node1" class="node">
<title>Node1</title>
<polygon fill="#bfbfbf" stroke="#000000" points="0,-76.5 0,-95.5 43,-95.5 43,-76.5 0,-76.5"/>
<text text-anchor="middle" x="21.5" y="-83.5" font-family="Helvetica,sans-Serif" font-size="10.00" fill="#000000">daxpy</text>
</g>
<!-- Node2 -->
<g id="node2" class="node">
<title>Node2</title>
<g id="a_node2"><a xlink:href="cauchy_8f.html#ade50ac4208f509bdc3d04a325285a8be" target="_top" xlink:title="Compute the Generalized Cauchy Point along the projected gradient direction. ">
<polygon fill="none" stroke="#000000" points="232,-114.5 232,-133.5 280,-133.5 280,-114.5 232,-114.5"/>
<text text-anchor="middle" x="256" y="-121.5" font-family="Helvetica,sans-Serif" font-size="10.00" fill="#000000">cauchy</text>
</a>
</g>
</g>
<!-- Node1&#45;&gt;Node2 -->
<g id="edge1" class="edge">
<title>Node1&#45;&gt;Node2</title>
<path fill="none" stroke="#191970" d="M53.1788,-91.1335C100.7006,-98.8342 189.3982,-113.2074 231.9791,-120.1075"/>
<polygon fill="#191970" stroke="#191970" points="53.572,-87.6516 43.1409,-89.5068 52.4522,-94.5615 53.572,-87.6516"/>
</g>
<!-- Node5 -->
<g id="node5" class="node">
<title>Node5</title>
<g id="a_node5"><a xlink:href="dtrsl_8f.html#addd03dfa6a12af9f384b521e1f765a19" target="_top" xlink:title="dtrsl solves triangular systems. ">
<polygon fill="none" stroke="#000000" points="79,-57.5 79,-76.5 114,-76.5 114,-57.5 79,-57.5"/>
<text text-anchor="middle" x="96.5" y="-64.5" font-family="Helvetica,sans-Serif" font-size="10.00" fill="#000000">dtrsl</text>
</a>
</g>
</g>
<!-- Node1&#45;&gt;Node5 -->
<g id="edge4" class="edge">
<title>Node1&#45;&gt;Node5</title>
<path fill="none" stroke="#191970" d="M53.1179,-77.9901C61.8425,-75.7799 71.0028,-73.4593 78.6458,-71.5231"/>
<polygon fill="#191970" stroke="#191970" points="52.0273,-74.6558 43.1931,-80.5044 53.7464,-81.4414 52.0273,-74.6558"/>
</g>
<!-- Node3 -->
<g id="node3" class="node">
<title>Node3</title>
<g id="a_node3"><a xlink:href="mainlb_8f.html#a5a0132dc055b1aade2710adfff9b8f09" target="_top" xlink:title="This subroutine solves bound constrained optimization problems by using the compact formula of the li...">
<polygon fill="none" stroke="#000000" points="316,-57.5 316,-76.5 361,-76.5 361,-57.5 316,-57.5"/>
<text text-anchor="middle" x="338.5" y="-64.5" font-family="Helvetica,sans-Serif" font-size="10.00" fill="#000000">mainlb</text>
</a>
</g>
</g>
<!-- Node2&#45;&gt;Node3 -->
<g id="edge2" class="edge">
<title>Node2&#45;&gt;Node3</title>
<path fill="none" stroke="#191970" d="M278.5714,-108.4052C293.333,-98.2063 312.1401,-85.2123 324.7117,-76.5265"/>
<polygon fill="#191970" stroke="#191970" points="276.2328,-105.7668 269.995,-114.3307 280.2118,-111.5259 276.2328,-105.7668"/>
</g>
<!-- Node4 -->
<g id="node4" class="node">
<title>Node4</title>
<g id="a_node4"><a xlink:href="setulb_8f.html#a98990772aba60ae5986ecbbcc015ebed" target="_top" xlink:title="This subroutine partitions the working arrays wa and iwa, and then uses the limited memory BFGS metho...">
<polygon fill="none" stroke="#000000" points="397,-57.5 397,-76.5 440,-76.5 440,-57.5 397,-57.5"/>
<text text-anchor="middle" x="418.5" y="-64.5" font-family="Helvetica,sans-Serif" font-size="10.00" fill="#000000">setulb</text>
</a>
</g>
</g>
<!-- Node3&#45;&gt;Node4 -->
<g id="edge3" class="edge">
<title>Node3&#45;&gt;Node4</title>
<path fill="none" stroke="#191970" d="M371.3531,-67C379.944,-67 388.9895,-67 396.8344,-67"/>
<polygon fill="#191970" stroke="#191970" points="371.2108,-63.5001 361.2108,-67 371.2108,-70.5001 371.2108,-63.5001"/>
</g>
<!-- Node6 -->
<g id="node6" class="node">
<title>Node6</title>
<g id="a_node6"><a xlink:href="bmv_8f.html#a3b7cf8256f5c958dd10a7f72db1a0f14" target="_top" xlink:title="This subroutine computes the product of the 2m x 2m middle matrix in the compact L&#45;BFGS formula of B ...">
<polygon fill="none" stroke="#000000" points="155.5,-76.5 155.5,-95.5 190.5,-95.5 190.5,-76.5 155.5,-76.5"/>
<text text-anchor="middle" x="173" y="-83.5" font-family="Helvetica,sans-Serif" font-size="10.00" fill="#000000">bmv</text>
</a>
</g>
</g>
<!-- Node5&#45;&gt;Node6 -->
<g id="edge5" class="edge">
<title>Node5&#45;&gt;Node6</title>
<path fill="none" stroke="#191970" d="M124.1453,-73.8662C134.5539,-76.4513 146.1001,-79.319 155.3533,-81.6172"/>
<polygon fill="#191970" stroke="#191970" points="124.7917,-70.4204 114.2429,-71.4067 123.1044,-77.214 124.7917,-70.4204"/>
</g>
<!-- Node8 -->
<g id="node8" class="node">
<title>Node8</title>
<g id="a_node8"><a xlink:href="formk_8f.html#a0e64ef7f777edb20419c8d441107c654" target="_top" xlink:title="Forms the LEL^T factorization of the indefinite matrix K. ">
<polygon fill="none" stroke="#000000" points="235.5,-38.5 235.5,-57.5 276.5,-57.5 276.5,-38.5 235.5,-38.5"/>
<text text-anchor="middle" x="256" y="-45.5" font-family="Helvetica,sans-Serif" font-size="10.00" fill="#000000">formk</text>
</a>
</g>
</g>
<!-- Node5&#45;&gt;Node8 -->
<g id="edge9" class="edge">
<title>Node5&#45;&gt;Node8</title>
<path fill="none" stroke="#191970" d="M124.1213,-63.7097C155.8324,-59.9322 207.1132,-53.8235 235.4811,-50.4443"/>
<polygon fill="#191970" stroke="#191970" points="123.6945,-60.2357 114.1787,-64.8941 124.5225,-67.1866 123.6945,-60.2357"/>
</g>
<!-- Node9 -->
<g id="node9" class="node">
<title>Node9</title>
<g id="a_node9"><a xlink:href="subsm_8f.html#a885224f17c93707dec22de0a51a4081d" target="_top" xlink:title="Performs the subspace minimization. ">
<polygon fill="none" stroke="#000000" points="150,-.5 150,-19.5 196,-19.5 196,-.5 150,-.5"/>
<text text-anchor="middle" x="173" y="-7.5" font-family="Helvetica,sans-Serif" font-size="10.00" fill="#000000">subsm</text>
</a>
</g>
</g>
<!-- Node5&#45;&gt;Node9 -->
<g id="edge11" class="edge">
<title>Node5&#45;&gt;Node9</title>
<path fill="none" stroke="#191970" d="M117.8183,-51.1158C131.4464,-40.9615 148.6672,-28.1303 160.2145,-19.5265"/>
<polygon fill="#191970" stroke="#191970" points="115.4048,-48.5493 109.4772,-57.3307 119.5872,-54.1625 115.4048,-48.5493"/>
</g>
<!-- Node6&#45;&gt;Node2 -->
<g id="edge6" class="edge">
<title>Node6&#45;&gt;Node2</title>
<path fill="none" stroke="#191970" d="M199.7515,-98.2477C211.239,-103.507 224.4596,-109.5598 235.1962,-114.4754"/>
<polygon fill="#191970" stroke="#191970" points="201.1515,-95.0393 190.6022,-94.0588 198.2376,-101.404 201.1515,-95.0393"/>
</g>
<!-- Node7 -->
<g id="node7" class="node">
<title>Node7</title>
<g id="a_node7"><a xlink:href="cmprlb_8f.html#aeca70b38353e4c44297fef717a66def4" target="_top" xlink:title="This subroutine computes r=&#45;Z&#39;B(xcp&#45;xk)&#45;Z&#39;g by using wa(2m+1)=W&#39;(xcp&#45;x) from subroutine cauchy...">
<polygon fill="none" stroke="#000000" points="233,-76.5 233,-95.5 279,-95.5 279,-76.5 233,-76.5"/>
<text text-anchor="middle" x="256" y="-83.5" font-family="Helvetica,sans-Serif" font-size="10.00" fill="#000000">cmprlb</text>
</a>
</g>
</g>
<!-- Node6&#45;&gt;Node7 -->
<g id="edge7" class="edge">
<title>Node6&#45;&gt;Node7</title>
<path fill="none" stroke="#191970" d="M200.8153,-86C211.1829,-86 222.8335,-86 232.7488,-86"/>
<polygon fill="#191970" stroke="#191970" points="200.6022,-82.5001 190.6022,-86 200.6021,-89.5001 200.6022,-82.5001"/>
</g>
<!-- Node7&#45;&gt;Node3 -->
<g id="edge8" class="edge">
<title>Node7&#45;&gt;Node3</title>
<path fill="none" stroke="#191970" d="M289.2121,-78.3512C298.1663,-76.289 307.6462,-74.1057 315.8747,-72.2107"/>
<polygon fill="#191970" stroke="#191970" points="288.3799,-74.9511 279.4205,-80.6062 289.9509,-81.7725 288.3799,-74.9511"/>
</g>
<!-- Node8&#45;&gt;Node3 -->
<g id="edge10" class="edge">
<title>Node8&#45;&gt;Node3</title>
<path fill="none" stroke="#191970" d="M286.8647,-55.1082C296.5173,-57.3313 306.9814,-59.7412 315.9497,-61.8066"/>
<polygon fill="#191970" stroke="#191970" points="287.3487,-51.6281 276.8182,-52.7945 285.7776,-58.4496 287.3487,-51.6281"/>
</g>
<!-- Node9&#45;&gt;Node3 -->
<g id="edge12" class="edge">
<title>Node9&#45;&gt;Node3</title>
<path fill="none" stroke="#191970" d="M206.2746,-12.4588C227.8808,-14.8825 256.3218,-19.6548 280,-29 297.5737,-35.9359 315.4527,-48.5295 326.7392,-57.3099"/>
<polygon fill="#191970" stroke="#191970" points="206.5689,-8.9708 196.2677,-11.4479 205.8653,-15.9354 206.5689,-8.9708"/>
</g>
</g>
</svg>
