<?xml version="1.0" encoding="UTF-8" standalone="no"?>
<!DOCTYPE svg PUBLIC "-//W3C//DTD SVG 1.1//EN"
 "http://www.w3.org/Graphics/SVG/1.1/DTD/svg11.dtd">
<!-- Generated by graphviz version 2.40.1 (20161225.0304)
 -->
<!-- Title: dcopy Pages: 1 -->
<svg width="296pt" height="218pt"
 viewBox="0.00 0.00 296.00 218.00" xmlns="http://www.w3.org/2000/svg" xmlns:xlink="http://www.w3.org/1999/xlink">
<g id="graph0" class="graph" transform="scale(1 1) rotate(0) translate(4 214)">
<title>dcopy</title>
<!-- Node1 -->
<g id="node1" class="node">
<title>Node1</title>
<polygon fill="#bfbfbf" stroke="#000000" points="0,-95.5 0,-114.5 43,-114.5 43,-95.5 0,-95.5"/>
<text text-anchor="middle" x="21.5" y="-102.5" font-family="Helvetica,sans-Serif" font-size="10.00" fill="#000000">dcopy</text>
</g>
<!-- Node2 -->
<g id="node2" class="node">
<title>Node2</title>
<g id="a_node2"><a xlink:href="cauchy_8f.html#ade50ac4208f509bdc3d04a325285a8be" target="_top" xlink:title="Compute the Generalized Cauchy Point along the projected gradient direction. ">
<polygon fill="none" stroke="#000000" points="79.5,-190.5 79.5,-209.5 127.5,-209.5 127.5,-190.5 79.5,-190.5"/>
<text text-anchor="middle" x="103.5" y="-197.5" font-family="Helvetica,sans-Serif" font-size="10.00" fill="#000000">cauchy</text>
</a>
</g>
</g>
<!-- Node1&#45;&gt;Node2 -->
<g id="edge1" class="edge">
<title>Node1&#45;&gt;Node2</title>
<path fill="none" stroke="#191970" d="M35.2679,-123.1527C46.5866,-137.7875 63.2652,-158.7057 79,-176 83.4879,-180.9327 88.7383,-186.143 93.2251,-190.4439"/>
<polygon fill="#191970" stroke="#191970" points="37.8327,-120.7456 28.9694,-114.941 32.2783,-125.0059 37.8327,-120.7456"/>
</g>
<!-- Node3 -->
<g id="node3" class="node">
<title>Node3</title>
<g id="a_node3"><a xlink:href="mainlb_8f.html#a5a0132dc055b1aade2710adfff9b8f09" target="_top" xlink:title="This subroutine solves bound constrained optimization problems by using the compact formula of the li...">
<polygon fill="none" stroke="#000000" points="164,-95.5 164,-114.5 209,-114.5 209,-95.5 164,-95.5"/>
<text text-anchor="middle" x="186.5" y="-102.5" font-family="Helvetica,sans-Serif" font-size="10.00" fill="#000000">mainlb</text>
</a>
</g>
</g>
<!-- Node1&#45;&gt;Node3 -->
<g id="edge8" class="edge">
<title>Node1&#45;&gt;Node3</title>
<path fill="none" stroke="#191970" d="M40.0081,-121.2856C50.6313,-129.5337 64.676,-138.6945 79,-143 99.856,-149.2689 107.1194,-149.1864 128,-143 146.5791,-137.4955 164.7859,-124.0278 175.8283,-114.7012"/>
<polygon fill="#191970" stroke="#191970" points="41.9141,-118.3228 31.9584,-114.6985 37.481,-123.7402 41.9141,-118.3228"/>
</g>
<!-- Node5 -->
<g id="node5" class="node">
<title>Node5</title>
<g id="a_node5"><a xlink:href="formk_8f.html#a0e64ef7f777edb20419c8d441107c654" target="_top" xlink:title="Forms the LEL^T factorization of the indefinite matrix K. ">
<polygon fill="none" stroke="#000000" points="83,-114.5 83,-133.5 124,-133.5 124,-114.5 83,-114.5"/>
<text text-anchor="middle" x="103.5" y="-121.5" font-family="Helvetica,sans-Serif" font-size="10.00" fill="#000000">formk</text>
</a>
</g>
</g>
<!-- Node1&#45;&gt;Node5 -->
<g id="edge4" class="edge">
<title>Node1&#45;&gt;Node5</title>
<path fill="none" stroke="#191970" d="M53.0891,-112.3194C63.1064,-114.6405 73.916,-117.1452 82.9468,-119.2377"/>
<polygon fill="#191970" stroke="#191970" points="53.5765,-108.8397 43.0445,-109.992 51.9964,-115.659 53.5765,-108.8397"/>
</g>
<!-- Node6 -->
<g id="node6" class="node">
<title>Node6</title>
<g id="a_node6"><a xlink:href="lnsrlb_8f.html#a1ae769fcc1d4f0f54e793a730e879dbc" target="_top" xlink:title="This subroutine calls subroutine dcsrch from the Minpack2 library to perform the line search...">
<polygon fill="none" stroke="#000000" points="83.5,-76.5 83.5,-95.5 123.5,-95.5 123.5,-76.5 83.5,-76.5"/>
<text text-anchor="middle" x="103.5" y="-83.5" font-family="Helvetica,sans-Serif" font-size="10.00" fill="#000000">lnsrlb</text>
</a>
</g>
</g>
<!-- Node1&#45;&gt;Node6 -->
<g id="edge6" class="edge">
<title>Node1&#45;&gt;Node6</title>
<path fill="none" stroke="#191970" d="M52.8508,-97.7358C63.0384,-95.3752 74.0688,-92.8194 83.227,-90.6974"/>
<polygon fill="#191970" stroke="#191970" points="51.9964,-94.341 43.0445,-100.008 53.5765,-101.1603 51.9964,-94.341"/>
</g>
<!-- Node7 -->
<g id="node7" class="node">
<title>Node7</title>
<g id="a_node7"><a xlink:href="matupd_8f.html#ae0d8b7b11bf7546ed4d53b433273f74b" target="_top" xlink:title="This subroutine updates matrices WS and WY, and forms the middle matrix in B. ">
<polygon fill="none" stroke="#000000" points="79,-38.5 79,-57.5 128,-57.5 128,-38.5 79,-38.5"/>
<text text-anchor="middle" x="103.5" y="-45.5" font-family="Helvetica,sans-Serif" font-size="10.00" fill="#000000">matupd</text>
</a>
</g>
</g>
<!-- Node1&#45;&gt;Node7 -->
<g id="edge9" class="edge">
<title>Node1&#45;&gt;Node7</title>
<path fill="none" stroke="#191970" d="M43.9346,-89.4052C58.6067,-79.2063 77.2999,-66.2123 89.7952,-57.5265"/>
<polygon fill="#191970" stroke="#191970" points="41.6236,-86.7491 35.4102,-95.3307 45.619,-92.4969 41.6236,-86.7491"/>
</g>
<!-- Node8 -->
<g id="node8" class="node">
<title>Node8</title>
<g id="a_node8"><a xlink:href="subsm_8f.html#a885224f17c93707dec22de0a51a4081d" target="_top" xlink:title="Performs the subspace minimization. ">
<polygon fill="none" stroke="#000000" points="80.5,-.5 80.5,-19.5 126.5,-19.5 126.5,-.5 80.5,-.5"/>
<text text-anchor="middle" x="103.5" y="-7.5" font-family="Helvetica,sans-Serif" font-size="10.00" fill="#000000">subsm</text>
</a>
</g>
</g>
<!-- Node1&#45;&gt;Node8 -->
<g id="edge11" class="edge">
<title>Node1&#45;&gt;Node8</title>
<path fill="none" stroke="#191970" d="M33.121,-86.9917C43.9625,-70.8873 61.1127,-47.102 79,-29 82.2537,-25.7073 86.0862,-22.4826 89.7415,-19.6519"/>
<polygon fill="#191970" stroke="#191970" points="30.1016,-85.2125 27.5088,-95.4852 35.9418,-89.0716 30.1016,-85.2125"/>
</g>
<!-- Node2&#45;&gt;Node3 -->
<g id="edge2" class="edge">
<title>Node2&#45;&gt;Node3</title>
<path fill="none" stroke="#191970" d="M121.325,-182.9805C123.6096,-180.6712 125.8866,-178.3033 128,-176 147.2207,-155.0527 167.995,-128.9096 178.87,-114.9233"/>
<polygon fill="#191970" stroke="#191970" points="118.4303,-180.9183 113.7552,-190.4259 123.3389,-185.9089 118.4303,-180.9183"/>
</g>
<!-- Node4 -->
<g id="node4" class="node">
<title>Node4</title>
<g id="a_node4"><a xlink:href="setulb_8f.html#a98990772aba60ae5986ecbbcc015ebed" target="_top" xlink:title="This subroutine partitions the working arrays wa and iwa, and then uses the limited memory BFGS metho...">
<polygon fill="none" stroke="#000000" points="245,-95.5 245,-114.5 288,-114.5 288,-95.5 245,-95.5"/>
<text text-anchor="middle" x="266.5" y="-102.5" font-family="Helvetica,sans-Serif" font-size="10.00" fill="#000000">setulb</text>
</a>
</g>
</g>
<!-- Node3&#45;&gt;Node4 -->
<g id="edge3" class="edge">
<title>Node3&#45;&gt;Node4</title>
<path fill="none" stroke="#191970" d="M219.3531,-105C227.944,-105 236.9895,-105 244.8344,-105"/>
<polygon fill="#191970" stroke="#191970" points="219.2108,-101.5001 209.2108,-105 219.2108,-108.5001 219.2108,-101.5001"/>
</g>
<!-- Node5&#45;&gt;Node3 -->
<g id="edge5" class="edge">
<title>Node5&#45;&gt;Node3</title>
<path fill="none" stroke="#191970" d="M133.9124,-117.0381C143.8249,-114.769 154.6482,-112.2914 163.885,-110.1769"/>
<polygon fill="#191970" stroke="#191970" points="132.9837,-113.6601 124.0169,-119.3034 134.5457,-120.4836 132.9837,-113.6601"/>
</g>
<!-- Node6&#45;&gt;Node3 -->
<g id="edge7" class="edge">
<title>Node6&#45;&gt;Node3</title>
<path fill="none" stroke="#191970" d="M133.5843,-92.8868C143.6126,-95.1824 154.6052,-97.6988 163.9603,-99.8403"/>
<polygon fill="#191970" stroke="#191970" points="134.1209,-89.4191 123.592,-90.5994 132.5588,-96.2426 134.1209,-89.4191"/>
</g>
<!-- Node7&#45;&gt;Node3 -->
<g id="edge10" class="edge">
<title>Node7&#45;&gt;Node3</title>
<path fill="none" stroke="#191970" d="M126.2082,-63.5948C141.0593,-73.7937 159.9804,-86.7877 172.6281,-95.4735"/>
<polygon fill="#191970" stroke="#191970" points="127.8045,-60.4452 117.5798,-57.6693 123.8418,-66.2156 127.8045,-60.4452"/>
</g>
<!-- Node8&#45;&gt;Node3 -->
<g id="edge12" class="edge">
<title>Node8&#45;&gt;Node3</title>
<path fill="none" stroke="#191970" d="M125.1247,-26.2546C126.1171,-27.1601 127.0811,-28.0777 128,-29 149.6245,-50.7028 170.385,-80.4696 180.3522,-95.4966"/>
<polygon fill="#191970" stroke="#191970" points="127.1593,-23.3937 117.2404,-19.6698 122.6722,-28.7664 127.1593,-23.3937"/>
</g>
</g>
</svg>
