<?xml version="1.0" encoding="UTF-8" standalone="no"?>
<!DOCTYPE svg PUBLIC "-//W3C//DTD SVG 1.1//EN"
 "http://www.w3.org/Graphics/SVG/1.1/DTD/svg11.dtd">
<!-- Generated by graphviz version 2.40.1 (20161225.0304)
 -->
<!-- Title: dcstep Pages: 1 -->
<svg width="372pt" height="28pt"
 viewBox="0.00 0.00 372.00 28.00" xmlns="http://www.w3.org/2000/svg" xmlns:xlink="http://www.w3.org/1999/xlink">
<g id="graph0" class="graph" transform="scale(1 1) rotate(0) translate(4 24)">
<title>dcstep</title>
<!-- Node1 -->
<g id="node1" class="node">
<title>Node1</title>
<polygon fill="#bfbfbf" stroke="#000000" points="0,-.5 0,-19.5 46,-19.5 46,-.5 0,-.5"/>
<text text-anchor="middle" x="23" y="-7.5" font-family="Helvetica,sans-Serif" font-size="10.00" fill="#000000">dcstep</text>
</g>
<!-- Node2 -->
<g id="node2" class="node">
<title>Node2</title>
<g id="a_node2"><a xlink:href="dcsrch_8f.html#a25db7a7d8ddac831be23892a10ba2a76" target="_top" xlink:title="This subroutine finds a step that satisfies a sufficient decrease condition and a curvature condition...">
<polygon fill="none" stroke="#000000" points="82,-.5 82,-19.5 128,-19.5 128,-.5 82,-.5"/>
<text text-anchor="middle" x="105" y="-7.5" font-family="Helvetica,sans-Serif" font-size="10.00" fill="#000000">dcsrch</text>
</a>
</g>
</g>
<!-- Node1&#45;&gt;Node2 -->
<g id="edge1" class="edge">
<title>Node1&#45;&gt;Node2</title>
<path fill="none" stroke="#191970" d="M56.4083,-10C64.9863,-10 74.0237,-10 81.947,-10"/>
<polygon fill="#191970" stroke="#191970" points="56.2786,-6.5001 46.2786,-10 56.2785,-13.5001 56.2786,-6.5001"/>
</g>
<!-- Node3 -->
<g id="node3" class="node">
<title>Node3</title>
<g id="a_node3"><a xlink:href="lnsrlb_8f.html#a1ae769fcc1d4f0f54e793a730e879dbc" target="_top" xlink:title="This subroutine calls subroutine dcsrch from the Minpack2 library to perform the line search...">
<polygon fill="none" stroke="#000000" points="164,-.5 164,-19.5 204,-19.5 204,-.5 164,-.5"/>
<text text-anchor="middle" x="184" y="-7.5" font-family="Helvetica,sans-Serif" font-size="10.00" fill="#000000">lnsrlb</text>
</a>
</g>
</g>
<!-- Node2&#45;&gt;Node3 -->
<g id="edge2" class="edge">
<title>Node2&#45;&gt;Node3</title>
<path fill="none" stroke="#191970" d="M138.4859,-10C147.1094,-10 156.1245,-10 163.835,-10"/>
<polygon fill="#191970" stroke="#191970" points="138.2754,-6.5001 128.2753,-10 138.2753,-13.5001 138.2754,-6.5001"/>
</g>
<!-- Node4 -->
<g id="node4" class="node">
<title>Node4</title>
<g id="a_node4"><a xlink:href="mainlb_8f.html#a5a0132dc055b1aade2710adfff9b8f09" target="_top" xlink:title="This subroutine solves bound constrained optimization problems by using the compact formula of the li...">
<polygon fill="none" stroke="#000000" points="240,-.5 240,-19.5 285,-19.5 285,-.5 240,-.5"/>
<text text-anchor="middle" x="262.5" y="-7.5" font-family="Helvetica,sans-Serif" font-size="10.00" fill="#000000">mainlb</text>
</a>
</g>
</g>
<!-- Node3&#45;&gt;Node4 -->
<g id="edge3" class="edge">
<title>Node3&#45;&gt;Node4</title>
<path fill="none" stroke="#191970" d="M214.4834,-10C222.93,-10 231.9474,-10 239.8604,-10"/>
<polygon fill="#191970" stroke="#191970" points="214.2157,-6.5001 204.2157,-10 214.2157,-13.5001 214.2157,-6.5001"/>
</g>
<!-- Node5 -->
<g id="node5" class="node">
<title>Node5</title>
<g id="a_node5"><a xlink:href="setulb_8f.html#a98990772aba60ae5986ecbbcc015ebed" target="_top" xlink:title="This subroutine partitions the working arrays wa and iwa, and then uses the limited memory BFGS metho...">
<polygon fill="none" stroke="#000000" points="321,-.5 321,-19.5 364,-19.5 364,-.5 321,-.5"/>
<text text-anchor="middle" x="342.5" y="-7.5" font-family="Helvetica,sans-Serif" font-size="10.00" fill="#000000">setulb</text>
</a>
</g>
</g>
<!-- Node4&#45;&gt;Node5 -->
<g id="edge4" class="edge">
<title>Node4&#45;&gt;Node5</title>
<path fill="none" stroke="#191970" d="M295.3531,-10C303.944,-10 312.9895,-10 320.8344,-10"/>
<polygon fill="#191970" stroke="#191970" points="295.2108,-6.5001 285.2108,-10 295.2108,-13.5001 295.2108,-6.5001"/>
</g>
</g>
</svg>
