<?xml version="1.0" encoding="UTF-8" standalone="no"?>
<!DOCTYPE svg PUBLIC "-//W3C//DTD SVG 1.1//EN"
 "http://www.w3.org/Graphics/SVG/1.1/DTD/svg11.dtd">
<!-- Generated by graphviz version 2.40.1 (20161225.0304)
 -->
<!-- Title: ddot Pages: 1 -->
<svg width="287pt" height="28pt"
 viewBox="0.00 0.00 287.00 28.00" xmlns="http://www.w3.org/2000/svg" xmlns:xlink="http://www.w3.org/1999/xlink">
<g id="graph0" class="graph" transform="scale(1 1) rotate(0) translate(4 24)">
<title>ddot</title>
<!-- Node1 -->
<g id="node1" class="node">
<title>Node1</title>
<polygon fill="#bfbfbf" stroke="#000000" points="0,-.5 0,-19.5 35,-19.5 35,-.5 0,-.5"/>
<text text-anchor="middle" x="17.5" y="-7.5" font-family="Helvetica,sans-Serif" font-size="10.00" fill="#000000">ddot</text>
</g>
<!-- Node2 -->
<g id="node2" class="node">
<title>Node2</title>
<g id="a_node2"><a xlink:href="cauchy_8f.html#ade50ac4208f509bdc3d04a325285a8be" target="_top" xlink:title="Compute the Generalized Cauchy Point along the projected gradient direction. ">
<polygon fill="none" stroke="#000000" points="71,-.5 71,-19.5 119,-19.5 119,-.5 71,-.5"/>
<text text-anchor="middle" x="95" y="-7.5" font-family="Helvetica,sans-Serif" font-size="10.00" fill="#000000">cauchy</text>
</a>
</g>
</g>
<!-- Node1&#45;&gt;Node2 -->
<g id="edge1" class="edge">
<title>Node1&#45;&gt;Node2</title>
<path fill="none" stroke="#191970" d="M45.1383,-10C53.4961,-10 62.6072,-10 70.7277,-10"/>
<polygon fill="#191970" stroke="#191970" points="45.086,-6.5001 35.0859,-10 45.0859,-13.5001 45.086,-6.5001"/>
</g>
<!-- Node3 -->
<g id="node3" class="node">
<title>Node3</title>
<g id="a_node3"><a xlink:href="mainlb_8f.html#a5a0132dc055b1aade2710adfff9b8f09" target="_top" xlink:title="This subroutine solves bound constrained optimization problems by using the compact formula of the li...">
<polygon fill="none" stroke="#000000" points="155,-.5 155,-19.5 200,-19.5 200,-.5 155,-.5"/>
<text text-anchor="middle" x="177.5" y="-7.5" font-family="Helvetica,sans-Serif" font-size="10.00" fill="#000000">mainlb</text>
</a>
</g>
</g>
<!-- Node2&#45;&gt;Node3 -->
<g id="edge2" class="edge">
<title>Node2&#45;&gt;Node3</title>
<path fill="none" stroke="#191970" d="M129.4384,-10C137.9923,-10 146.948,-10 154.7791,-10"/>
<polygon fill="#191970" stroke="#191970" points="129.3065,-6.5001 119.3065,-10 129.3065,-13.5001 129.3065,-6.5001"/>
</g>
<!-- Node4 -->
<g id="node4" class="node">
<title>Node4</title>
<g id="a_node4"><a xlink:href="setulb_8f.html#a98990772aba60ae5986ecbbcc015ebed" target="_top" xlink:title="This subroutine partitions the working arrays wa and iwa, and then uses the limited memory BFGS metho...">
<polygon fill="none" stroke="#000000" points="236,-.5 236,-19.5 279,-19.5 279,-.5 236,-.5"/>
<text text-anchor="middle" x="257.5" y="-7.5" font-family="Helvetica,sans-Serif" font-size="10.00" fill="#000000">setulb</text>
</a>
</g>
</g>
<!-- Node3&#45;&gt;Node4 -->
<g id="edge3" class="edge">
<title>Node3&#45;&gt;Node4</title>
<path fill="none" stroke="#191970" d="M210.3531,-10C218.944,-10 227.9895,-10 235.8344,-10"/>
<polygon fill="#191970" stroke="#191970" points="210.2108,-6.5001 200.2108,-10 210.2108,-13.5001 210.2108,-6.5001"/>
</g>
</g>
</svg>
