<?xml version="1.0" encoding="UTF-8" standalone="no"?>
<!DOCTYPE svg PUBLIC "-//W3C//DTD SVG 1.1//EN"
 "http://www.w3.org/Graphics/SVG/1.1/DTD/svg11.dtd">
<!-- Generated by graphviz version 2.40.1 (20161225.0304)
 -->
<!-- Title: dpofa Pages: 1 -->
<svg width="286pt" height="66pt"
 viewBox="0.00 0.00 286.00 66.00" xmlns="http://www.w3.org/2000/svg" xmlns:xlink="http://www.w3.org/1999/xlink">
<g id="graph0" class="graph" transform="scale(1 1) rotate(0) translate(4 62)">
<title>dpofa</title>
<!-- Node1 -->
<g id="node1" class="node">
<title>Node1</title>
<polygon fill="#bfbfbf" stroke="#000000" points="0,-19.5 0,-38.5 41,-38.5 41,-19.5 0,-19.5"/>
<text text-anchor="middle" x="20.5" y="-26.5" font-family="Helvetica,sans-Serif" font-size="10.00" fill="#000000">dpofa</text>
</g>
<!-- Node2 -->
<g id="node2" class="node">
<title>Node2</title>
<g id="a_node2"><a xlink:href="formk_8f.html#a0e64ef7f777edb20419c8d441107c654" target="_top" xlink:title="Forms the LEL^T factorization of the indefinite matrix K. ">
<polygon fill="none" stroke="#000000" points="77,-38.5 77,-57.5 118,-57.5 118,-38.5 77,-38.5"/>
<text text-anchor="middle" x="97.5" y="-45.5" font-family="Helvetica,sans-Serif" font-size="10.00" fill="#000000">formk</text>
</a>
</g>
</g>
<!-- Node1&#45;&gt;Node2 -->
<g id="edge1" class="edge">
<title>Node1&#45;&gt;Node2</title>
<path fill="none" stroke="#191970" d="M50.9426,-36.5118C59.6165,-38.6521 68.8616,-40.9334 76.8085,-42.8943"/>
<polygon fill="#191970" stroke="#191970" points="51.6819,-33.0893 41.1346,-34.0917 50.0049,-39.8855 51.6819,-33.0893"/>
</g>
<!-- Node5 -->
<g id="node5" class="node">
<title>Node5</title>
<g id="a_node5"><a xlink:href="formt_8f.html#a237bf34b63889556b05399c224ec5f71" target="_top" xlink:title="Forms the upper half of the pos. def. and symm. T. ">
<polygon fill="none" stroke="#000000" points="78,-.5 78,-19.5 117,-19.5 117,-.5 78,-.5"/>
<text text-anchor="middle" x="97.5" y="-7.5" font-family="Helvetica,sans-Serif" font-size="10.00" fill="#000000">formt</text>
</a>
</g>
</g>
<!-- Node1&#45;&gt;Node5 -->
<g id="edge4" class="edge">
<title>Node1&#45;&gt;Node5</title>
<path fill="none" stroke="#191970" d="M50.9791,-21.4792C60.0318,-19.2454 69.7036,-16.8588 77.8704,-14.8437"/>
<polygon fill="#191970" stroke="#191970" points="50.0049,-18.1145 41.1346,-23.9083 51.6819,-24.9107 50.0049,-18.1145"/>
</g>
<!-- Node3 -->
<g id="node3" class="node">
<title>Node3</title>
<g id="a_node3"><a xlink:href="mainlb_8f.html#a5a0132dc055b1aade2710adfff9b8f09" target="_top" xlink:title="This subroutine solves bound constrained optimization problems by using the compact formula of the li...">
<polygon fill="none" stroke="#000000" points="154,-19.5 154,-38.5 199,-38.5 199,-19.5 154,-19.5"/>
<text text-anchor="middle" x="176.5" y="-26.5" font-family="Helvetica,sans-Serif" font-size="10.00" fill="#000000">mainlb</text>
</a>
</g>
</g>
<!-- Node2&#45;&gt;Node3 -->
<g id="edge2" class="edge">
<title>Node2&#45;&gt;Node3</title>
<path fill="none" stroke="#191970" d="M128.0037,-40.6637C136.6342,-38.588 145.8698,-36.3668 153.9411,-34.4256"/>
<polygon fill="#191970" stroke="#191970" points="127.1606,-37.2665 118.2563,-43.008 128.7975,-44.0725 127.1606,-37.2665"/>
</g>
<!-- Node4 -->
<g id="node4" class="node">
<title>Node4</title>
<g id="a_node4"><a xlink:href="setulb_8f.html#a98990772aba60ae5986ecbbcc015ebed" target="_top" xlink:title="This subroutine partitions the working arrays wa and iwa, and then uses the limited memory BFGS metho...">
<polygon fill="none" stroke="#000000" points="235,-19.5 235,-38.5 278,-38.5 278,-19.5 235,-19.5"/>
<text text-anchor="middle" x="256.5" y="-26.5" font-family="Helvetica,sans-Serif" font-size="10.00" fill="#000000">setulb</text>
</a>
</g>
</g>
<!-- Node3&#45;&gt;Node4 -->
<g id="edge3" class="edge">
<title>Node3&#45;&gt;Node4</title>
<path fill="none" stroke="#191970" d="M209.3531,-29C217.944,-29 226.9895,-29 234.8344,-29"/>
<polygon fill="#191970" stroke="#191970" points="209.2108,-25.5001 199.2108,-29 209.2108,-32.5001 209.2108,-25.5001"/>
</g>
<!-- Node5&#45;&gt;Node3 -->
<g id="edge5" class="edge">
<title>Node5&#45;&gt;Node3</title>
<path fill="none" stroke="#191970" d="M127.001,-17.0952C135.8788,-19.2303 145.4779,-21.539 153.8386,-23.5498"/>
<polygon fill="#191970" stroke="#191970" points="127.5693,-13.6321 117.0281,-14.6966 125.9324,-20.4381 127.5693,-13.6321"/>
</g>
</g>
</svg>
