<?xml version="1.0" encoding="UTF-8" standalone="no"?>
<!DOCTYPE svg PUBLIC "-//W3C//DTD SVG 1.1//EN"
 "http://www.w3.org/Graphics/SVG/1.1/DTD/svg11.dtd">
<!-- Generated by graphviz version 2.40.1 (20161225.0304)
 -->
<!-- Title: dscal Pages: 1 -->
<svg width="292pt" height="104pt"
 viewBox="0.00 0.00 292.00 104.00" xmlns="http://www.w3.org/2000/svg" xmlns:xlink="http://www.w3.org/1999/xlink">
<g id="graph0" class="graph" transform="scale(1 1) rotate(0) translate(4 100)">
<title>dscal</title>
<!-- Node1 -->
<g id="node1" class="node">
<title>Node1</title>
<polygon fill="#bfbfbf" stroke="#000000" points="0,-38.5 0,-57.5 40,-57.5 40,-38.5 0,-38.5"/>
<text text-anchor="middle" x="20" y="-45.5" font-family="Helvetica,sans-Serif" font-size="10.00" fill="#000000">dscal</text>
</g>
<!-- Node2 -->
<g id="node2" class="node">
<title>Node2</title>
<g id="a_node2"><a xlink:href="cauchy_8f.html#ade50ac4208f509bdc3d04a325285a8be" target="_top" xlink:title="Compute the Generalized Cauchy Point along the projected gradient direction. ">
<polygon fill="none" stroke="#000000" points="76,-76.5 76,-95.5 124,-95.5 124,-76.5 76,-76.5"/>
<text text-anchor="middle" x="100" y="-83.5" font-family="Helvetica,sans-Serif" font-size="10.00" fill="#000000">cauchy</text>
</a>
</g>
</g>
<!-- Node1&#45;&gt;Node2 -->
<g id="edge1" class="edge">
<title>Node1&#45;&gt;Node2</title>
<path fill="none" stroke="#191970" d="M49.4783,-62.0022C59.5728,-66.7971 70.6297,-72.0491 79.8191,-76.4141"/>
<polygon fill="#191970" stroke="#191970" points="50.7219,-58.7182 40.1874,-57.589 47.7184,-65.0411 50.7219,-58.7182"/>
</g>
<!-- Node3 -->
<g id="node3" class="node">
<title>Node3</title>
<g id="a_node3"><a xlink:href="mainlb_8f.html#a5a0132dc055b1aade2710adfff9b8f09" target="_top" xlink:title="This subroutine solves bound constrained optimization problems by using the compact formula of the li...">
<polygon fill="none" stroke="#000000" points="160,-38.5 160,-57.5 205,-57.5 205,-38.5 160,-38.5"/>
<text text-anchor="middle" x="182.5" y="-45.5" font-family="Helvetica,sans-Serif" font-size="10.00" fill="#000000">mainlb</text>
</a>
</g>
</g>
<!-- Node1&#45;&gt;Node3 -->
<g id="edge4" class="edge">
<title>Node1&#45;&gt;Node3</title>
<path fill="none" stroke="#191970" d="M50.3115,-48C82.1079,-48 131.3486,-48 159.9011,-48"/>
<polygon fill="#191970" stroke="#191970" points="50.2522,-44.5001 40.2522,-48 50.2521,-51.5001 50.2522,-44.5001"/>
</g>
<!-- Node5 -->
<g id="node5" class="node">
<title>Node5</title>
<g id="a_node5"><a xlink:href="subsm_8f.html#a885224f17c93707dec22de0a51a4081d" target="_top" xlink:title="Performs the subspace minimization. ">
<polygon fill="none" stroke="#000000" points="77,-.5 77,-19.5 123,-19.5 123,-.5 77,-.5"/>
<text text-anchor="middle" x="100" y="-7.5" font-family="Helvetica,sans-Serif" font-size="10.00" fill="#000000">subsm</text>
</a>
</g>
</g>
<!-- Node1&#45;&gt;Node5 -->
<g id="edge5" class="edge">
<title>Node1&#45;&gt;Node5</title>
<path fill="none" stroke="#191970" d="M49.4783,-33.9978C59.5728,-29.2029 70.6297,-23.9509 79.8191,-19.5859"/>
<polygon fill="#191970" stroke="#191970" points="47.7184,-30.9589 40.1874,-38.411 50.7219,-37.2818 47.7184,-30.9589"/>
</g>
<!-- Node2&#45;&gt;Node3 -->
<g id="edge2" class="edge">
<title>Node2&#45;&gt;Node3</title>
<path fill="none" stroke="#191970" d="M130.0779,-72.1459C140.5741,-67.3113 152.1141,-61.9959 161.6884,-57.5859"/>
<polygon fill="#191970" stroke="#191970" points="128.4368,-69.0484 120.8182,-76.411 131.3653,-75.4063 128.4368,-69.0484"/>
</g>
<!-- Node4 -->
<g id="node4" class="node">
<title>Node4</title>
<g id="a_node4"><a xlink:href="setulb_8f.html#a98990772aba60ae5986ecbbcc015ebed" target="_top" xlink:title="This subroutine partitions the working arrays wa and iwa, and then uses the limited memory BFGS metho...">
<polygon fill="none" stroke="#000000" points="241,-38.5 241,-57.5 284,-57.5 284,-38.5 241,-38.5"/>
<text text-anchor="middle" x="262.5" y="-45.5" font-family="Helvetica,sans-Serif" font-size="10.00" fill="#000000">setulb</text>
</a>
</g>
</g>
<!-- Node3&#45;&gt;Node4 -->
<g id="edge3" class="edge">
<title>Node3&#45;&gt;Node4</title>
<path fill="none" stroke="#191970" d="M215.3531,-48C223.944,-48 232.9895,-48 240.8344,-48"/>
<polygon fill="#191970" stroke="#191970" points="215.2108,-44.5001 205.2108,-48 215.2108,-51.5001 215.2108,-44.5001"/>
</g>
<!-- Node5&#45;&gt;Node3 -->
<g id="edge6" class="edge">
<title>Node5&#45;&gt;Node3</title>
<path fill="none" stroke="#191970" d="M130.0779,-23.8541C140.5741,-28.6887 152.1141,-34.0041 161.6884,-38.4141"/>
<polygon fill="#191970" stroke="#191970" points="131.3653,-20.5937 120.8182,-19.589 128.4368,-26.9516 131.3653,-20.5937"/>
</g>
</g>
</svg>
