<?xml version="1.0" encoding="UTF-8" standalone="no"?>
<!DOCTYPE svg PUBLIC "-//W3C//DTD SVG 1.1//EN"
 "http://www.w3.org/Graphics/SVG/1.1/DTD/svg11.dtd">
<!-- Generated by graphviz version 2.40.1 (20161225.0304)
 -->
<!-- Title: dtrsl Pages: 1 -->
<svg width="369pt" height="142pt"
 viewBox="0.00 0.00 369.00 142.00" xmlns="http://www.w3.org/2000/svg" xmlns:xlink="http://www.w3.org/1999/xlink">
<g id="graph0" class="graph" transform="scale(1 1) rotate(0) translate(4 138)">
<title>dtrsl</title>
<!-- Node2 -->
<g id="node1" class="node">
<title>Node2</title>
<polygon fill="#bfbfbf" stroke="#000000" points="0,-38.5 0,-57.5 35,-57.5 35,-38.5 0,-38.5"/>
<text text-anchor="middle" x="17.5" y="-45.5" font-family="Helvetica,sans-Serif" font-size="10.00" fill="#000000">dtrsl</text>
</g>
<!-- Node3 -->
<g id="node2" class="node">
<title>Node3</title>
<g id="a_node2"><a xlink:href="bmv_8f.html#a3b7cf8256f5c958dd10a7f72db1a0f14" target="_top" xlink:title="This subroutine computes the product of the 2m x 2m middle matrix in the compact L&#45;BFGS formula of B ...">
<polygon fill="none" stroke="#000000" points="76.5,-76.5 76.5,-95.5 111.5,-95.5 111.5,-76.5 76.5,-76.5"/>
<text text-anchor="middle" x="94" y="-83.5" font-family="Helvetica,sans-Serif" font-size="10.00" fill="#000000">bmv</text>
</a>
</g>
</g>
<!-- Node2&#45;&gt;Node3 -->
<g id="edge1" class="edge">
<title>Node2&#45;&gt;Node3</title>
<path fill="none" stroke="#191970" d="M44.4963,-61.4099C55.0718,-66.6631 66.9073,-72.5422 76.3533,-77.2343"/>
<polygon fill="#191970" stroke="#191970" points="45.7559,-58.1277 35.2429,-56.8135 42.6418,-64.3968 45.7559,-58.1277"/>
</g>
<!-- Node8 -->
<g id="node7" class="node">
<title>Node8</title>
<g id="a_node7"><a xlink:href="formk_8f.html#a0e64ef7f777edb20419c8d441107c654" target="_top" xlink:title="Forms the LEL^T factorization of the indefinite matrix K. ">
<polygon fill="none" stroke="#000000" points="156.5,-38.5 156.5,-57.5 197.5,-57.5 197.5,-38.5 156.5,-38.5"/>
<text text-anchor="middle" x="177" y="-45.5" font-family="Helvetica,sans-Serif" font-size="10.00" fill="#000000">formk</text>
</a>
</g>
</g>
<!-- Node2&#45;&gt;Node8 -->
<g id="edge7" class="edge">
<title>Node2&#45;&gt;Node8</title>
<path fill="none" stroke="#191970" d="M45.536,-48C77.2779,-48 128.2365,-48 156.4811,-48"/>
<polygon fill="#191970" stroke="#191970" points="45.1787,-44.5001 35.1787,-48 45.1787,-51.5001 45.1787,-44.5001"/>
</g>
<!-- Node9 -->
<g id="node8" class="node">
<title>Node9</title>
<g id="a_node8"><a xlink:href="subsm_8f.html#a885224f17c93707dec22de0a51a4081d" target="_top" xlink:title="Performs the subspace minimization. ">
<polygon fill="none" stroke="#000000" points="71,-.5 71,-19.5 117,-19.5 117,-.5 71,-.5"/>
<text text-anchor="middle" x="94" y="-7.5" font-family="Helvetica,sans-Serif" font-size="10.00" fill="#000000">subsm</text>
</a>
</g>
</g>
<!-- Node2&#45;&gt;Node9 -->
<g id="edge9" class="edge">
<title>Node2&#45;&gt;Node9</title>
<path fill="none" stroke="#191970" d="M44.3899,-34.6429C54.4009,-29.6701 65.5537,-24.1302 74.7452,-19.5645"/>
<polygon fill="#191970" stroke="#191970" points="42.6418,-31.6032 35.2429,-39.1865 45.7559,-37.8723 42.6418,-31.6032"/>
</g>
<!-- Node4 -->
<g id="node3" class="node">
<title>Node4</title>
<g id="a_node3"><a xlink:href="cauchy_8f.html#ade50ac4208f509bdc3d04a325285a8be" target="_top" xlink:title="Compute the Generalized Cauchy Point along the projected gradient direction. ">
<polygon fill="none" stroke="#000000" points="153,-114.5 153,-133.5 201,-133.5 201,-114.5 153,-114.5"/>
<text text-anchor="middle" x="177" y="-121.5" font-family="Helvetica,sans-Serif" font-size="10.00" fill="#000000">cauchy</text>
</a>
</g>
</g>
<!-- Node3&#45;&gt;Node4 -->
<g id="edge2" class="edge">
<title>Node3&#45;&gt;Node4</title>
<path fill="none" stroke="#191970" d="M120.7515,-98.2477C132.239,-103.507 145.4596,-109.5598 156.1962,-114.4754"/>
<polygon fill="#191970" stroke="#191970" points="122.1515,-95.0393 111.6022,-94.0588 119.2376,-101.404 122.1515,-95.0393"/>
</g>
<!-- Node7 -->
<g id="node6" class="node">
<title>Node7</title>
<g id="a_node6"><a xlink:href="cmprlb_8f.html#aeca70b38353e4c44297fef717a66def4" target="_top" xlink:title="This subroutine computes r=&#45;Z&#39;B(xcp&#45;xk)&#45;Z&#39;g by using wa(2m+1)=W&#39;(xcp&#45;x) from subroutine cauchy...">
<polygon fill="none" stroke="#000000" points="154,-76.5 154,-95.5 200,-95.5 200,-76.5 154,-76.5"/>
<text text-anchor="middle" x="177" y="-83.5" font-family="Helvetica,sans-Serif" font-size="10.00" fill="#000000">cmprlb</text>
</a>
</g>
</g>
<!-- Node3&#45;&gt;Node7 -->
<g id="edge5" class="edge">
<title>Node3&#45;&gt;Node7</title>
<path fill="none" stroke="#191970" d="M121.8153,-86C132.1829,-86 143.8335,-86 153.7488,-86"/>
<polygon fill="#191970" stroke="#191970" points="121.6022,-82.5001 111.6022,-86 121.6021,-89.5001 121.6022,-82.5001"/>
</g>
<!-- Node5 -->
<g id="node4" class="node">
<title>Node5</title>
<g id="a_node4"><a xlink:href="mainlb_8f.html#a5a0132dc055b1aade2710adfff9b8f09" target="_top" xlink:title="This subroutine solves bound constrained optimization problems by using the compact formula of the li...">
<polygon fill="none" stroke="#000000" points="237,-57.5 237,-76.5 282,-76.5 282,-57.5 237,-57.5"/>
<text text-anchor="middle" x="259.5" y="-64.5" font-family="Helvetica,sans-Serif" font-size="10.00" fill="#000000">mainlb</text>
</a>
</g>
</g>
<!-- Node4&#45;&gt;Node5 -->
<g id="edge3" class="edge">
<title>Node4&#45;&gt;Node5</title>
<path fill="none" stroke="#191970" d="M199.5714,-108.4052C214.333,-98.2063 233.1401,-85.2123 245.7117,-76.5265"/>
<polygon fill="#191970" stroke="#191970" points="197.2328,-105.7668 190.995,-114.3307 201.2118,-111.5259 197.2328,-105.7668"/>
</g>
<!-- Node6 -->
<g id="node5" class="node">
<title>Node6</title>
<g id="a_node5"><a xlink:href="setulb_8f.html#a98990772aba60ae5986ecbbcc015ebed" target="_top" xlink:title="This subroutine partitions the working arrays wa and iwa, and then uses the limited memory BFGS metho...">
<polygon fill="none" stroke="#000000" points="318,-57.5 318,-76.5 361,-76.5 361,-57.5 318,-57.5"/>
<text text-anchor="middle" x="339.5" y="-64.5" font-family="Helvetica,sans-Serif" font-size="10.00" fill="#000000">setulb</text>
</a>
</g>
</g>
<!-- Node5&#45;&gt;Node6 -->
<g id="edge4" class="edge">
<title>Node5&#45;&gt;Node6</title>
<path fill="none" stroke="#191970" d="M292.3531,-67C300.944,-67 309.9895,-67 317.8344,-67"/>
<polygon fill="#191970" stroke="#191970" points="292.2108,-63.5001 282.2108,-67 292.2108,-70.5001 292.2108,-63.5001"/>
</g>
<!-- Node7&#45;&gt;Node5 -->
<g id="edge6" class="edge">
<title>Node7&#45;&gt;Node5</title>
<path fill="none" stroke="#191970" d="M210.2121,-78.3512C219.1663,-76.289 228.6462,-74.1057 236.8747,-72.2107"/>
<polygon fill="#191970" stroke="#191970" points="209.3799,-74.9511 200.4205,-80.6062 210.9509,-81.7725 209.3799,-74.9511"/>
</g>
<!-- Node8&#45;&gt;Node5 -->
<g id="edge8" class="edge">
<title>Node8&#45;&gt;Node5</title>
<path fill="none" stroke="#191970" d="M207.8647,-55.1082C217.5173,-57.3313 227.9814,-59.7412 236.9497,-61.8066"/>
<polygon fill="#191970" stroke="#191970" points="208.3487,-51.6281 197.8182,-52.7945 206.7776,-58.4496 208.3487,-51.6281"/>
</g>
<!-- Node9&#45;&gt;Node5 -->
<g id="edge10" class="edge">
<title>Node9&#45;&gt;Node5</title>
<path fill="none" stroke="#191970" d="M127.2746,-12.4588C148.8808,-14.8825 177.3218,-19.6548 201,-29 218.5737,-35.9359 236.4527,-48.5295 247.7392,-57.3099"/>
<polygon fill="#191970" stroke="#191970" points="127.5689,-8.9708 117.2677,-11.4479 126.8653,-15.9354 127.5689,-8.9708"/>
</g>
</g>
</svg>
