<?xml version="1.0" encoding="UTF-8" standalone="no"?>
<!DOCTYPE svg PUBLIC "-//W3C//DTD SVG 1.1//EN"
 "http://www.w3.org/Graphics/SVG/1.1/DTD/svg11.dtd">
<!-- Generated by graphviz version 2.40.1 (20161225.0304)
 -->
<!-- Title: formk Pages: 1 -->
<svg width="207pt" height="104pt"
 viewBox="0.00 0.00 207.00 104.00" xmlns="http://www.w3.org/2000/svg" xmlns:xlink="http://www.w3.org/1999/xlink">
<g id="graph0" class="graph" transform="scale(1 1) rotate(0) translate(4 100)">
<title>formk</title>
<!-- Node0 -->
<g id="node1" class="node">
<title>Node0</title>
<polygon fill="#bfbfbf" stroke="#000000" points="0,-38.5 0,-57.5 41,-57.5 41,-38.5 0,-38.5"/>
<text text-anchor="middle" x="20.5" y="-45.5" font-family="Helvetica,sans-Serif" font-size="10.00" fill="#000000">formk</text>
</g>
<!-- Node1 -->
<g id="node2" class="node">
<title>Node1</title>
<g id="a_node2"><a xlink:href="dcopy_8f.html#afc29c83942509cba5f3764115f0471d5" target="_top" xlink:title="copies a vector, x, to a vector, y. ">
<polygon fill="none" stroke="#000000" points="77,-76.5 77,-95.5 120,-95.5 120,-76.5 77,-76.5"/>
<text text-anchor="middle" x="98.5" y="-83.5" font-family="Helvetica,sans-Serif" font-size="10.00" fill="#000000">dcopy</text>
</a>
</g>
</g>
<!-- Node0&#45;&gt;Node1 -->
<g id="edge1" class="edge">
<title>Node0&#45;&gt;Node1</title>
<path fill="none" stroke="#191970" d="M40.1827,-57.589C49.1432,-61.9544 59.9239,-67.2065 69.7656,-72.0012"/>
<polygon fill="#191970" stroke="#191970" points="68.3008,-75.1808 78.8236,-76.4141 71.3666,-68.8878 68.3008,-75.1808"/>
</g>
<!-- Node2 -->
<g id="node3" class="node">
<title>Node2</title>
<g id="a_node3"><a xlink:href="dpofa_8f.html#abc3ea68902764ab6bbb5ae562e64eb5f" target="_top" xlink:title="factors a double precision symmetric positive definite matrix. ">
<polygon fill="none" stroke="#000000" points="78,-38.5 78,-57.5 119,-57.5 119,-38.5 78,-38.5"/>
<text text-anchor="middle" x="98.5" y="-45.5" font-family="Helvetica,sans-Serif" font-size="10.00" fill="#000000">dpofa</text>
</a>
</g>
</g>
<!-- Node0&#45;&gt;Node2 -->
<g id="edge2" class="edge">
<title>Node0&#45;&gt;Node2</title>
<path fill="none" stroke="#191970" d="M41.4026,-48C49.423,-48 58.7556,-48 67.5228,-48"/>
<polygon fill="#191970" stroke="#191970" points="67.8102,-51.5001 77.8102,-48 67.8102,-44.5001 67.8102,-51.5001"/>
</g>
<!-- Node3 -->
<g id="node4" class="node">
<title>Node3</title>
<g id="a_node4"><a xlink:href="dtrsl_8f.html#addd03dfa6a12af9f384b521e1f765a19" target="_top" xlink:title="dtrsl solves triangular systems. ">
<polygon fill="none" stroke="#000000" points="81,-.5 81,-19.5 116,-19.5 116,-.5 81,-.5"/>
<text text-anchor="middle" x="98.5" y="-7.5" font-family="Helvetica,sans-Serif" font-size="10.00" fill="#000000">dtrsl</text>
</a>
</g>
</g>
<!-- Node0&#45;&gt;Node3 -->
<g id="edge3" class="edge">
<title>Node0&#45;&gt;Node3</title>
<path fill="none" stroke="#191970" d="M40.1827,-38.411C49.7885,-33.7313 61.4859,-28.0325 71.8759,-22.9707"/>
<polygon fill="#191970" stroke="#191970" points="73.4958,-26.0749 80.9527,-18.5487 70.4299,-19.7819 73.4958,-26.0749"/>
</g>
<!-- Node4 -->
<g id="node5" class="node">
<title>Node4</title>
<g id="a_node5"><a xlink:href="daxpy_8f.html#adb136e14634fe4b772a0b034f52f3939" target="_top" xlink:title="constant times a vector plus a vector. ">
<polygon fill="none" stroke="#000000" points="156,-.5 156,-19.5 199,-19.5 199,-.5 156,-.5"/>
<text text-anchor="middle" x="177.5" y="-7.5" font-family="Helvetica,sans-Serif" font-size="10.00" fill="#000000">daxpy</text>
</a>
</g>
</g>
<!-- Node3&#45;&gt;Node4 -->
<g id="edge4" class="edge">
<title>Node3&#45;&gt;Node4</title>
<path fill="none" stroke="#191970" d="M116.0327,-10C124.737,-10 135.5281,-10 145.6276,-10"/>
<polygon fill="#191970" stroke="#191970" points="145.7856,-13.5001 155.7855,-10 145.7855,-6.5001 145.7856,-13.5001"/>
</g>
</g>
</svg>
