<?xml version="1.0" encoding="UTF-8" standalone="no"?>
<!DOCTYPE svg PUBLIC "-//W3C//DTD SVG 1.1//EN"
 "http://www.w3.org/Graphics/SVG/1.1/DTD/svg11.dtd">
<!-- Generated by graphviz version 2.40.1 (20161225.0304)
 -->
<!-- Title: mainlb Pages: 1 -->
<svg width="381pt" height="636pt"
 viewBox="0.00 0.00 381.00 636.00" xmlns="http://www.w3.org/2000/svg" xmlns:xlink="http://www.w3.org/1999/xlink">
<g id="graph0" class="graph" transform="scale(1 1) rotate(0) translate(4 632)">
<title>mainlb</title>
<!-- Node0 -->
<g id="node1" class="node">
<title>Node0</title>
<polygon fill="#bfbfbf" stroke="#000000" points="0,-304.5 0,-323.5 45,-323.5 45,-304.5 0,-304.5"/>
<text text-anchor="middle" x="22.5" y="-311.5" font-family="Helvetica,sans-Serif" font-size="10.00" fill="#000000">mainlb</text>
</g>
<!-- Node1 -->
<g id="node2" class="node">
<title>Node1</title>
<g id="a_node2"><a xlink:href="timer_8f.html#ab582fd1ba3cb021020eb67c22b03d118" target="_top" xlink:title="This routine computes cpu time in double precision. ">
<polygon fill="none" stroke="#000000" points="86.5,-608.5 86.5,-627.5 124.5,-627.5 124.5,-608.5 86.5,-608.5"/>
<text text-anchor="middle" x="105.5" y="-615.5" font-family="Helvetica,sans-Serif" font-size="10.00" fill="#000000">timer</text>
</a>
</g>
</g>
<!-- Node0&#45;&gt;Node1 -->
<g id="edge1" class="edge">
<title>Node0&#45;&gt;Node1</title>
<path fill="none" stroke="#191970" d="M23.5782,-323.6969C28.6368,-367.9762 51.0361,-550.8662 81,-599 81.4854,-599.7797 82.0149,-600.5398 82.5805,-601.2796"/>
<polygon fill="#191970" stroke="#191970" points="80.1198,-603.7687 89.6555,-608.3863 85.0806,-598.83 80.1198,-603.7687"/>
</g>
<!-- Node2 -->
<g id="node3" class="node">
<title>Node2</title>
<g id="a_node3"><a xlink:href="errclb_8f.html#affdf5cf80f86556653ba2cc860a2bb32" target="_top" xlink:title="This subroutine checks the validity of the input data. ">
<polygon fill="none" stroke="#000000" points="85,-570.5 85,-589.5 126,-589.5 126,-570.5 85,-570.5"/>
<text text-anchor="middle" x="105.5" y="-577.5" font-family="Helvetica,sans-Serif" font-size="10.00" fill="#000000">errclb</text>
</a>
</g>
</g>
<!-- Node0&#45;&gt;Node2 -->
<g id="edge2" class="edge">
<title>Node0&#45;&gt;Node2</title>
<path fill="none" stroke="#191970" d="M23.9207,-323.7367C29.9752,-364.3266 54.5268,-519.867 81,-561 81.497,-561.7723 82.0367,-562.526 82.611,-563.2603"/>
<polygon fill="#191970" stroke="#191970" points="80.1724,-565.7713 89.7329,-570.3372 85.1065,-560.8058 80.1724,-565.7713"/>
</g>
<!-- Node3 -->
<g id="node4" class="node">
<title>Node3</title>
<g id="a_node4"><a xlink:href="prn3lb_8f.html#a433c19f6cb8b79a552a65371fecffb8c" target="_top" xlink:title="This subroutine prints out information when either a built&#45;in convergence test is satisfied or when a...">
<polygon fill="none" stroke="#000000" points="84,-532.5 84,-551.5 127,-551.5 127,-532.5 84,-532.5"/>
<text text-anchor="middle" x="105.5" y="-539.5" font-family="Helvetica,sans-Serif" font-size="10.00" fill="#000000">prn3lb</text>
</a>
</g>
</g>
<!-- Node0&#45;&gt;Node3 -->
<g id="edge3" class="edge">
<title>Node0&#45;&gt;Node3</title>
<path fill="none" stroke="#191970" d="M23.0736,-323.6278C25.3556,-354.9977 36.0017,-456.09 81,-523 81.5257,-523.7816 82.094,-524.5452 82.6966,-525.2895"/>
<polygon fill="#191970" stroke="#191970" points="80.4789,-528.0148 90.0898,-532.4735 85.357,-522.9944 80.4789,-528.0148"/>
</g>
<!-- Node4 -->
<g id="node5" class="node">
<title>Node4</title>
<g id="a_node5"><a xlink:href="prn1lb_8f.html#a9d5d96d3efd3ea19322ee8d472954cc9" target="_top" xlink:title="This subroutine prints the input data, initial point, upper and lower bounds of each variable...">
<polygon fill="none" stroke="#000000" points="84,-494.5 84,-513.5 127,-513.5 127,-494.5 84,-494.5"/>
<text text-anchor="middle" x="105.5" y="-501.5" font-family="Helvetica,sans-Serif" font-size="10.00" fill="#000000">prn1lb</text>
</a>
</g>
</g>
<!-- Node0&#45;&gt;Node4 -->
<g id="edge4" class="edge">
<title>Node0&#45;&gt;Node4</title>
<path fill="none" stroke="#191970" d="M23.8364,-323.7797C28.01,-351.4333 42.8762,-431.6431 81,-485 81.5476,-485.7664 82.1349,-486.5169 82.7537,-487.2499"/>
<polygon fill="#191970" stroke="#191970" points="80.5777,-490.0109 90.2321,-494.3748 85.4063,-484.9428 80.5777,-490.0109"/>
</g>
<!-- Node5 -->
<g id="node6" class="node">
<title>Node5</title>
<g id="a_node6"><a xlink:href="active_8f.html#aabce91f1253de53e2bae52ad9b94fcbb" target="_top" xlink:title="This subroutine initializes iwhere and projects the initial x to the feasible set if necessary...">
<polygon fill="none" stroke="#000000" points="84,-456.5 84,-475.5 127,-475.5 127,-456.5 84,-456.5"/>
<text text-anchor="middle" x="105.5" y="-463.5" font-family="Helvetica,sans-Serif" font-size="10.00" fill="#000000">active</text>
</a>
</g>
</g>
<!-- Node0&#45;&gt;Node5 -->
<g id="edge5" class="edge">
<title>Node0&#45;&gt;Node5</title>
<path fill="none" stroke="#191970" d="M24.9325,-323.551C31.1689,-346.6556 49.4919,-406.634 81,-447 81.679,-447.8698 82.4063,-448.7222 83.1699,-449.5543"/>
<polygon fill="#191970" stroke="#191970" points="80.9488,-452.2658 90.6947,-456.4215 85.6675,-447.0952 80.9488,-452.2658"/>
</g>
<!-- Node6 -->
<g id="node7" class="node">
<title>Node6</title>
<g id="a_node7"><a xlink:href="dcopy_8f.html#afc29c83942509cba5f3764115f0471d5" target="_top" xlink:title="copies a vector, x, to a vector, y. ">
<polygon fill="none" stroke="#000000" points="167.5,-181.5 167.5,-200.5 210.5,-200.5 210.5,-181.5 167.5,-181.5"/>
<text text-anchor="middle" x="189" y="-188.5" font-family="Helvetica,sans-Serif" font-size="10.00" fill="#000000">dcopy</text>
</a>
</g>
</g>
<!-- Node0&#45;&gt;Node6 -->
<g id="edge6" class="edge">
<title>Node0&#45;&gt;Node6</title>
<path fill="none" stroke="#191970" d="M23.3031,-304.3839C26.0117,-278.883 37.2719,-209.5374 81,-181 103.5278,-166.2981 134.5453,-171.119 157.5617,-178.2518"/>
<polygon fill="#191970" stroke="#191970" points="156.6064,-181.6235 167.2007,-181.5146 158.8508,-174.993 156.6064,-181.6235"/>
</g>
<!-- Node7 -->
<g id="node8" class="node">
<title>Node7</title>
<g id="a_node8"><a xlink:href="projgr_8f.html#a7c7b868c8b42f51efd25e48cd293cb5f" target="_top" xlink:title="This subroutine computes the infinity norm of the projected gradient. ">
<polygon fill="none" stroke="#000000" points="85,-380.5 85,-399.5 126,-399.5 126,-380.5 85,-380.5"/>
<text text-anchor="middle" x="105.5" y="-387.5" font-family="Helvetica,sans-Serif" font-size="10.00" fill="#000000">projgr</text>
</a>
</g>
</g>
<!-- Node0&#45;&gt;Node7 -->
<g id="edge7" class="edge">
<title>Node0&#45;&gt;Node7</title>
<path fill="none" stroke="#191970" d="M31.713,-323.619C42.9838,-335.2331 62.8137,-355.1769 81,-371 82.1421,-371.9937 83.329,-372.9984 84.537,-373.9996"/>
<polygon fill="#191970" stroke="#191970" points="82.5655,-376.9042 92.5653,-380.4048 86.9311,-371.4323 82.5655,-376.9042"/>
</g>
<!-- Node8 -->
<g id="node9" class="node">
<title>Node8</title>
<g id="a_node9"><a xlink:href="cauchy_8f.html#ade50ac4208f509bdc3d04a325285a8be" target="_top" xlink:title="Compute the Generalized Cauchy Point along the projected gradient direction. ">
<polygon fill="none" stroke="#000000" points="81.5,-342.5 81.5,-361.5 129.5,-361.5 129.5,-342.5 81.5,-342.5"/>
<text text-anchor="middle" x="105.5" y="-349.5" font-family="Helvetica,sans-Serif" font-size="10.00" fill="#000000">cauchy</text>
</a>
</g>
</g>
<!-- Node0&#45;&gt;Node8 -->
<g id="edge8" class="edge">
<title>Node0&#45;&gt;Node8</title>
<path fill="none" stroke="#191970" d="M43.4444,-323.589C53.0776,-327.9994 64.6878,-333.3149 75.2472,-338.1493"/>
<polygon fill="#191970" stroke="#191970" points="74.0129,-341.4336 84.5623,-342.4141 76.9269,-335.0689 74.0129,-341.4336"/>
</g>
<!-- Node10 -->
<g id="node11" class="node">
<title>Node10</title>
<g id="a_node11"><a xlink:href="dscal_8f.html#a0590f8db475e11dc2c9137bb13887acf" target="_top" xlink:title="scales a vector by a constant. ">
<polygon fill="none" stroke="#000000" points="169,-266.5 169,-285.5 209,-285.5 209,-266.5 169,-266.5"/>
<text text-anchor="middle" x="189" y="-273.5" font-family="Helvetica,sans-Serif" font-size="10.00" fill="#000000">dscal</text>
</a>
</g>
</g>
<!-- Node0&#45;&gt;Node10 -->
<g id="edge33" class="edge">
<title>Node0&#45;&gt;Node10</title>
<path fill="none" stroke="#191970" d="M45.3391,-310.8886C67.2313,-307.6891 101.1206,-302.1666 130,-295 139.6642,-292.6018 150.0503,-289.4549 159.3738,-286.414"/>
<polygon fill="#191970" stroke="#191970" points="160.617,-289.6888 168.9894,-283.1962 158.3955,-283.0507 160.617,-289.6888"/>
</g>
<!-- Node15 -->
<g id="node16" class="node">
<title>Node15</title>
<g id="a_node16"><a xlink:href="freev_8f.html#a9e31e2bbd26db0eabd2e72c99e5a2f84" target="_top" xlink:title="This subroutine counts the entering and leaving variables when iter &gt; 0, and finds the index set of f...">
<polygon fill="none" stroke="#000000" points="86.5,-266.5 86.5,-285.5 124.5,-285.5 124.5,-266.5 86.5,-266.5"/>
<text text-anchor="middle" x="105.5" y="-273.5" font-family="Helvetica,sans-Serif" font-size="10.00" fill="#000000">freev</text>
</a>
</g>
</g>
<!-- Node0&#45;&gt;Node15 -->
<g id="edge17" class="edge">
<title>Node0&#45;&gt;Node15</title>
<path fill="none" stroke="#191970" d="M43.4444,-304.411C53.6216,-299.7515 66.0054,-294.0819 77.0255,-289.0365"/>
<polygon fill="#191970" stroke="#191970" points="78.6337,-292.1497 86.2691,-284.8045 75.7197,-285.785 78.6337,-292.1497"/>
</g>
<!-- Node16 -->
<g id="node17" class="node">
<title>Node16</title>
<g id="a_node17"><a xlink:href="formk_8f.html#a0e64ef7f777edb20419c8d441107c654" target="_top" xlink:title="Forms the LEL^T factorization of the indefinite matrix K. ">
<polygon fill="none" stroke="#000000" points="85,-114.5 85,-133.5 126,-133.5 126,-114.5 85,-114.5"/>
<text text-anchor="middle" x="105.5" y="-121.5" font-family="Helvetica,sans-Serif" font-size="10.00" fill="#000000">formk</text>
</a>
</g>
</g>
<!-- Node0&#45;&gt;Node16 -->
<g id="edge18" class="edge">
<title>Node0&#45;&gt;Node16</title>
<path fill="none" stroke="#191970" d="M24.2968,-304.3341C29.5741,-277.6871 46.8487,-201.6031 81,-148 82.5897,-145.5049 84.4852,-143.0742 86.508,-140.7769"/>
<polygon fill="#191970" stroke="#191970" points="89.0787,-143.155 93.6159,-133.5808 84.0984,-138.2358 89.0787,-143.155"/>
</g>
<!-- Node18 -->
<g id="node19" class="node">
<title>Node18</title>
<g id="a_node19"><a xlink:href="cmprlb_8f.html#aeca70b38353e4c44297fef717a66def4" target="_top" xlink:title="This subroutine computes r=&#45;Z&#39;B(xcp&#45;xk)&#45;Z&#39;g by using wa(2m+1)=W&#39;(xcp&#45;x) from subroutine cauchy...">
<polygon fill="none" stroke="#000000" points="82.5,-418.5 82.5,-437.5 128.5,-437.5 128.5,-418.5 82.5,-418.5"/>
<text text-anchor="middle" x="105.5" y="-425.5" font-family="Helvetica,sans-Serif" font-size="10.00" fill="#000000">cmprlb</text>
</a>
</g>
</g>
<!-- Node0&#45;&gt;Node18 -->
<g id="edge22" class="edge">
<title>Node0&#45;&gt;Node18</title>
<path fill="none" stroke="#191970" d="M26.9825,-323.6549C35.672,-341.7257 56.1566,-381.3263 81,-409 81.8495,-409.9463 82.7509,-410.8797 83.6873,-411.7946"/>
<polygon fill="#191970" stroke="#191970" points="81.4184,-414.4597 91.2728,-418.3509 85.9958,-409.1638 81.4184,-414.4597"/>
</g>
<!-- Node19 -->
<g id="node20" class="node">
<title>Node19</title>
<g id="a_node20"><a xlink:href="subsm_8f.html#a885224f17c93707dec22de0a51a4081d" target="_top" xlink:title="Performs the subspace minimization. ">
<polygon fill="none" stroke="#000000" points="82.5,-228.5 82.5,-247.5 128.5,-247.5 128.5,-228.5 82.5,-228.5"/>
<text text-anchor="middle" x="105.5" y="-235.5" font-family="Helvetica,sans-Serif" font-size="10.00" fill="#000000">subsm</text>
</a>
</g>
</g>
<!-- Node0&#45;&gt;Node19 -->
<g id="edge24" class="edge">
<title>Node0&#45;&gt;Node19</title>
<path fill="none" stroke="#191970" d="M31.713,-304.381C42.9838,-292.7669 62.8137,-272.8231 81,-257 82.1421,-256.0063 83.329,-255.0016 84.537,-254.0004"/>
<polygon fill="#191970" stroke="#191970" points="86.9311,-256.5677 92.5653,-247.5952 82.5655,-251.0958 86.9311,-256.5677"/>
</g>
<!-- Node20 -->
<g id="node21" class="node">
<title>Node20</title>
<g id="a_node21"><a xlink:href="lnsrlb_8f.html#a1ae769fcc1d4f0f54e793a730e879dbc" target="_top" xlink:title="This subroutine calls subroutine dcsrch from the Minpack2 library to perform the line search...">
<polygon fill="none" stroke="#000000" points="85.5,-38.5 85.5,-57.5 125.5,-57.5 125.5,-38.5 85.5,-38.5"/>
<text text-anchor="middle" x="105.5" y="-45.5" font-family="Helvetica,sans-Serif" font-size="10.00" fill="#000000">lnsrlb</text>
</a>
</g>
</g>
<!-- Node0&#45;&gt;Node20 -->
<g id="edge28" class="edge">
<title>Node0&#45;&gt;Node20</title>
<path fill="none" stroke="#191970" d="M23.9207,-304.2633C29.9752,-263.6734 54.5268,-108.133 81,-67 81.497,-66.2277 82.0367,-65.474 82.611,-64.7397"/>
<polygon fill="#191970" stroke="#191970" points="85.1065,-67.1942 89.7329,-57.6628 80.1724,-62.2287 85.1065,-67.1942"/>
</g>
<!-- Node23 -->
<g id="node24" class="node">
<title>Node23</title>
<g id="a_node24"><a xlink:href="prn2lb_8f.html#a5df5a6f8f26c5a5a68585b45a41032bd" target="_top" xlink:title="This subroutine prints out new information after a successful line search. ">
<polygon fill="none" stroke="#000000" points="84,-76.5 84,-95.5 127,-95.5 127,-76.5 84,-76.5"/>
<text text-anchor="middle" x="105.5" y="-83.5" font-family="Helvetica,sans-Serif" font-size="10.00" fill="#000000">prn2lb</text>
</a>
</g>
</g>
<!-- Node0&#45;&gt;Node23 -->
<g id="edge32" class="edge">
<title>Node0&#45;&gt;Node23</title>
<path fill="none" stroke="#191970" d="M23.0736,-304.3722C25.3556,-273.0023 36.0017,-171.91 81,-105 81.5257,-104.2184 82.094,-103.4548 82.6966,-102.7105"/>
<polygon fill="#191970" stroke="#191970" points="85.357,-105.0056 90.0898,-95.5265 80.4789,-99.9852 85.357,-105.0056"/>
</g>
<!-- Node24 -->
<g id="node25" class="node">
<title>Node24</title>
<g id="a_node25"><a xlink:href="matupd_8f.html#ae0d8b7b11bf7546ed4d53b433273f74b" target="_top" xlink:title="This subroutine updates matrices WS and WY, and forms the middle matrix in B. ">
<polygon fill="none" stroke="#000000" points="81,-190.5 81,-209.5 130,-209.5 130,-190.5 81,-190.5"/>
<text text-anchor="middle" x="105.5" y="-197.5" font-family="Helvetica,sans-Serif" font-size="10.00" fill="#000000">matupd</text>
</a>
</g>
</g>
<!-- Node0&#45;&gt;Node24 -->
<g id="edge34" class="edge">
<title>Node0&#45;&gt;Node24</title>
<path fill="none" stroke="#191970" d="M26.9825,-304.3451C35.672,-286.2743 56.1566,-246.6737 81,-219 81.8495,-218.0537 82.7509,-217.1203 83.6873,-216.2054"/>
<polygon fill="#191970" stroke="#191970" points="85.9958,-218.8362 91.2728,-209.6491 81.4184,-213.5403 85.9958,-218.8362"/>
</g>
<!-- Node25 -->
<g id="node26" class="node">
<title>Node25</title>
<g id="a_node26"><a xlink:href="formt_8f.html#a237bf34b63889556b05399c224ec5f71" target="_top" xlink:title="Forms the upper half of the pos. def. and symm. T. ">
<polygon fill="none" stroke="#000000" points="86,-.5 86,-19.5 125,-19.5 125,-.5 86,-.5"/>
<text text-anchor="middle" x="105.5" y="-7.5" font-family="Helvetica,sans-Serif" font-size="10.00" fill="#000000">formt</text>
</a>
</g>
</g>
<!-- Node0&#45;&gt;Node25 -->
<g id="edge36" class="edge">
<title>Node0&#45;&gt;Node25</title>
<path fill="none" stroke="#191970" d="M23.5782,-304.3031C28.6368,-260.0238 51.0361,-77.1338 81,-29 81.4854,-28.2203 82.0149,-27.4602 82.5805,-26.7204"/>
<polygon fill="#191970" stroke="#191970" points="85.0806,-29.17 89.6555,-19.6137 80.1198,-24.2313 85.0806,-29.17"/>
</g>
<!-- Node8&#45;&gt;Node6 -->
<g id="edge10" class="edge">
<title>Node8&#45;&gt;Node6</title>
<path fill="none" stroke="#191970" d="M110.4732,-342.4109C123.9583,-316.4098 161.4023,-244.2123 179.2701,-209.7607"/>
<polygon fill="#191970" stroke="#191970" points="182.4502,-211.231 183.9472,-200.7424 176.2362,-208.0082 182.4502,-211.231"/>
</g>
<!-- Node9 -->
<g id="node10" class="node">
<title>Node9</title>
<g id="a_node10"><a xlink:href="ddot_8f.html#a2a42ecc597403b22ad786715c739196b" target="_top" xlink:title="forms the dot product of two vectors. ">
<polygon fill="none" stroke="#000000" points="171.5,-380.5 171.5,-399.5 206.5,-399.5 206.5,-380.5 171.5,-380.5"/>
<text text-anchor="middle" x="189" y="-387.5" font-family="Helvetica,sans-Serif" font-size="10.00" fill="#000000">ddot</text>
</a>
</g>
</g>
<!-- Node8&#45;&gt;Node9 -->
<g id="edge9" class="edge">
<title>Node8&#45;&gt;Node9</title>
<path fill="none" stroke="#191970" d="M126.5706,-361.589C137.3655,-366.5017 150.628,-372.5373 162.1486,-377.7802"/>
<polygon fill="#191970" stroke="#191970" points="160.7721,-380.9991 171.3237,-381.9557 163.6717,-374.6279 160.7721,-380.9991"/>
</g>
<!-- Node8&#45;&gt;Node10 -->
<g id="edge11" class="edge">
<title>Node8&#45;&gt;Node10</title>
<path fill="none" stroke="#191970" d="M116.0753,-342.3745C129.8783,-329.8114 154.2433,-307.6349 170.9843,-292.3975"/>
<polygon fill="#191970" stroke="#191970" points="173.471,-294.8669 178.5105,-285.5473 168.7592,-289.6901 173.471,-294.8669"/>
</g>
<!-- Node11 -->
<g id="node12" class="node">
<title>Node11</title>
<g id="a_node12"><a xlink:href="bmv_8f.html#a3b7cf8256f5c958dd10a7f72db1a0f14" target="_top" xlink:title="This subroutine computes the product of the 2m x 2m middle matrix in the compact L&#45;BFGS formula of B ...">
<polygon fill="none" stroke="#000000" points="171.5,-418.5 171.5,-437.5 206.5,-437.5 206.5,-418.5 171.5,-418.5"/>
<text text-anchor="middle" x="189" y="-425.5" font-family="Helvetica,sans-Serif" font-size="10.00" fill="#000000">bmv</text>
</a>
</g>
</g>
<!-- Node8&#45;&gt;Node11 -->
<g id="edge12" class="edge">
<title>Node8&#45;&gt;Node11</title>
<path fill="none" stroke="#191970" d="M118.5159,-361.5037C122.3156,-364.4339 126.4096,-367.7477 130,-371 147.2423,-386.6185 149.0004,-393.1177 166,-409 166.9367,-409.8751 167.9072,-410.7586 168.8963,-411.6407"/>
<polygon fill="#191970" stroke="#191970" points="166.7112,-414.3773 176.5877,-418.2119 171.2582,-409.0551 166.7112,-414.3773"/>
</g>
<!-- Node13 -->
<g id="node14" class="node">
<title>Node13</title>
<g id="a_node14"><a xlink:href="daxpy_8f.html#adb136e14634fe4b772a0b034f52f3939" target="_top" xlink:title="constant times a vector plus a vector. ">
<polygon fill="none" stroke="#000000" points="330,-275.5 330,-294.5 373,-294.5 373,-275.5 330,-275.5"/>
<text text-anchor="middle" x="351.5" y="-282.5" font-family="Helvetica,sans-Serif" font-size="10.00" fill="#000000">daxpy</text>
</a>
</g>
</g>
<!-- Node8&#45;&gt;Node13 -->
<g id="edge16" class="edge">
<title>Node8&#45;&gt;Node13</title>
<path fill="none" stroke="#191970" d="M129.5557,-344.1352C140.6168,-340.5988 153.9339,-336.4534 166,-333 219.7046,-317.6296 282.7696,-301.7706 319.8074,-292.6774"/>
<polygon fill="#191970" stroke="#191970" points="321.0986,-295.9649 329.9808,-290.1894 319.4356,-289.1653 321.0986,-295.9649"/>
</g>
<!-- Node14 -->
<g id="node15" class="node">
<title>Node14</title>
<g id="a_node15"><a xlink:href="hpsolb_8f.html#a94349c617519970019d2f15efcb1df41" target="_top" xlink:title="This subroutine sorts out the least element of t, and puts the remaining elements of t in a heap...">
<polygon fill="none" stroke="#000000" points="166.5,-342.5 166.5,-361.5 211.5,-361.5 211.5,-342.5 166.5,-342.5"/>
<text text-anchor="middle" x="189" y="-349.5" font-family="Helvetica,sans-Serif" font-size="10.00" fill="#000000">hpsolb</text>
</a>
</g>
</g>
<!-- Node8&#45;&gt;Node14 -->
<g id="edge15" class="edge">
<title>Node8&#45;&gt;Node14</title>
<path fill="none" stroke="#191970" d="M129.6517,-352C137.9602,-352 147.4069,-352 156.2817,-352"/>
<polygon fill="#191970" stroke="#191970" points="156.3349,-355.5001 166.3349,-352 156.3348,-348.5001 156.3349,-355.5001"/>
</g>
<!-- Node12 -->
<g id="node13" class="node">
<title>Node12</title>
<g id="a_node13"><a xlink:href="dtrsl_8f.html#addd03dfa6a12af9f384b521e1f765a19" target="_top" xlink:title="dtrsl solves triangular systems. ">
<polygon fill="none" stroke="#000000" points="253.5,-247.5 253.5,-266.5 288.5,-266.5 288.5,-247.5 253.5,-247.5"/>
<text text-anchor="middle" x="271" y="-254.5" font-family="Helvetica,sans-Serif" font-size="10.00" fill="#000000">dtrsl</text>
</a>
</g>
</g>
<!-- Node11&#45;&gt;Node12 -->
<g id="edge13" class="edge">
<title>Node11&#45;&gt;Node12</title>
<path fill="none" stroke="#191970" d="M203.2265,-418.1703C206.4191,-415.4747 209.5747,-412.3595 212,-409 242.3996,-366.8921 259.5297,-307.0689 266.7962,-276.5502"/>
<polygon fill="#191970" stroke="#191970" points="270.2271,-277.2467 269.0334,-266.7194 263.4016,-275.6934 270.2271,-277.2467"/>
</g>
<!-- Node12&#45;&gt;Node13 -->
<g id="edge14" class="edge">
<title>Node12&#45;&gt;Node13</title>
<path fill="none" stroke="#191970" d="M288.8656,-263.2141C298.1571,-266.4459 309.7822,-270.4895 320.4861,-274.2125"/>
<polygon fill="#191970" stroke="#191970" points="319.369,-277.5296 329.9638,-277.5092 321.6687,-270.9181 319.369,-277.5296"/>
</g>
<!-- Node16&#45;&gt;Node6 -->
<g id="edge19" class="edge">
<title>Node16&#45;&gt;Node6</title>
<path fill="none" stroke="#191970" d="M117.4635,-133.5995C130.8566,-144.3461 152.783,-161.9397 168.8361,-174.8206"/>
<polygon fill="#191970" stroke="#191970" points="167.0687,-177.8898 177.0587,-181.4183 171.4495,-172.4301 167.0687,-177.8898"/>
</g>
<!-- Node16&#45;&gt;Node12 -->
<g id="edge21" class="edge">
<title>Node16&#45;&gt;Node12</title>
<path fill="none" stroke="#191970" d="M126.136,-129.6447C149.0197,-136.6816 186.1154,-150.4735 212,-172 234.244,-190.4989 251.8515,-219.3641 261.8522,-238.2305"/>
<polygon fill="#191970" stroke="#191970" points="258.826,-240.0004 266.49,-247.3156 265.0606,-236.8177 258.826,-240.0004"/>
</g>
<!-- Node17 -->
<g id="node18" class="node">
<title>Node17</title>
<g id="a_node18"><a xlink:href="dpofa_8f.html#abc3ea68902764ab6bbb5ae562e64eb5f" target="_top" xlink:title="factors a double precision symmetric positive definite matrix. ">
<polygon fill="none" stroke="#000000" points="168.5,-.5 168.5,-19.5 209.5,-19.5 209.5,-.5 168.5,-.5"/>
<text text-anchor="middle" x="189" y="-7.5" font-family="Helvetica,sans-Serif" font-size="10.00" fill="#000000">dpofa</text>
</a>
</g>
</g>
<!-- Node16&#45;&gt;Node17 -->
<g id="edge20" class="edge">
<title>Node16&#45;&gt;Node17</title>
<path fill="none" stroke="#191970" d="M120.2382,-114.3683C123.7286,-111.627 127.2357,-108.441 130,-105 153.4076,-75.862 143.0442,-58.4952 166,-29 166.668,-28.1417 167.3812,-27.2963 168.1277,-26.4676"/>
<polygon fill="#191970" stroke="#191970" points="170.5706,-28.9745 175.4226,-19.5559 165.7561,-23.893 170.5706,-28.9745"/>
</g>
<!-- Node18&#45;&gt;Node11 -->
<g id="edge23" class="edge">
<title>Node18&#45;&gt;Node11</title>
<path fill="none" stroke="#191970" d="M128.7594,-428C138.7876,-428 150.5993,-428 161.0948,-428"/>
<polygon fill="#191970" stroke="#191970" points="161.4257,-431.5001 171.4257,-428 161.4256,-424.5001 161.4257,-431.5001"/>
</g>
<!-- Node19&#45;&gt;Node6 -->
<g id="edge27" class="edge">
<title>Node19&#45;&gt;Node6</title>
<path fill="none" stroke="#191970" d="M122.3975,-228.4888C133.9782,-221.9704 149.57,-213.1941 162.7563,-205.7719"/>
<polygon fill="#191970" stroke="#191970" points="164.8435,-208.6135 171.8411,-200.6583 161.4099,-202.5134 164.8435,-208.6135"/>
</g>
<!-- Node19&#45;&gt;Node10 -->
<g id="edge26" class="edge">
<title>Node19&#45;&gt;Node10</title>
<path fill="none" stroke="#191970" d="M126.5706,-247.589C136.5849,-252.1464 148.7229,-257.6703 159.6238,-262.6312"/>
<polygon fill="#191970" stroke="#191970" points="158.2487,-265.8508 168.8003,-266.8073 161.1483,-259.4795 158.2487,-265.8508"/>
</g>
<!-- Node19&#45;&gt;Node12 -->
<g id="edge25" class="edge">
<title>Node19&#45;&gt;Node12</title>
<path fill="none" stroke="#191970" d="M128.5121,-240.6419C158.5159,-244.0864 210.9556,-250.1067 243.1638,-253.8043"/>
<polygon fill="#191970" stroke="#191970" points="242.9154,-257.2987 253.2493,-254.9622 243.7138,-250.3444 242.9154,-257.2987"/>
</g>
<!-- Node20&#45;&gt;Node6 -->
<g id="edge29" class="edge">
<title>Node20&#45;&gt;Node6</title>
<path fill="none" stroke="#191970" d="M120.2341,-57.635C123.7246,-60.3763 127.2328,-63.5614 130,-67 156.2878,-99.6653 174.3026,-145.9739 183.0043,-171.762"/>
<polygon fill="#191970" stroke="#191970" points="179.7371,-173.0325 186.1604,-181.4581 186.3933,-170.8658 179.7371,-173.0325"/>
</g>
<!-- Node21 -->
<g id="node22" class="node">
<title>Node21</title>
<g id="a_node22"><a xlink:href="dcsrch_8f.html#a25db7a7d8ddac831be23892a10ba2a76" target="_top" xlink:title="This subroutine finds a step that satisfies a sufficient decrease condition and a curvature condition...">
<polygon fill="none" stroke="#000000" points="166,-38.5 166,-57.5 212,-57.5 212,-38.5 166,-38.5"/>
<text text-anchor="middle" x="189" y="-45.5" font-family="Helvetica,sans-Serif" font-size="10.00" fill="#000000">dcsrch</text>
</a>
</g>
</g>
<!-- Node20&#45;&gt;Node21 -->
<g id="edge30" class="edge">
<title>Node20&#45;&gt;Node21</title>
<path fill="none" stroke="#191970" d="M125.713,-48C134.6686,-48 145.4448,-48 155.5458,-48"/>
<polygon fill="#191970" stroke="#191970" points="155.7233,-51.5001 165.7233,-48 155.7232,-44.5001 155.7233,-51.5001"/>
</g>
<!-- Node22 -->
<g id="node23" class="node">
<title>Node22</title>
<g id="a_node23"><a xlink:href="dcstep_8f.html#aa8518f45aef3723242c7ca3f41717a31" target="_top" xlink:title="This subroutine computes a safeguarded step for a search procedure and updates an interval that conta...">
<polygon fill="none" stroke="#000000" points="248,-38.5 248,-57.5 294,-57.5 294,-38.5 248,-38.5"/>
<text text-anchor="middle" x="271" y="-45.5" font-family="Helvetica,sans-Serif" font-size="10.00" fill="#000000">dcstep</text>
</a>
</g>
</g>
<!-- Node21&#45;&gt;Node22 -->
<g id="edge31" class="edge">
<title>Node21&#45;&gt;Node22</title>
<path fill="none" stroke="#191970" d="M212.2786,-48C220.2229,-48 229.2664,-48 237.8355,-48"/>
<polygon fill="#191970" stroke="#191970" points="237.9471,-51.5001 247.947,-48 237.947,-44.5001 237.9471,-51.5001"/>
</g>
<!-- Node24&#45;&gt;Node6 -->
<g id="edge35" class="edge">
<title>Node24&#45;&gt;Node6</title>
<path fill="none" stroke="#191970" d="M130.1011,-197.3484C138.6069,-196.4316 148.2621,-195.3909 157.2585,-194.4212"/>
<polygon fill="#191970" stroke="#191970" points="157.8411,-197.8788 167.4085,-193.3272 157.0909,-190.9191 157.8411,-197.8788"/>
</g>
<!-- Node25&#45;&gt;Node17 -->
<g id="edge37" class="edge">
<title>Node25&#45;&gt;Node17</title>
<path fill="none" stroke="#191970" d="M125.2883,-10C135.156,-10 147.3117,-10 158.351,-10"/>
<polygon fill="#191970" stroke="#191970" points="158.4817,-13.5001 168.4817,-10 158.4817,-6.5001 158.4817,-13.5001"/>
</g>
</g>
</svg>
