<?xml version="1.0" encoding="UTF-8" standalone="no"?>
<!DOCTYPE svg PUBLIC "-//W3C//DTD SVG 1.1//EN"
 "http://www.w3.org/Graphics/SVG/1.1/DTD/svg11.dtd">
<!-- Generated by graphviz version 2.44.0 ()
 -->
<!-- Title: mainlb Pages: 1 -->
<!--zoomable 560 -->
<svg id="main" version="1.1" xmlns="http://www.w3.org/2000/svg" xmlns:xlink="http://www.w3.org/1999/xlink" xml:space="preserve" onload="init(evt)">
<style type="text/css"><![CDATA[
.edge:hover path { stroke: red; }
.edge:hover polygon { stroke: red; fill: red; }
]]></style>
<script type="text/javascript"><![CDATA[
var edges = document.getElementsByTagName('g');
if (edges && edges.length) {
  for (var i=0;i<edges.length;i++) {
    if (edges[i].id.substr(0,4)=='edge') {
      edges[i].setAttribute('class','edge');
    }
  }
}
]]></script>
        <defs>
                <circle id="rim" cx="0" cy="0" r="7"/>
                <circle id="rim2" cx="0" cy="0" r="3.5"/>
                <g id="zoomPlus">
                        <use xlink:href="#rim" fill="#404040">
                                <set attributeName="fill" to="#808080" begin="zoomplus.mouseover" end="zoomplus.mouseout"/>
                        </use>
                        <path d="M-4,0h8M0,-4v8" fill="none" stroke="white" stroke-width="1.5" pointer-events="none"/>
                </g>
                <g id="zoomMin">
                        <use xlink:href="#rim" fill="#404040">
                                <set attributeName="fill" to="#808080" begin="zoomminus.mouseover" end="zoomminus.mouseout"/>
                        </use>
                        <path d="M-4,0h8" fill="none" stroke="white" stroke-width="1.5" pointer-events="none"/>
                </g>
                <g id="dirArrow">
                        <path fill="none" stroke="white" stroke-width="1.5" d="M0,-3.0v7 M-2.5,-0.5L0,-3.0L2.5,-0.5"/>
                </g>
               <g id="resetDef">
                       <use xlink:href="#rim2" fill="#404040">
                               <set attributeName="fill" to="#808080" begin="reset.mouseover" end="reset.mouseout"/>
                       </use>
               </g>
        </defs>

<script type="text/javascript">
var viewWidth = 302;
var viewHeight = 560;
var sectionId = 'dynsection-0';
</script>
<script xlink:href="svgpan.js"/>
<svg id="graph" class="graph">
<g id="viewport">
<title>mainlb</title>
<!-- Node1 -->
<g id="node1" class="node">
<title>Node1</title>
<g id="a_node1"><a xlink:title="This subroutine solves bound constrained optimization problems by using the compact formula of the li...">
<polygon fill="#bfbfbf" stroke="black" points="0,-266.5 0,-285.5 45,-285.5 45,-266.5 0,-266.5"/>
<text text-anchor="middle" x="22.5" y="-273.5" font-family="Helvetica,sans-Serif" font-size="10.00">mainlb</text>
</a>
</g>
</g>
<!-- Node2 -->
<g id="node2" class="node">
<title>Node2</title>
<g id="a_node2"><a xlink:href="active_8f.html#aabce91f1253de53e2bae52ad9b94fcbb" target="_top" xlink:title="This subroutine initializes iwhere and projects the initial x to the feasible set if necessary.">
<polygon fill="none" stroke="black" points="84,-532.5 84,-551.5 127,-551.5 127,-532.5 84,-532.5"/>
<text text-anchor="middle" x="105.5" y="-539.5" font-family="Helvetica,sans-Serif" font-size="10.00">active</text>
</a>
</g>
</g>
<!-- Node1&#45;&gt;Node2 -->
<g id="edge1" class="edge">
<title>Node1&#45;&gt;Node2</title>
<path fill="none" stroke="midnightblue" d="M23.56,-285.81C24.23,-320.86 30.27,-442.04 81,-523 81.49,-523.78 82.02,-524.54 82.58,-525.28"/>
<polygon fill="midnightblue" stroke="midnightblue" points="80.11,-527.76 89.61,-532.45 85.11,-522.86 80.11,-527.76"/>
</g>
<!-- Node3 -->
<g id="node3" class="node">
<title>Node3</title>
<g id="a_node3"><a xlink:href="cauchy_8f.html#ade50ac4208f509bdc3d04a325285a8be" target="_top" xlink:title="Compute the Generalized Cauchy Point along the projected gradient direction.">
<polygon fill="none" stroke="black" points="82,-456.5 82,-475.5 129,-475.5 129,-456.5 82,-456.5"/>
<text text-anchor="middle" x="105.5" y="-463.5" font-family="Helvetica,sans-Serif" font-size="10.00">cauchy</text>
</a>
</g>
</g>
<!-- Node1&#45;&gt;Node3 -->
<g id="edge2" class="edge">
<title>Node1&#45;&gt;Node3</title>
<path fill="none" stroke="midnightblue" d="M24.82,-285.74C28.95,-313.29 43.63,-393.26 81,-447 81.52,-447.75 82.09,-448.49 82.68,-449.22"/>
<polygon fill="midnightblue" stroke="midnightblue" points="80.27,-451.76 89.85,-456.29 85.19,-446.78 80.27,-451.76"/>
</g>
<!-- Node6 -->
<g id="node6" class="node">
<title>Node6</title>
<g id="a_node6"><a xlink:href="cmprlb_8f.html#aeca70b38353e4c44297fef717a66def4" target="_top" xlink:title="This subroutine computes r=&#45;Z&#39;B(xcp&#45;xk)&#45;Z&#39;g by using wa(2m+1)=W&#39;(xcp&#45;x) from subroutine cauchy.">
<polygon fill="none" stroke="black" points="82.5,-494.5 82.5,-513.5 128.5,-513.5 128.5,-494.5 82.5,-494.5"/>
<text text-anchor="middle" x="105.5" y="-501.5" font-family="Helvetica,sans-Serif" font-size="10.00">cmprlb</text>
</a>
</g>
</g>
<!-- Node1&#45;&gt;Node6 -->
<g id="edge5" class="edge">
<title>Node1&#45;&gt;Node6</title>
<path fill="none" stroke="midnightblue" d="M24.07,-285.59C26.34,-316.84 36.89,-417.62 81,-485 81.5,-485.77 82.05,-486.52 82.62,-487.25"/>
<polygon fill="midnightblue" stroke="midnightblue" points="80.18,-489.76 89.71,-494.39 85.14,-484.83 80.18,-489.76"/>
</g>
<!-- Node7 -->
<g id="node7" class="node">
<title>Node7</title>
<g id="a_node7"><a xlink:href="errclb_8f.html#affdf5cf80f86556653ba2cc860a2bb32" target="_top" xlink:title="This subroutine checks the validity of the input data.">
<polygon fill="none" stroke="black" points="85,-418.5 85,-437.5 126,-437.5 126,-418.5 85,-418.5"/>
<text text-anchor="middle" x="105.5" y="-425.5" font-family="Helvetica,sans-Serif" font-size="10.00">errclb</text>
</a>
</g>
</g>
<!-- Node1&#45;&gt;Node7 -->
<g id="edge7" class="edge">
<title>Node1&#45;&gt;Node7</title>
<path fill="none" stroke="midnightblue" d="M25.9,-285.51C32.06,-308.53 50.12,-368.33 81,-409 81.56,-409.73 82.14,-410.45 82.76,-411.16"/>
<polygon fill="midnightblue" stroke="midnightblue" points="80.41,-413.75 90.05,-418.15 85.25,-408.7 80.41,-413.75"/>
</g>
<!-- Node8 -->
<g id="node8" class="node">
<title>Node8</title>
<g id="a_node8"><a xlink:href="formk_8f.html#a0e64ef7f777edb20419c8d441107c654" target="_top" xlink:title="Forms the LEL^T factorization of the indefinite matrix K.">
<polygon fill="none" stroke="black" points="85,-380.5 85,-399.5 126,-399.5 126,-380.5 85,-380.5"/>
<text text-anchor="middle" x="105.5" y="-387.5" font-family="Helvetica,sans-Serif" font-size="10.00">formk</text>
</a>
</g>
</g>
<!-- Node1&#45;&gt;Node8 -->
<g id="edge8" class="edge">
<title>Node1&#45;&gt;Node8</title>
<path fill="none" stroke="midnightblue" d="M27.92,-285.61C36.49,-303.62 56.66,-343.11 81,-371 81.72,-371.83 82.49,-372.65 83.28,-373.46"/>
<polygon fill="midnightblue" stroke="midnightblue" points="81.08,-376.19 90.85,-380.29 85.77,-371 81.08,-376.19"/>
</g>
<!-- Node9 -->
<g id="node9" class="node">
<title>Node9</title>
<g id="a_node9"><a xlink:href="formt_8f.html#a237bf34b63889556b05399c224ec5f71" target="_top" xlink:title="Forms the upper half of the pos. def. and symm. T.">
<polygon fill="none" stroke="black" points="86,-342.5 86,-361.5 125,-361.5 125,-342.5 86,-342.5"/>
<text text-anchor="middle" x="105.5" y="-349.5" font-family="Helvetica,sans-Serif" font-size="10.00">formt</text>
</a>
</g>
</g>
<!-- Node1&#45;&gt;Node9 -->
<g id="edge9" class="edge">
<title>Node1&#45;&gt;Node9</title>
<path fill="none" stroke="midnightblue" d="M32.58,-285.58C43.68,-297.15 63.2,-317.06 81,-333 81.97,-333.87 82.97,-334.74 83.98,-335.62"/>
<polygon fill="midnightblue" stroke="midnightblue" points="81.94,-338.47 91.86,-342.17 86.41,-333.09 81.94,-338.47"/>
</g>
<!-- Node10 -->
<g id="node10" class="node">
<title>Node10</title>
<g id="a_node10"><a xlink:href="freev_8f.html#a9e31e2bbd26db0eabd2e72c99e5a2f84" target="_top" xlink:title="This subroutine counts the entering and leaving variables when iter &gt; 0, and finds the index set of f...">
<polygon fill="none" stroke="black" points="86.5,-304.5 86.5,-323.5 124.5,-323.5 124.5,-304.5 86.5,-304.5"/>
<text text-anchor="middle" x="105.5" y="-311.5" font-family="Helvetica,sans-Serif" font-size="10.00">freev</text>
</a>
</g>
</g>
<!-- Node1&#45;&gt;Node10 -->
<g id="edge10" class="edge">
<title>Node1&#45;&gt;Node10</title>
<path fill="none" stroke="midnightblue" d="M43.94,-285.59C54.02,-290.32 66.31,-296.08 77.18,-301.18"/>
<polygon fill="midnightblue" stroke="midnightblue" points="75.74,-304.37 86.28,-305.45 78.71,-298.04 75.74,-304.37"/>
</g>
<!-- Node11 -->
<g id="node11" class="node">
<title>Node11</title>
<g id="a_node11"><a xlink:href="lnsrlb_8f.html#a1ae769fcc1d4f0f54e793a730e879dbc" target="_top" xlink:title="This subroutine calls subroutine dcsrch from the Minpack2 library to perform the line search....">
<polygon fill="none" stroke="black" points="85.5,-266.5 85.5,-285.5 125.5,-285.5 125.5,-266.5 85.5,-266.5"/>
<text text-anchor="middle" x="105.5" y="-273.5" font-family="Helvetica,sans-Serif" font-size="10.00">lnsrlb</text>
</a>
</g>
</g>
<!-- Node1&#45;&gt;Node11 -->
<g id="edge11" class="edge">
<title>Node1&#45;&gt;Node11</title>
<path fill="none" stroke="midnightblue" d="M45.21,-276C54.43,-276 65.32,-276 75.24,-276"/>
<polygon fill="midnightblue" stroke="midnightblue" points="75.49,-279.5 85.49,-276 75.49,-272.5 75.49,-279.5"/>
</g>
<!-- Node14 -->
<g id="node14" class="node">
<title>Node14</title>
<g id="a_node14"><a xlink:href="matupd_8f.html#ae0d8b7b11bf7546ed4d53b433273f74b" target="_top" xlink:title="This subroutine updates matrices WS and WY, and forms the middle matrix in B.">
<polygon fill="none" stroke="black" points="81,-228.5 81,-247.5 130,-247.5 130,-228.5 81,-228.5"/>
<text text-anchor="middle" x="105.5" y="-235.5" font-family="Helvetica,sans-Serif" font-size="10.00">matupd</text>
</a>
</g>
</g>
<!-- Node1&#45;&gt;Node14 -->
<g id="edge14" class="edge">
<title>Node1&#45;&gt;Node14</title>
<path fill="none" stroke="midnightblue" d="M43.94,-266.41C53.34,-262 64.67,-256.69 74.98,-251.85"/>
<polygon fill="midnightblue" stroke="midnightblue" points="76.5,-255 84.07,-247.59 73.53,-248.66 76.5,-255"/>
</g>
<!-- Node15 -->
<g id="node15" class="node">
<title>Node15</title>
<g id="a_node15"><a xlink:href="prn1lb_8f.html#a9d5d96d3efd3ea19322ee8d472954cc9" target="_top" xlink:title="This subroutine prints the input data, initial point, upper and lower bounds of each variable,...">
<polygon fill="none" stroke="black" points="84,-190.5 84,-209.5 127,-209.5 127,-190.5 84,-190.5"/>
<text text-anchor="middle" x="105.5" y="-197.5" font-family="Helvetica,sans-Serif" font-size="10.00">prn1lb</text>
</a>
</g>
</g>
<!-- Node1&#45;&gt;Node15 -->
<g id="edge15" class="edge">
<title>Node1&#45;&gt;Node15</title>
<path fill="none" stroke="midnightblue" d="M32.58,-266.42C43.68,-254.85 63.2,-234.94 81,-219 81.97,-218.13 82.97,-217.26 83.98,-216.38"/>
<polygon fill="midnightblue" stroke="midnightblue" points="86.41,-218.91 91.86,-209.83 81.94,-213.53 86.41,-218.91"/>
</g>
<!-- Node16 -->
<g id="node16" class="node">
<title>Node16</title>
<g id="a_node16"><a xlink:href="prn2lb_8f.html#a5df5a6f8f26c5a5a68585b45a41032bd" target="_top" xlink:title="This subroutine prints out new information after a successful line search.">
<polygon fill="none" stroke="black" points="84,-152.5 84,-171.5 127,-171.5 127,-152.5 84,-152.5"/>
<text text-anchor="middle" x="105.5" y="-159.5" font-family="Helvetica,sans-Serif" font-size="10.00">prn2lb</text>
</a>
</g>
</g>
<!-- Node1&#45;&gt;Node16 -->
<g id="edge16" class="edge">
<title>Node1&#45;&gt;Node16</title>
<path fill="none" stroke="midnightblue" d="M27.92,-266.39C36.49,-248.38 56.66,-208.89 81,-181 81.72,-180.17 82.49,-179.35 83.28,-178.54"/>
<polygon fill="midnightblue" stroke="midnightblue" points="85.77,-181 90.85,-171.71 81.08,-175.81 85.77,-181"/>
</g>
<!-- Node17 -->
<g id="node17" class="node">
<title>Node17</title>
<g id="a_node17"><a xlink:href="prn3lb_8f.html#a433c19f6cb8b79a552a65371fecffb8c" target="_top" xlink:title="This subroutine prints out information when either a built&#45;in convergence test is satisfied or when a...">
<polygon fill="none" stroke="black" points="84,-114.5 84,-133.5 127,-133.5 127,-114.5 84,-114.5"/>
<text text-anchor="middle" x="105.5" y="-121.5" font-family="Helvetica,sans-Serif" font-size="10.00">prn3lb</text>
</a>
</g>
</g>
<!-- Node1&#45;&gt;Node17 -->
<g id="edge17" class="edge">
<title>Node1&#45;&gt;Node17</title>
<path fill="none" stroke="midnightblue" d="M25.9,-266.49C32.06,-243.47 50.12,-183.67 81,-143 81.56,-142.27 82.14,-141.55 82.76,-140.84"/>
<polygon fill="midnightblue" stroke="midnightblue" points="85.25,-143.3 90.05,-133.85 80.41,-138.25 85.25,-143.3"/>
</g>
<!-- Node18 -->
<g id="node18" class="node">
<title>Node18</title>
<g id="a_node18"><a xlink:href="projgr_8f.html#a7c7b868c8b42f51efd25e48cd293cb5f" target="_top" xlink:title="This subroutine computes the infinity norm of the projected gradient.">
<polygon fill="none" stroke="black" points="85,-76.5 85,-95.5 126,-95.5 126,-76.5 85,-76.5"/>
<text text-anchor="middle" x="105.5" y="-83.5" font-family="Helvetica,sans-Serif" font-size="10.00">projgr</text>
</a>
</g>
</g>
<!-- Node1&#45;&gt;Node18 -->
<g id="edge18" class="edge">
<title>Node1&#45;&gt;Node18</title>
<path fill="none" stroke="midnightblue" d="M24.82,-266.26C28.95,-238.71 43.63,-158.74 81,-105 81.52,-104.25 82.09,-103.51 82.68,-102.78"/>
<polygon fill="midnightblue" stroke="midnightblue" points="85.19,-105.22 89.85,-95.71 80.27,-100.24 85.19,-105.22"/>
</g>
<!-- Node19 -->
<g id="node19" class="node">
<title>Node19</title>
<g id="a_node19"><a xlink:href="subsm_8f.html#a885224f17c93707dec22de0a51a4081d" target="_top" xlink:title="Performs the subspace minimization.">
<polygon fill="none" stroke="black" points="82.5,-38.5 82.5,-57.5 128.5,-57.5 128.5,-38.5 82.5,-38.5"/>
<text text-anchor="middle" x="105.5" y="-45.5" font-family="Helvetica,sans-Serif" font-size="10.00">subsm</text>
</a>
</g>
</g>
<!-- Node1&#45;&gt;Node19 -->
<g id="edge19" class="edge">
<title>Node1&#45;&gt;Node19</title>
<path fill="none" stroke="midnightblue" d="M24.07,-266.41C26.34,-235.16 36.89,-134.38 81,-67 81.5,-66.23 82.05,-65.48 82.62,-64.75"/>
<polygon fill="midnightblue" stroke="midnightblue" points="85.14,-67.17 89.71,-57.61 80.18,-62.24 85.14,-67.17"/>
</g>
<!-- Node20 -->
<g id="node20" class="node">
<title>Node20</title>
<g id="a_node20"><a xlink:href="timer_8f.html#ab582fd1ba3cb021020eb67c22b03d118" target="_top" xlink:title="This routine computes cpu time in double precision.">
<polygon fill="none" stroke="black" points="86.5,-0.5 86.5,-19.5 124.5,-19.5 124.5,-0.5 86.5,-0.5"/>
<text text-anchor="middle" x="105.5" y="-7.5" font-family="Helvetica,sans-Serif" font-size="10.00">timer</text>
</a>
</g>
</g>
<!-- Node1&#45;&gt;Node20 -->
<g id="edge20" class="edge">
<title>Node1&#45;&gt;Node20</title>
<path fill="none" stroke="midnightblue" d="M23.56,-266.19C24.23,-231.14 30.27,-109.96 81,-29 81.49,-28.22 82.02,-27.46 82.58,-26.72"/>
<polygon fill="midnightblue" stroke="midnightblue" points="85.11,-29.14 89.61,-19.55 80.11,-24.24 85.11,-29.14"/>
</g>
<!-- Node4 -->
<g id="node4" class="node">
<title>Node4</title>
<g id="a_node4"><a xlink:href="bmv_8f.html#a3b7cf8256f5c958dd10a7f72db1a0f14" target="_top" xlink:title="This subroutine computes the product of the 2m x 2m middle matrix in the compact L&#45;BFGS formula of B ...">
<polygon fill="none" stroke="black" points="171.5,-494.5 171.5,-513.5 206.5,-513.5 206.5,-494.5 171.5,-494.5"/>
<text text-anchor="middle" x="189" y="-501.5" font-family="Helvetica,sans-Serif" font-size="10.00">bmv</text>
</a>
</g>
</g>
<!-- Node3&#45;&gt;Node4 -->
<g id="edge3" class="edge">
<title>Node3&#45;&gt;Node4</title>
<path fill="none" stroke="midnightblue" d="M127.07,-475.59C137.64,-480.52 150.65,-486.58 161.92,-491.84"/>
<polygon fill="midnightblue" stroke="midnightblue" points="160.74,-495.15 171.28,-496.2 163.7,-488.81 160.74,-495.15"/>
</g>
<!-- Node5 -->
<g id="node5" class="node">
<title>Node5</title>
<g id="a_node5"><a xlink:href="hpsolb_8f.html#a94349c617519970019d2f15efcb1df41" target="_top" xlink:title="This subroutine sorts out the least element of t, and puts the remaining elements of t in a heap.">
<polygon fill="none" stroke="black" points="166.5,-456.5 166.5,-475.5 211.5,-475.5 211.5,-456.5 166.5,-456.5"/>
<text text-anchor="middle" x="189" y="-463.5" font-family="Helvetica,sans-Serif" font-size="10.00">hpsolb</text>
</a>
</g>
</g>
<!-- Node3&#45;&gt;Node5 -->
<g id="edge4" class="edge">
<title>Node3&#45;&gt;Node5</title>
<path fill="none" stroke="midnightblue" d="M129.2,-466C137.53,-466 147.12,-466 156.1,-466"/>
<polygon fill="midnightblue" stroke="midnightblue" points="156.26,-469.5 166.26,-466 156.26,-462.5 156.26,-469.5"/>
</g>
<!-- Node6&#45;&gt;Node4 -->
<g id="edge6" class="edge">
<title>Node6&#45;&gt;Node4</title>
<path fill="none" stroke="midnightblue" d="M128.77,-504C138.77,-504 150.66,-504 161.16,-504"/>
<polygon fill="midnightblue" stroke="midnightblue" points="161.45,-507.5 171.45,-504 161.45,-500.5 161.45,-507.5"/>
</g>
<!-- Node12 -->
<g id="node12" class="node">
<title>Node12</title>
<g id="a_node12"><a xlink:href="dcsrch_8f.html#a25db7a7d8ddac831be23892a10ba2a76" target="_top" xlink:title="This subroutine finds a step that satisfies a sufficient decrease condition and a curvature condition...">
<polygon fill="none" stroke="black" points="166,-266.5 166,-285.5 212,-285.5 212,-266.5 166,-266.5"/>
<text text-anchor="middle" x="189" y="-273.5" font-family="Helvetica,sans-Serif" font-size="10.00">dcsrch</text>
</a>
</g>
</g>
<!-- Node11&#45;&gt;Node12 -->
<g id="edge12" class="edge">
<title>Node11&#45;&gt;Node12</title>
<path fill="none" stroke="midnightblue" d="M125.81,-276C134.76,-276 145.63,-276 155.76,-276"/>
<polygon fill="midnightblue" stroke="midnightblue" points="155.94,-279.5 165.94,-276 155.94,-272.5 155.94,-279.5"/>
</g>
<!-- Node13 -->
<g id="node13" class="node">
<title>Node13</title>
<g id="a_node13"><a xlink:href="dcstep_8f.html#aa8518f45aef3723242c7ca3f41717a31" target="_top" xlink:title="This subroutine computes a safeguarded step for a search procedure and updates an interval that conta...">
<polygon fill="none" stroke="black" points="248,-266.5 248,-285.5 294,-285.5 294,-266.5 248,-266.5"/>
<text text-anchor="middle" x="271" y="-273.5" font-family="Helvetica,sans-Serif" font-size="10.00">dcstep</text>
</a>
</g>
</g>
<!-- Node12&#45;&gt;Node13 -->
<g id="edge13" class="edge">
<title>Node12&#45;&gt;Node13</title>
<path fill="none" stroke="midnightblue" d="M212.28,-276C220.17,-276 229.21,-276 237.76,-276"/>
<polygon fill="midnightblue" stroke="midnightblue" points="237.84,-279.5 247.84,-276 237.84,-272.5 237.84,-279.5"/>
</g>
</g>
</svg>
        <g id="navigator" transform="translate(0 0)" fill="#404254">
                <rect fill="#f2f5e9" fill-opacity="0.5" stroke="#606060" stroke-width=".5" x="0" y="0" width="60" height="60"/>
                <use id="zoomplus" xlink:href="#zoomPlus" x="17" y="9" onmousedown="handleZoom(evt,'in')"/>
                <use id="zoomminus" xlink:href="#zoomMin" x="42" y="9" onmousedown="handleZoom(evt,'out')"/>
                <use id="reset" xlink:href="#resetDef" x="30" y="36" onmousedown="handleReset()"/>
                <g id="arrowUp" xlink:href="#dirArrow" transform="translate(30 24)" onmousedown="handlePan(0,-1)">
                  <use xlink:href="#rim" fill="#404040">
                        <set attributeName="fill" to="#808080" begin="arrowUp.mouseover" end="arrowUp.mouseout"/>
                  </use>
                  <path fill="none" stroke="white" stroke-width="1.5" d="M0,-3.0v7 M-2.5,-0.5L0,-3.0L2.5,-0.5"/>
                </g>
                <g id="arrowRight" xlink:href="#dirArrow" transform="rotate(90) translate(36 -43)" onmousedown="handlePan(1,0)">
                  <use xlink:href="#rim" fill="#404040">
                        <set attributeName="fill" to="#808080" begin="arrowRight.mouseover" end="arrowRight.mouseout"/>
                  </use>
                  <path fill="none" stroke="white" stroke-width="1.5" d="M0,-3.0v7 M-2.5,-0.5L0,-3.0L2.5,-0.5"/>
                </g>
                <g id="arrowDown" xlink:href="#dirArrow" transform="rotate(180) translate(-30 -48)" onmousedown="handlePan(0,1)">
                  <use xlink:href="#rim" fill="#404040">
                        <set attributeName="fill" to="#808080" begin="arrowDown.mouseover" end="arrowDown.mouseout"/>
                  </use>
                  <path fill="none" stroke="white" stroke-width="1.5" d="M0,-3.0v7 M-2.5,-0.5L0,-3.0L2.5,-0.5"/>
                </g>
                <g id="arrowLeft" xlink:href="#dirArrow" transform="rotate(270) translate(-36 17)" onmousedown="handlePan(-1,0)">
                  <use xlink:href="#rim" fill="#404040">
                        <set attributeName="fill" to="#808080" begin="arrowLeft.mouseover" end="arrowLeft.mouseout"/>
                  </use>
                  <path fill="none" stroke="white" stroke-width="1.5" d="M0,-3.0v7 M-2.5,-0.5L0,-3.0L2.5,-0.5"/>
                </g>
        </g>
        <svg viewBox="0 0 15 15" width="100%" height="30px" preserveAspectRatio="xMaxYMin meet">
         <g id="arrow_out" transform="scale(0.3 0.3)">
          <a xlink:href="mainlb_8f_a5a0132dc055b1aade2710adfff9b8f09_cgraph_org.svg" target="_base">
           <rect id="button" ry="5" rx="5" y="6" x="6" height="38" width="38"
                fill="#f2f5e9" fill-opacity="0.5" stroke="#606060" stroke-width="1.0"/>
           <path id="arrow"
             d="M 11.500037,31.436501 C 11.940474,20.09759 22.043105,11.32322 32.158766,21.979434 L 37.068811,17.246167 C 37.068811,17.246167 37.088388,32 37.088388,32 L 22.160133,31.978069 C 22.160133,31.978069 26.997745,27.140456 26.997745,27.140456 C 18.528582,18.264221 13.291696,25.230495 11.500037,31.436501 z"
             style="fill:#404040;"/>
          </a>
         </g>
        </svg>
</svg>
