<?xml version="1.0" encoding="UTF-8" standalone="no"?>
<!DOCTYPE svg PUBLIC "-//W3C//DTD SVG 1.1//EN"
 "http://www.w3.org/Graphics/SVG/1.1/DTD/svg11.dtd">
<!-- Generated by graphviz version 2.44.0 ()
 -->
<!-- Title: matupd Pages: 1 -->
<svg width="217pt" height="28pt"
 viewBox="0.00 0.00 217.00 28.00" xmlns="http://www.w3.org/2000/svg" xmlns:xlink="http://www.w3.org/1999/xlink">
<g id="graph0" class="graph" transform="scale(1 1) rotate(0) translate(4 24)">
<title>matupd</title>
<!-- Node1 -->
<g id="node1" class="node">
<title>Node1</title>
<g id="a_node1"><a xlink:title="This subroutine updates matrices WS and WY, and forms the middle matrix in B.">
<polygon fill="#bfbfbf" stroke="black" points="160,-0.5 160,-19.5 209,-19.5 209,-0.5 160,-0.5"/>
<text text-anchor="middle" x="184.5" y="-7.5" font-family="Helvetica,sans-Serif" font-size="10.00">matupd</text>
</a>
</g>
</g>
<!-- Node2 -->
<g id="node2" class="node">
<title>Node2</title>
<g id="a_node2"><a xlink:href="mainlb_8f.html#a5a0132dc055b1aade2710adfff9b8f09" target="_top" xlink:title="This subroutine solves bound constrained optimization problems by using the compact formula of the li...">
<polygon fill="none" stroke="black" points="79,-0.5 79,-19.5 124,-19.5 124,-0.5 79,-0.5"/>
<text text-anchor="middle" x="101.5" y="-7.5" font-family="Helvetica,sans-Serif" font-size="10.00">mainlb</text>
</a>
</g>
</g>
<!-- Node1&#45;&gt;Node2 -->
<g id="edge1" class="edge">
<title>Node1&#45;&gt;Node2</title>
<path fill="none" stroke="midnightblue" d="M149.51,-10C140.97,-10 132.02,-10 124.26,-10"/>
<polygon fill="midnightblue" stroke="midnightblue" points="149.64,-13.5 159.64,-10 149.64,-6.5 149.64,-13.5"/>
</g>
<!-- Node3 -->
<g id="node3" class="node">
<title>Node3</title>
<g id="a_node3"><a xlink:href="setulb_8f.html#a98990772aba60ae5986ecbbcc015ebed" target="_top" xlink:title="This subroutine partitions the working arrays wa and iwa, and then uses the limited memory BFGS metho...">
<polygon fill="none" stroke="black" points="0,-0.5 0,-19.5 43,-19.5 43,-0.5 0,-0.5"/>
<text text-anchor="middle" x="21.5" y="-7.5" font-family="Helvetica,sans-Serif" font-size="10.00">setulb</text>
</a>
</g>
</g>
<!-- Node2&#45;&gt;Node3 -->
<g id="edge2" class="edge">
<title>Node2&#45;&gt;Node3</title>
<path fill="none" stroke="midnightblue" d="M68.6,-10C59.97,-10 50.86,-10 43.04,-10"/>
<polygon fill="midnightblue" stroke="midnightblue" points="68.77,-13.5 78.77,-10 68.77,-6.5 68.77,-13.5"/>
</g>
</g>
</svg>
