<?xml version="1.0" encoding="UTF-8" standalone="no"?>
<!DOCTYPE svg PUBLIC "-//W3C//DTD SVG 1.1//EN"
 "http://www.w3.org/Graphics/SVG/1.1/DTD/svg11.dtd">
<!-- Generated by graphviz version 2.40.1 (20161225.0304)
 -->
<!-- Title: matupd Pages: 1 -->
<svg width="217pt" height="28pt"
 viewBox="0.00 0.00 217.00 28.00" xmlns="http://www.w3.org/2000/svg" xmlns:xlink="http://www.w3.org/1999/xlink">
<g id="graph0" class="graph" transform="scale(1 1) rotate(0) translate(4 24)">
<title>matupd</title>
<!-- Node2 -->
<g id="node1" class="node">
<title>Node2</title>
<polygon fill="#bfbfbf" stroke="#000000" points="0,-.5 0,-19.5 49,-19.5 49,-.5 0,-.5"/>
<text text-anchor="middle" x="24.5" y="-7.5" font-family="Helvetica,sans-Serif" font-size="10.00" fill="#000000">matupd</text>
</g>
<!-- Node3 -->
<g id="node2" class="node">
<title>Node3</title>
<g id="a_node2"><a xlink:href="mainlb_8f.html#a5a0132dc055b1aade2710adfff9b8f09" target="_top" xlink:title="This subroutine solves bound constrained optimization problems by using the compact formula of the li...">
<polygon fill="none" stroke="#000000" points="85,-.5 85,-19.5 130,-19.5 130,-.5 85,-.5"/>
<text text-anchor="middle" x="107.5" y="-7.5" font-family="Helvetica,sans-Serif" font-size="10.00" fill="#000000">mainlb</text>
</a>
</g>
</g>
<!-- Node2&#45;&gt;Node3 -->
<g id="edge1" class="edge">
<title>Node2&#45;&gt;Node3</title>
<path fill="none" stroke="#191970" d="M59.5638,-10C68.1296,-10 77.0704,-10 84.8781,-10"/>
<polygon fill="#191970" stroke="#191970" points="59.4028,-6.5001 49.4027,-10 59.4027,-13.5001 59.4028,-6.5001"/>
</g>
<!-- Node4 -->
<g id="node3" class="node">
<title>Node4</title>
<g id="a_node3"><a xlink:href="setulb_8f.html#a98990772aba60ae5986ecbbcc015ebed" target="_top" xlink:title="This subroutine partitions the working arrays wa and iwa, and then uses the limited memory BFGS metho...">
<polygon fill="none" stroke="#000000" points="166,-.5 166,-19.5 209,-19.5 209,-.5 166,-.5"/>
<text text-anchor="middle" x="187.5" y="-7.5" font-family="Helvetica,sans-Serif" font-size="10.00" fill="#000000">setulb</text>
</a>
</g>
</g>
<!-- Node3&#45;&gt;Node4 -->
<g id="edge2" class="edge">
<title>Node3&#45;&gt;Node4</title>
<path fill="none" stroke="#191970" d="M140.3531,-10C148.944,-10 157.9895,-10 165.8344,-10"/>
<polygon fill="#191970" stroke="#191970" points="140.2108,-6.5001 130.2108,-10 140.2108,-13.5001 140.2108,-6.5001"/>
</g>
</g>
</svg>
