<?xml version="1.0" encoding="UTF-8" standalone="no"?>
<!DOCTYPE svg PUBLIC "-//W3C//DTD SVG 1.1//EN"
 "http://www.w3.org/Graphics/SVG/1.1/DTD/svg11.dtd">
<!-- Generated by graphviz version 2.40.1 (20161225.0304)
 -->
<!-- Title: setulb Pages: 1 -->
<svg width="460pt" height="636pt"
 viewBox="0.00 0.00 460.00 636.00" xmlns="http://www.w3.org/2000/svg" xmlns:xlink="http://www.w3.org/1999/xlink">
<g id="graph0" class="graph" transform="scale(1 1) rotate(0) translate(4 632)">
<title>setulb</title>
<!-- Node0 -->
<g id="node1" class="node">
<title>Node0</title>
<polygon fill="#bfbfbf" stroke="#000000" points="0,-304.5 0,-323.5 43,-323.5 43,-304.5 0,-304.5"/>
<text text-anchor="middle" x="21.5" y="-311.5" font-family="Helvetica,sans-Serif" font-size="10.00" fill="#000000">setulb</text>
</g>
<!-- Node1 -->
<g id="node2" class="node">
<title>Node1</title>
<g id="a_node2"><a xlink:href="mainlb_8f.html#a5a0132dc055b1aade2710adfff9b8f09" target="_top" xlink:title="This subroutine solves bound constrained optimization problems by using the compact formula of the li...">
<polygon fill="none" stroke="#000000" points="79,-304.5 79,-323.5 124,-323.5 124,-304.5 79,-304.5"/>
<text text-anchor="middle" x="101.5" y="-311.5" font-family="Helvetica,sans-Serif" font-size="10.00" fill="#000000">mainlb</text>
</a>
</g>
</g>
<!-- Node0&#45;&gt;Node1 -->
<g id="edge1" class="edge">
<title>Node0&#45;&gt;Node1</title>
<path fill="none" stroke="#191970" d="M43.3604,-314C51.1882,-314 60.1918,-314 68.7392,-314"/>
<polygon fill="#191970" stroke="#191970" points="68.8293,-317.5001 78.8293,-314 68.8292,-310.5001 68.8293,-317.5001"/>
</g>
<!-- Node2 -->
<g id="node3" class="node">
<title>Node2</title>
<g id="a_node3"><a xlink:href="timer_8f.html#ab582fd1ba3cb021020eb67c22b03d118" target="_top" xlink:title="This routine computes cpu time in double precision. ">
<polygon fill="none" stroke="#000000" points="165.5,-608.5 165.5,-627.5 203.5,-627.5 203.5,-608.5 165.5,-608.5"/>
<text text-anchor="middle" x="184.5" y="-615.5" font-family="Helvetica,sans-Serif" font-size="10.00" fill="#000000">timer</text>
</a>
</g>
</g>
<!-- Node1&#45;&gt;Node2 -->
<g id="edge2" class="edge">
<title>Node1&#45;&gt;Node2</title>
<path fill="none" stroke="#191970" d="M102.5782,-323.6969C107.6368,-367.9762 130.0361,-550.8662 160,-599 160.4854,-599.7797 161.0149,-600.5398 161.5805,-601.2796"/>
<polygon fill="#191970" stroke="#191970" points="159.1198,-603.7687 168.6555,-608.3863 164.0806,-598.83 159.1198,-603.7687"/>
</g>
<!-- Node3 -->
<g id="node4" class="node">
<title>Node3</title>
<g id="a_node4"><a xlink:href="errclb_8f.html#affdf5cf80f86556653ba2cc860a2bb32" target="_top" xlink:title="This subroutine checks the validity of the input data. ">
<polygon fill="none" stroke="#000000" points="164,-570.5 164,-589.5 205,-589.5 205,-570.5 164,-570.5"/>
<text text-anchor="middle" x="184.5" y="-577.5" font-family="Helvetica,sans-Serif" font-size="10.00" fill="#000000">errclb</text>
</a>
</g>
</g>
<!-- Node1&#45;&gt;Node3 -->
<g id="edge3" class="edge">
<title>Node1&#45;&gt;Node3</title>
<path fill="none" stroke="#191970" d="M102.9207,-323.7367C108.9752,-364.3266 133.5268,-519.867 160,-561 160.497,-561.7723 161.0367,-562.526 161.611,-563.2603"/>
<polygon fill="#191970" stroke="#191970" points="159.1724,-565.7713 168.7329,-570.3372 164.1065,-560.8058 159.1724,-565.7713"/>
</g>
<!-- Node4 -->
<g id="node5" class="node">
<title>Node4</title>
<g id="a_node5"><a xlink:href="prn3lb_8f.html#a433c19f6cb8b79a552a65371fecffb8c" target="_top" xlink:title="This subroutine prints out information when either a built&#45;in convergence test is satisfied or when a...">
<polygon fill="none" stroke="#000000" points="163,-532.5 163,-551.5 206,-551.5 206,-532.5 163,-532.5"/>
<text text-anchor="middle" x="184.5" y="-539.5" font-family="Helvetica,sans-Serif" font-size="10.00" fill="#000000">prn3lb</text>
</a>
</g>
</g>
<!-- Node1&#45;&gt;Node4 -->
<g id="edge4" class="edge">
<title>Node1&#45;&gt;Node4</title>
<path fill="none" stroke="#191970" d="M102.0736,-323.6278C104.3556,-354.9977 115.0017,-456.09 160,-523 160.5257,-523.7816 161.094,-524.5452 161.6966,-525.2895"/>
<polygon fill="#191970" stroke="#191970" points="159.4789,-528.0148 169.0898,-532.4735 164.357,-522.9944 159.4789,-528.0148"/>
</g>
<!-- Node5 -->
<g id="node6" class="node">
<title>Node5</title>
<g id="a_node6"><a xlink:href="prn1lb_8f.html#a9d5d96d3efd3ea19322ee8d472954cc9" target="_top" xlink:title="This subroutine prints the input data, initial point, upper and lower bounds of each variable...">
<polygon fill="none" stroke="#000000" points="163,-494.5 163,-513.5 206,-513.5 206,-494.5 163,-494.5"/>
<text text-anchor="middle" x="184.5" y="-501.5" font-family="Helvetica,sans-Serif" font-size="10.00" fill="#000000">prn1lb</text>
</a>
</g>
</g>
<!-- Node1&#45;&gt;Node5 -->
<g id="edge5" class="edge">
<title>Node1&#45;&gt;Node5</title>
<path fill="none" stroke="#191970" d="M102.8364,-323.7797C107.01,-351.4333 121.8762,-431.6431 160,-485 160.5476,-485.7664 161.1349,-486.5169 161.7537,-487.2499"/>
<polygon fill="#191970" stroke="#191970" points="159.5777,-490.0109 169.2321,-494.3748 164.4063,-484.9428 159.5777,-490.0109"/>
</g>
<!-- Node6 -->
<g id="node7" class="node">
<title>Node6</title>
<g id="a_node7"><a xlink:href="active_8f.html#aabce91f1253de53e2bae52ad9b94fcbb" target="_top" xlink:title="This subroutine initializes iwhere and projects the initial x to the feasible set if necessary...">
<polygon fill="none" stroke="#000000" points="163,-456.5 163,-475.5 206,-475.5 206,-456.5 163,-456.5"/>
<text text-anchor="middle" x="184.5" y="-463.5" font-family="Helvetica,sans-Serif" font-size="10.00" fill="#000000">active</text>
</a>
</g>
</g>
<!-- Node1&#45;&gt;Node6 -->
<g id="edge6" class="edge">
<title>Node1&#45;&gt;Node6</title>
<path fill="none" stroke="#191970" d="M103.9325,-323.551C110.1689,-346.6556 128.4919,-406.634 160,-447 160.679,-447.8698 161.4063,-448.7222 162.1699,-449.5543"/>
<polygon fill="#191970" stroke="#191970" points="159.9488,-452.2658 169.6947,-456.4215 164.6675,-447.0952 159.9488,-452.2658"/>
</g>
<!-- Node7 -->
<g id="node8" class="node">
<title>Node7</title>
<g id="a_node8"><a xlink:href="dcopy_8f.html#afc29c83942509cba5f3764115f0471d5" target="_top" xlink:title="copies a vector, x, to a vector, y. ">
<polygon fill="none" stroke="#000000" points="246.5,-181.5 246.5,-200.5 289.5,-200.5 289.5,-181.5 246.5,-181.5"/>
<text text-anchor="middle" x="268" y="-188.5" font-family="Helvetica,sans-Serif" font-size="10.00" fill="#000000">dcopy</text>
</a>
</g>
</g>
<!-- Node1&#45;&gt;Node7 -->
<g id="edge7" class="edge">
<title>Node1&#45;&gt;Node7</title>
<path fill="none" stroke="#191970" d="M102.3031,-304.3839C105.0117,-278.883 116.2719,-209.5374 160,-181 182.5278,-166.2981 213.5453,-171.119 236.5617,-178.2518"/>
<polygon fill="#191970" stroke="#191970" points="235.6064,-181.6235 246.2007,-181.5146 237.8508,-174.993 235.6064,-181.6235"/>
</g>
<!-- Node8 -->
<g id="node9" class="node">
<title>Node8</title>
<g id="a_node9"><a xlink:href="projgr_8f.html#a7c7b868c8b42f51efd25e48cd293cb5f" target="_top" xlink:title="This subroutine computes the infinity norm of the projected gradient. ">
<polygon fill="none" stroke="#000000" points="164,-380.5 164,-399.5 205,-399.5 205,-380.5 164,-380.5"/>
<text text-anchor="middle" x="184.5" y="-387.5" font-family="Helvetica,sans-Serif" font-size="10.00" fill="#000000">projgr</text>
</a>
</g>
</g>
<!-- Node1&#45;&gt;Node8 -->
<g id="edge8" class="edge">
<title>Node1&#45;&gt;Node8</title>
<path fill="none" stroke="#191970" d="M110.713,-323.619C121.9838,-335.2331 141.8137,-355.1769 160,-371 161.1421,-371.9937 162.329,-372.9984 163.537,-373.9996"/>
<polygon fill="#191970" stroke="#191970" points="161.5655,-376.9042 171.5653,-380.4048 165.9311,-371.4323 161.5655,-376.9042"/>
</g>
<!-- Node9 -->
<g id="node10" class="node">
<title>Node9</title>
<g id="a_node10"><a xlink:href="cauchy_8f.html#ade50ac4208f509bdc3d04a325285a8be" target="_top" xlink:title="Compute the Generalized Cauchy Point along the projected gradient direction. ">
<polygon fill="none" stroke="#000000" points="160.5,-342.5 160.5,-361.5 208.5,-361.5 208.5,-342.5 160.5,-342.5"/>
<text text-anchor="middle" x="184.5" y="-349.5" font-family="Helvetica,sans-Serif" font-size="10.00" fill="#000000">cauchy</text>
</a>
</g>
</g>
<!-- Node1&#45;&gt;Node9 -->
<g id="edge9" class="edge">
<title>Node1&#45;&gt;Node9</title>
<path fill="none" stroke="#191970" d="M122.4444,-323.589C132.0776,-327.9994 143.6878,-333.3149 154.2472,-338.1493"/>
<polygon fill="#191970" stroke="#191970" points="153.0129,-341.4336 163.5623,-342.4141 155.9269,-335.0689 153.0129,-341.4336"/>
</g>
<!-- Node11 -->
<g id="node12" class="node">
<title>Node11</title>
<g id="a_node12"><a xlink:href="dscal_8f.html#a0590f8db475e11dc2c9137bb13887acf" target="_top" xlink:title="scales a vector by a constant. ">
<polygon fill="none" stroke="#000000" points="248,-266.5 248,-285.5 288,-285.5 288,-266.5 248,-266.5"/>
<text text-anchor="middle" x="268" y="-273.5" font-family="Helvetica,sans-Serif" font-size="10.00" fill="#000000">dscal</text>
</a>
</g>
</g>
<!-- Node1&#45;&gt;Node11 -->
<g id="edge34" class="edge">
<title>Node1&#45;&gt;Node11</title>
<path fill="none" stroke="#191970" d="M124.3391,-310.8886C146.2313,-307.6891 180.1206,-302.1666 209,-295 218.6642,-292.6018 229.0503,-289.4549 238.3738,-286.414"/>
<polygon fill="#191970" stroke="#191970" points="239.617,-289.6888 247.9894,-283.1962 237.3955,-283.0507 239.617,-289.6888"/>
</g>
<!-- Node16 -->
<g id="node17" class="node">
<title>Node16</title>
<g id="a_node17"><a xlink:href="freev_8f.html#a9e31e2bbd26db0eabd2e72c99e5a2f84" target="_top" xlink:title="This subroutine counts the entering and leaving variables when iter &gt; 0, and finds the index set of f...">
<polygon fill="none" stroke="#000000" points="165.5,-266.5 165.5,-285.5 203.5,-285.5 203.5,-266.5 165.5,-266.5"/>
<text text-anchor="middle" x="184.5" y="-273.5" font-family="Helvetica,sans-Serif" font-size="10.00" fill="#000000">freev</text>
</a>
</g>
</g>
<!-- Node1&#45;&gt;Node16 -->
<g id="edge18" class="edge">
<title>Node1&#45;&gt;Node16</title>
<path fill="none" stroke="#191970" d="M122.4444,-304.411C132.6216,-299.7515 145.0054,-294.0819 156.0255,-289.0365"/>
<polygon fill="#191970" stroke="#191970" points="157.6337,-292.1497 165.2691,-284.8045 154.7197,-285.785 157.6337,-292.1497"/>
</g>
<!-- Node17 -->
<g id="node18" class="node">
<title>Node17</title>
<g id="a_node18"><a xlink:href="formk_8f.html#a0e64ef7f777edb20419c8d441107c654" target="_top" xlink:title="Forms the LEL^T factorization of the indefinite matrix K. ">
<polygon fill="none" stroke="#000000" points="164,-114.5 164,-133.5 205,-133.5 205,-114.5 164,-114.5"/>
<text text-anchor="middle" x="184.5" y="-121.5" font-family="Helvetica,sans-Serif" font-size="10.00" fill="#000000">formk</text>
</a>
</g>
</g>
<!-- Node1&#45;&gt;Node17 -->
<g id="edge19" class="edge">
<title>Node1&#45;&gt;Node17</title>
<path fill="none" stroke="#191970" d="M103.2968,-304.3341C108.5741,-277.6871 125.8487,-201.6031 160,-148 161.5897,-145.5049 163.4852,-143.0742 165.508,-140.7769"/>
<polygon fill="#191970" stroke="#191970" points="168.0787,-143.155 172.6159,-133.5808 163.0984,-138.2358 168.0787,-143.155"/>
</g>
<!-- Node19 -->
<g id="node20" class="node">
<title>Node19</title>
<g id="a_node20"><a xlink:href="cmprlb_8f.html#aeca70b38353e4c44297fef717a66def4" target="_top" xlink:title="This subroutine computes r=&#45;Z&#39;B(xcp&#45;xk)&#45;Z&#39;g by using wa(2m+1)=W&#39;(xcp&#45;x) from subroutine cauchy...">
<polygon fill="none" stroke="#000000" points="161.5,-418.5 161.5,-437.5 207.5,-437.5 207.5,-418.5 161.5,-418.5"/>
<text text-anchor="middle" x="184.5" y="-425.5" font-family="Helvetica,sans-Serif" font-size="10.00" fill="#000000">cmprlb</text>
</a>
</g>
</g>
<!-- Node1&#45;&gt;Node19 -->
<g id="edge23" class="edge">
<title>Node1&#45;&gt;Node19</title>
<path fill="none" stroke="#191970" d="M105.9825,-323.6549C114.672,-341.7257 135.1566,-381.3263 160,-409 160.8495,-409.9463 161.7509,-410.8797 162.6873,-411.7946"/>
<polygon fill="#191970" stroke="#191970" points="160.4184,-414.4597 170.2728,-418.3509 164.9958,-409.1638 160.4184,-414.4597"/>
</g>
<!-- Node20 -->
<g id="node21" class="node">
<title>Node20</title>
<g id="a_node21"><a xlink:href="subsm_8f.html#a885224f17c93707dec22de0a51a4081d" target="_top" xlink:title="Performs the subspace minimization. ">
<polygon fill="none" stroke="#000000" points="161.5,-228.5 161.5,-247.5 207.5,-247.5 207.5,-228.5 161.5,-228.5"/>
<text text-anchor="middle" x="184.5" y="-235.5" font-family="Helvetica,sans-Serif" font-size="10.00" fill="#000000">subsm</text>
</a>
</g>
</g>
<!-- Node1&#45;&gt;Node20 -->
<g id="edge25" class="edge">
<title>Node1&#45;&gt;Node20</title>
<path fill="none" stroke="#191970" d="M110.713,-304.381C121.9838,-292.7669 141.8137,-272.8231 160,-257 161.1421,-256.0063 162.329,-255.0016 163.537,-254.0004"/>
<polygon fill="#191970" stroke="#191970" points="165.9311,-256.5677 171.5653,-247.5952 161.5655,-251.0958 165.9311,-256.5677"/>
</g>
<!-- Node21 -->
<g id="node22" class="node">
<title>Node21</title>
<g id="a_node22"><a xlink:href="lnsrlb_8f.html#a1ae769fcc1d4f0f54e793a730e879dbc" target="_top" xlink:title="This subroutine calls subroutine dcsrch from the Minpack2 library to perform the line search...">
<polygon fill="none" stroke="#000000" points="164.5,-38.5 164.5,-57.5 204.5,-57.5 204.5,-38.5 164.5,-38.5"/>
<text text-anchor="middle" x="184.5" y="-45.5" font-family="Helvetica,sans-Serif" font-size="10.00" fill="#000000">lnsrlb</text>
</a>
</g>
</g>
<!-- Node1&#45;&gt;Node21 -->
<g id="edge29" class="edge">
<title>Node1&#45;&gt;Node21</title>
<path fill="none" stroke="#191970" d="M102.9207,-304.2633C108.9752,-263.6734 133.5268,-108.133 160,-67 160.497,-66.2277 161.0367,-65.474 161.611,-64.7397"/>
<polygon fill="#191970" stroke="#191970" points="164.1065,-67.1942 168.7329,-57.6628 159.1724,-62.2287 164.1065,-67.1942"/>
</g>
<!-- Node24 -->
<g id="node25" class="node">
<title>Node24</title>
<g id="a_node25"><a xlink:href="prn2lb_8f.html#a5df5a6f8f26c5a5a68585b45a41032bd" target="_top" xlink:title="This subroutine prints out new information after a successful line search. ">
<polygon fill="none" stroke="#000000" points="163,-76.5 163,-95.5 206,-95.5 206,-76.5 163,-76.5"/>
<text text-anchor="middle" x="184.5" y="-83.5" font-family="Helvetica,sans-Serif" font-size="10.00" fill="#000000">prn2lb</text>
</a>
</g>
</g>
<!-- Node1&#45;&gt;Node24 -->
<g id="edge33" class="edge">
<title>Node1&#45;&gt;Node24</title>
<path fill="none" stroke="#191970" d="M102.0736,-304.3722C104.3556,-273.0023 115.0017,-171.91 160,-105 160.5257,-104.2184 161.094,-103.4548 161.6966,-102.7105"/>
<polygon fill="#191970" stroke="#191970" points="164.357,-105.0056 169.0898,-95.5265 159.4789,-99.9852 164.357,-105.0056"/>
</g>
<!-- Node25 -->
<g id="node26" class="node">
<title>Node25</title>
<g id="a_node26"><a xlink:href="matupd_8f.html#ae0d8b7b11bf7546ed4d53b433273f74b" target="_top" xlink:title="This subroutine updates matrices WS and WY, and forms the middle matrix in B. ">
<polygon fill="none" stroke="#000000" points="160,-190.5 160,-209.5 209,-209.5 209,-190.5 160,-190.5"/>
<text text-anchor="middle" x="184.5" y="-197.5" font-family="Helvetica,sans-Serif" font-size="10.00" fill="#000000">matupd</text>
</a>
</g>
</g>
<!-- Node1&#45;&gt;Node25 -->
<g id="edge35" class="edge">
<title>Node1&#45;&gt;Node25</title>
<path fill="none" stroke="#191970" d="M105.9825,-304.3451C114.672,-286.2743 135.1566,-246.6737 160,-219 160.8495,-218.0537 161.7509,-217.1203 162.6873,-216.2054"/>
<polygon fill="#191970" stroke="#191970" points="164.9958,-218.8362 170.2728,-209.6491 160.4184,-213.5403 164.9958,-218.8362"/>
</g>
<!-- Node26 -->
<g id="node27" class="node">
<title>Node26</title>
<g id="a_node27"><a xlink:href="formt_8f.html#a237bf34b63889556b05399c224ec5f71" target="_top" xlink:title="Forms the upper half of the pos. def. and symm. T. ">
<polygon fill="none" stroke="#000000" points="165,-.5 165,-19.5 204,-19.5 204,-.5 165,-.5"/>
<text text-anchor="middle" x="184.5" y="-7.5" font-family="Helvetica,sans-Serif" font-size="10.00" fill="#000000">formt</text>
</a>
</g>
</g>
<!-- Node1&#45;&gt;Node26 -->
<g id="edge37" class="edge">
<title>Node1&#45;&gt;Node26</title>
<path fill="none" stroke="#191970" d="M102.5782,-304.3031C107.6368,-260.0238 130.0361,-77.1338 160,-29 160.4854,-28.2203 161.0149,-27.4602 161.5805,-26.7204"/>
<polygon fill="#191970" stroke="#191970" points="164.0806,-29.17 168.6555,-19.6137 159.1198,-24.2313 164.0806,-29.17"/>
</g>
<!-- Node9&#45;&gt;Node7 -->
<g id="edge11" class="edge">
<title>Node9&#45;&gt;Node7</title>
<path fill="none" stroke="#191970" d="M189.4732,-342.4109C202.9583,-316.4098 240.4023,-244.2123 258.2701,-209.7607"/>
<polygon fill="#191970" stroke="#191970" points="261.4502,-211.231 262.9472,-200.7424 255.2362,-208.0082 261.4502,-211.231"/>
</g>
<!-- Node10 -->
<g id="node11" class="node">
<title>Node10</title>
<g id="a_node11"><a xlink:href="ddot_8f.html#a2a42ecc597403b22ad786715c739196b" target="_top" xlink:title="forms the dot product of two vectors. ">
<polygon fill="none" stroke="#000000" points="250.5,-380.5 250.5,-399.5 285.5,-399.5 285.5,-380.5 250.5,-380.5"/>
<text text-anchor="middle" x="268" y="-387.5" font-family="Helvetica,sans-Serif" font-size="10.00" fill="#000000">ddot</text>
</a>
</g>
</g>
<!-- Node9&#45;&gt;Node10 -->
<g id="edge10" class="edge">
<title>Node9&#45;&gt;Node10</title>
<path fill="none" stroke="#191970" d="M205.5706,-361.589C216.3655,-366.5017 229.628,-372.5373 241.1486,-377.7802"/>
<polygon fill="#191970" stroke="#191970" points="239.7721,-380.9991 250.3237,-381.9557 242.6717,-374.6279 239.7721,-380.9991"/>
</g>
<!-- Node9&#45;&gt;Node11 -->
<g id="edge12" class="edge">
<title>Node9&#45;&gt;Node11</title>
<path fill="none" stroke="#191970" d="M195.0753,-342.3745C208.8783,-329.8114 233.2433,-307.6349 249.9843,-292.3975"/>
<polygon fill="#191970" stroke="#191970" points="252.471,-294.8669 257.5105,-285.5473 247.7592,-289.6901 252.471,-294.8669"/>
</g>
<!-- Node12 -->
<g id="node13" class="node">
<title>Node12</title>
<g id="a_node13"><a xlink:href="bmv_8f.html#a3b7cf8256f5c958dd10a7f72db1a0f14" target="_top" xlink:title="This subroutine computes the product of the 2m x 2m middle matrix in the compact L&#45;BFGS formula of B ...">
<polygon fill="none" stroke="#000000" points="250.5,-418.5 250.5,-437.5 285.5,-437.5 285.5,-418.5 250.5,-418.5"/>
<text text-anchor="middle" x="268" y="-425.5" font-family="Helvetica,sans-Serif" font-size="10.00" fill="#000000">bmv</text>
</a>
</g>
</g>
<!-- Node9&#45;&gt;Node12 -->
<g id="edge13" class="edge">
<title>Node9&#45;&gt;Node12</title>
<path fill="none" stroke="#191970" d="M197.5159,-361.5037C201.3156,-364.4339 205.4096,-367.7477 209,-371 226.2423,-386.6185 228.0004,-393.1177 245,-409 245.9367,-409.8751 246.9072,-410.7586 247.8963,-411.6407"/>
<polygon fill="#191970" stroke="#191970" points="245.7112,-414.3773 255.5877,-418.2119 250.2582,-409.0551 245.7112,-414.3773"/>
</g>
<!-- Node14 -->
<g id="node15" class="node">
<title>Node14</title>
<g id="a_node15"><a xlink:href="daxpy_8f.html#adb136e14634fe4b772a0b034f52f3939" target="_top" xlink:title="constant times a vector plus a vector. ">
<polygon fill="none" stroke="#000000" points="409,-275.5 409,-294.5 452,-294.5 452,-275.5 409,-275.5"/>
<text text-anchor="middle" x="430.5" y="-282.5" font-family="Helvetica,sans-Serif" font-size="10.00" fill="#000000">daxpy</text>
</a>
</g>
</g>
<!-- Node9&#45;&gt;Node14 -->
<g id="edge17" class="edge">
<title>Node9&#45;&gt;Node14</title>
<path fill="none" stroke="#191970" d="M208.5557,-344.1352C219.6168,-340.5988 232.9339,-336.4534 245,-333 298.7046,-317.6296 361.7696,-301.7706 398.8074,-292.6774"/>
<polygon fill="#191970" stroke="#191970" points="400.0986,-295.9649 408.9808,-290.1894 398.4356,-289.1653 400.0986,-295.9649"/>
</g>
<!-- Node15 -->
<g id="node16" class="node">
<title>Node15</title>
<g id="a_node16"><a xlink:href="hpsolb_8f.html#a94349c617519970019d2f15efcb1df41" target="_top" xlink:title="This subroutine sorts out the least element of t, and puts the remaining elements of t in a heap...">
<polygon fill="none" stroke="#000000" points="245.5,-342.5 245.5,-361.5 290.5,-361.5 290.5,-342.5 245.5,-342.5"/>
<text text-anchor="middle" x="268" y="-349.5" font-family="Helvetica,sans-Serif" font-size="10.00" fill="#000000">hpsolb</text>
</a>
</g>
</g>
<!-- Node9&#45;&gt;Node15 -->
<g id="edge16" class="edge">
<title>Node9&#45;&gt;Node15</title>
<path fill="none" stroke="#191970" d="M208.6517,-352C216.9602,-352 226.4069,-352 235.2817,-352"/>
<polygon fill="#191970" stroke="#191970" points="235.3349,-355.5001 245.3349,-352 235.3348,-348.5001 235.3349,-355.5001"/>
</g>
<!-- Node13 -->
<g id="node14" class="node">
<title>Node13</title>
<g id="a_node14"><a xlink:href="dtrsl_8f.html#addd03dfa6a12af9f384b521e1f765a19" target="_top" xlink:title="dtrsl solves triangular systems. ">
<polygon fill="none" stroke="#000000" points="332.5,-247.5 332.5,-266.5 367.5,-266.5 367.5,-247.5 332.5,-247.5"/>
<text text-anchor="middle" x="350" y="-254.5" font-family="Helvetica,sans-Serif" font-size="10.00" fill="#000000">dtrsl</text>
</a>
</g>
</g>
<!-- Node12&#45;&gt;Node13 -->
<g id="edge14" class="edge">
<title>Node12&#45;&gt;Node13</title>
<path fill="none" stroke="#191970" d="M282.2265,-418.1703C285.4191,-415.4747 288.5747,-412.3595 291,-409 321.3996,-366.8921 338.5297,-307.0689 345.7962,-276.5502"/>
<polygon fill="#191970" stroke="#191970" points="349.2271,-277.2467 348.0334,-266.7194 342.4016,-275.6934 349.2271,-277.2467"/>
</g>
<!-- Node13&#45;&gt;Node14 -->
<g id="edge15" class="edge">
<title>Node13&#45;&gt;Node14</title>
<path fill="none" stroke="#191970" d="M367.8656,-263.2141C377.1571,-266.4459 388.7822,-270.4895 399.4861,-274.2125"/>
<polygon fill="#191970" stroke="#191970" points="398.369,-277.5296 408.9638,-277.5092 400.6687,-270.9181 398.369,-277.5296"/>
</g>
<!-- Node17&#45;&gt;Node7 -->
<g id="edge20" class="edge">
<title>Node17&#45;&gt;Node7</title>
<path fill="none" stroke="#191970" d="M196.4635,-133.5995C209.8566,-144.3461 231.783,-161.9397 247.8361,-174.8206"/>
<polygon fill="#191970" stroke="#191970" points="246.0687,-177.8898 256.0587,-181.4183 250.4495,-172.4301 246.0687,-177.8898"/>
</g>
<!-- Node17&#45;&gt;Node13 -->
<g id="edge22" class="edge">
<title>Node17&#45;&gt;Node13</title>
<path fill="none" stroke="#191970" d="M205.136,-129.6447C228.0197,-136.6816 265.1154,-150.4735 291,-172 313.244,-190.4989 330.8515,-219.3641 340.8522,-238.2305"/>
<polygon fill="#191970" stroke="#191970" points="337.826,-240.0004 345.49,-247.3156 344.0606,-236.8177 337.826,-240.0004"/>
</g>
<!-- Node18 -->
<g id="node19" class="node">
<title>Node18</title>
<g id="a_node19"><a xlink:href="dpofa_8f.html#abc3ea68902764ab6bbb5ae562e64eb5f" target="_top" xlink:title="factors a double precision symmetric positive definite matrix. ">
<polygon fill="none" stroke="#000000" points="247.5,-.5 247.5,-19.5 288.5,-19.5 288.5,-.5 247.5,-.5"/>
<text text-anchor="middle" x="268" y="-7.5" font-family="Helvetica,sans-Serif" font-size="10.00" fill="#000000">dpofa</text>
</a>
</g>
</g>
<!-- Node17&#45;&gt;Node18 -->
<g id="edge21" class="edge">
<title>Node17&#45;&gt;Node18</title>
<path fill="none" stroke="#191970" d="M199.2382,-114.3683C202.7286,-111.627 206.2357,-108.441 209,-105 232.4076,-75.862 222.0442,-58.4952 245,-29 245.668,-28.1417 246.3812,-27.2963 247.1277,-26.4676"/>
<polygon fill="#191970" stroke="#191970" points="249.5706,-28.9745 254.4226,-19.5559 244.7561,-23.893 249.5706,-28.9745"/>
</g>
<!-- Node19&#45;&gt;Node12 -->
<g id="edge24" class="edge">
<title>Node19&#45;&gt;Node12</title>
<path fill="none" stroke="#191970" d="M207.7594,-428C217.7876,-428 229.5993,-428 240.0948,-428"/>
<polygon fill="#191970" stroke="#191970" points="240.4257,-431.5001 250.4257,-428 240.4256,-424.5001 240.4257,-431.5001"/>
</g>
<!-- Node20&#45;&gt;Node7 -->
<g id="edge28" class="edge">
<title>Node20&#45;&gt;Node7</title>
<path fill="none" stroke="#191970" d="M201.3975,-228.4888C212.9782,-221.9704 228.57,-213.1941 241.7563,-205.7719"/>
<polygon fill="#191970" stroke="#191970" points="243.8435,-208.6135 250.8411,-200.6583 240.4099,-202.5134 243.8435,-208.6135"/>
</g>
<!-- Node20&#45;&gt;Node11 -->
<g id="edge27" class="edge">
<title>Node20&#45;&gt;Node11</title>
<path fill="none" stroke="#191970" d="M205.5706,-247.589C215.5849,-252.1464 227.7229,-257.6703 238.6238,-262.6312"/>
<polygon fill="#191970" stroke="#191970" points="237.2487,-265.8508 247.8003,-266.8073 240.1483,-259.4795 237.2487,-265.8508"/>
</g>
<!-- Node20&#45;&gt;Node13 -->
<g id="edge26" class="edge">
<title>Node20&#45;&gt;Node13</title>
<path fill="none" stroke="#191970" d="M207.5121,-240.6419C237.5159,-244.0864 289.9556,-250.1067 322.1638,-253.8043"/>
<polygon fill="#191970" stroke="#191970" points="321.9154,-257.2987 332.2493,-254.9622 322.7138,-250.3444 321.9154,-257.2987"/>
</g>
<!-- Node21&#45;&gt;Node7 -->
<g id="edge30" class="edge">
<title>Node21&#45;&gt;Node7</title>
<path fill="none" stroke="#191970" d="M199.2341,-57.635C202.7246,-60.3763 206.2328,-63.5614 209,-67 235.2878,-99.6653 253.3026,-145.9739 262.0043,-171.762"/>
<polygon fill="#191970" stroke="#191970" points="258.7371,-173.0325 265.1604,-181.4581 265.3933,-170.8658 258.7371,-173.0325"/>
</g>
<!-- Node22 -->
<g id="node23" class="node">
<title>Node22</title>
<g id="a_node23"><a xlink:href="dcsrch_8f.html#a25db7a7d8ddac831be23892a10ba2a76" target="_top" xlink:title="This subroutine finds a step that satisfies a sufficient decrease condition and a curvature condition...">
<polygon fill="none" stroke="#000000" points="245,-38.5 245,-57.5 291,-57.5 291,-38.5 245,-38.5"/>
<text text-anchor="middle" x="268" y="-45.5" font-family="Helvetica,sans-Serif" font-size="10.00" fill="#000000">dcsrch</text>
</a>
</g>
</g>
<!-- Node21&#45;&gt;Node22 -->
<g id="edge31" class="edge">
<title>Node21&#45;&gt;Node22</title>
<path fill="none" stroke="#191970" d="M204.713,-48C213.6686,-48 224.4448,-48 234.5458,-48"/>
<polygon fill="#191970" stroke="#191970" points="234.7233,-51.5001 244.7233,-48 234.7232,-44.5001 234.7233,-51.5001"/>
</g>
<!-- Node23 -->
<g id="node24" class="node">
<title>Node23</title>
<g id="a_node24"><a xlink:href="dcstep_8f.html#aa8518f45aef3723242c7ca3f41717a31" target="_top" xlink:title="This subroutine computes a safeguarded step for a search procedure and updates an interval that conta...">
<polygon fill="none" stroke="#000000" points="327,-38.5 327,-57.5 373,-57.5 373,-38.5 327,-38.5"/>
<text text-anchor="middle" x="350" y="-45.5" font-family="Helvetica,sans-Serif" font-size="10.00" fill="#000000">dcstep</text>
</a>
</g>
</g>
<!-- Node22&#45;&gt;Node23 -->
<g id="edge32" class="edge">
<title>Node22&#45;&gt;Node23</title>
<path fill="none" stroke="#191970" d="M291.2786,-48C299.2229,-48 308.2664,-48 316.8355,-48"/>
<polygon fill="#191970" stroke="#191970" points="316.9471,-51.5001 326.947,-48 316.947,-44.5001 316.9471,-51.5001"/>
</g>
<!-- Node25&#45;&gt;Node7 -->
<g id="edge36" class="edge">
<title>Node25&#45;&gt;Node7</title>
<path fill="none" stroke="#191970" d="M209.1011,-197.3484C217.6069,-196.4316 227.2621,-195.3909 236.2585,-194.4212"/>
<polygon fill="#191970" stroke="#191970" points="236.8411,-197.8788 246.4085,-193.3272 236.0909,-190.9191 236.8411,-197.8788"/>
</g>
<!-- Node26&#45;&gt;Node18 -->
<g id="edge38" class="edge">
<title>Node26&#45;&gt;Node18</title>
<path fill="none" stroke="#191970" d="M204.2883,-10C214.156,-10 226.3117,-10 237.351,-10"/>
<polygon fill="#191970" stroke="#191970" points="237.4817,-13.5001 247.4817,-10 237.4817,-6.5001 237.4817,-13.5001"/>
</g>
</g>
</svg>
