<?xml version="1.0" encoding="UTF-8" standalone="no"?>
<!DOCTYPE svg PUBLIC "-//W3C//DTD SVG 1.1//EN"
 "http://www.w3.org/Graphics/SVG/1.1/DTD/svg11.dtd">
<!-- Generated by graphviz version 2.48.0 (20210719.0153)
 -->
<!-- Title: setulb Pages: 1 -->
<!--zoomable 560 -->
<svg id="main" version="1.1" xmlns="http://www.w3.org/2000/svg" xmlns:xlink="http://www.w3.org/1999/xlink" xml:space="preserve" onload="init(evt)">
<style type="text/css"><![CDATA[
.edge:hover path { stroke: red; }
.edge:hover polygon { stroke: red; fill: red; }
]]></style>
<script type="text/javascript"><![CDATA[
var edges = document.getElementsByTagName('g');
if (edges && edges.length) {
  for (var i=0;i<edges.length;i++) {
    if (edges[i].id.substr(0,4)=='edge') {
      edges[i].setAttribute('class','edge');
    }
  }
}
]]></script>
        <defs>
                <circle id="rim" cx="0" cy="0" r="7"/>
                <circle id="rim2" cx="0" cy="0" r="3.5"/>
                <g id="zoomPlus">
                        <use xlink:href="#rim" fill="#404040">
                                <set attributeName="fill" to="#808080" begin="zoomplus.mouseover" end="zoomplus.mouseout"/>
                        </use>
                        <path d="M-4,0h8M0,-4v8" fill="none" stroke="white" stroke-width="1.5" pointer-events="none"/>
                </g>
                <g id="zoomMin">
                        <use xlink:href="#rim" fill="#404040">
                                <set attributeName="fill" to="#808080" begin="zoomminus.mouseover" end="zoomminus.mouseout"/>
                        </use>
                        <path d="M-4,0h8" fill="none" stroke="white" stroke-width="1.5" pointer-events="none"/>
                </g>
                <g id="dirArrow">
                        <path fill="none" stroke="white" stroke-width="1.5" d="M0,-3.0v7 M-2.5,-0.5L0,-3.0L2.5,-0.5"/>
                </g>
               <g id="resetDef">
                       <use xlink:href="#rim2" fill="#404040">
                               <set attributeName="fill" to="#808080" begin="reset.mouseover" end="reset.mouseout"/>
                       </use>
               </g>
        </defs>

<script type="text/javascript">
var viewWidth = 381;
var viewHeight = 560;
var sectionId = 'dynsection-0';
</script>
<script xlink:href="svgpan.js"/>
<svg id="graph" class="graph">
<g id="viewport">
<title>setulb</title>
<!-- Node1 -->
<g id="node1" class="node">
<title>Node1</title>
<g id="a_node1"><a xlink:title="This subroutine partitions the working arrays wa and iwa, and then uses the limited memory BFGS metho...">
<polygon fill="#bfbfbf" stroke="black" points="0,-266.5 0,-285.5 43,-285.5 43,-266.5 0,-266.5"/>
<text text-anchor="middle" x="21.5" y="-273.5" font-family="Helvetica,sans-Serif" font-size="10.00">setulb</text>
</a>
</g>
</g>
<!-- Node2 -->
<g id="node2" class="node">
<title>Node2</title>
<g id="a_node2"><a xlink:href="mainlb_8f.html#a5a0132dc055b1aade2710adfff9b8f09" target="_top" xlink:title="This subroutine solves bound constrained optimization problems by using the compact formula of the li...">
<polygon fill="none" stroke="black" points="79,-266.5 79,-285.5 124,-285.5 124,-266.5 79,-266.5"/>
<text text-anchor="middle" x="101.5" y="-273.5" font-family="Helvetica,sans-Serif" font-size="10.00">mainlb</text>
</a>
</g>
</g>
<!-- Node1&#45;&gt;Node2 -->
<g id="edge1" class="edge">
<title>Node1&#45;&gt;Node2</title>
<path fill="none" stroke="midnightblue" d="M43.4,-276C51.23,-276 60.31,-276 68.89,-276"/>
<polygon fill="midnightblue" stroke="midnightblue" points="69,-279.5 79,-276 69,-272.5 69,-279.5"/>
</g>
<!-- Node3 -->
<g id="node3" class="node">
<title>Node3</title>
<g id="a_node3"><a xlink:href="active_8f.html#aabce91f1253de53e2bae52ad9b94fcbb" target="_top" xlink:title="This subroutine initializes iwhere and projects the initial x to the feasible set if necessary.">
<polygon fill="none" stroke="black" points="163,-532.5 163,-551.5 206,-551.5 206,-532.5 163,-532.5"/>
<text text-anchor="middle" x="184.5" y="-539.5" font-family="Helvetica,sans-Serif" font-size="10.00">active</text>
</a>
</g>
</g>
<!-- Node2&#45;&gt;Node3 -->
<g id="edge2" class="edge">
<title>Node2&#45;&gt;Node3</title>
<path fill="none" stroke="midnightblue" d="M102.56,-285.81C103.23,-320.86 109.27,-442.04 160,-523 160.49,-523.78 161.02,-524.54 161.58,-525.28"/>
<polygon fill="midnightblue" stroke="midnightblue" points="159.11,-527.76 168.61,-532.45 164.11,-522.86 159.11,-527.76"/>
</g>
<!-- Node4 -->
<g id="node4" class="node">
<title>Node4</title>
<g id="a_node4"><a xlink:href="cauchy_8f.html#ade50ac4208f509bdc3d04a325285a8be" target="_top" xlink:title="Compute the Generalized Cauchy Point along the projected gradient direction.">
<polygon fill="none" stroke="black" points="161,-456.5 161,-475.5 208,-475.5 208,-456.5 161,-456.5"/>
<text text-anchor="middle" x="184.5" y="-463.5" font-family="Helvetica,sans-Serif" font-size="10.00">cauchy</text>
</a>
</g>
</g>
<!-- Node2&#45;&gt;Node4 -->
<g id="edge3" class="edge">
<title>Node2&#45;&gt;Node4</title>
<path fill="none" stroke="midnightblue" d="M103.82,-285.74C107.95,-313.29 122.63,-393.26 160,-447 160.52,-447.75 161.09,-448.49 161.68,-449.22"/>
<polygon fill="midnightblue" stroke="midnightblue" points="159.27,-451.76 168.85,-456.29 164.19,-446.78 159.27,-451.76"/>
</g>
<!-- Node7 -->
<g id="node7" class="node">
<title>Node7</title>
<g id="a_node7"><a xlink:href="cmprlb_8f.html#aeca70b38353e4c44297fef717a66def4" target="_top" xlink:title="This subroutine computes r=&#45;Z&#39;B(xcp&#45;xk)&#45;Z&#39;g by using wa(2m+1)=W&#39;(xcp&#45;x) from subroutine cauchy.">
<polygon fill="none" stroke="black" points="161.5,-494.5 161.5,-513.5 207.5,-513.5 207.5,-494.5 161.5,-494.5"/>
<text text-anchor="middle" x="184.5" y="-501.5" font-family="Helvetica,sans-Serif" font-size="10.00">cmprlb</text>
</a>
</g>
</g>
<!-- Node2&#45;&gt;Node7 -->
<g id="edge6" class="edge">
<title>Node2&#45;&gt;Node7</title>
<path fill="none" stroke="midnightblue" d="M103.07,-285.59C105.34,-316.84 115.89,-417.62 160,-485 160.5,-485.77 161.05,-486.52 161.62,-487.25"/>
<polygon fill="midnightblue" stroke="midnightblue" points="159.18,-489.76 168.71,-494.39 164.14,-484.83 159.18,-489.76"/>
</g>
<!-- Node8 -->
<g id="node8" class="node">
<title>Node8</title>
<g id="a_node8"><a xlink:href="errclb_8f.html#affdf5cf80f86556653ba2cc860a2bb32" target="_top" xlink:title="This subroutine checks the validity of the input data.">
<polygon fill="none" stroke="black" points="164,-418.5 164,-437.5 205,-437.5 205,-418.5 164,-418.5"/>
<text text-anchor="middle" x="184.5" y="-425.5" font-family="Helvetica,sans-Serif" font-size="10.00">errclb</text>
</a>
</g>
</g>
<!-- Node2&#45;&gt;Node8 -->
<g id="edge8" class="edge">
<title>Node2&#45;&gt;Node8</title>
<path fill="none" stroke="midnightblue" d="M104.9,-285.51C111.06,-308.53 129.12,-368.33 160,-409 160.56,-409.73 161.14,-410.45 161.76,-411.16"/>
<polygon fill="midnightblue" stroke="midnightblue" points="159.41,-413.75 169.05,-418.15 164.25,-408.7 159.41,-413.75"/>
</g>
<!-- Node9 -->
<g id="node9" class="node">
<title>Node9</title>
<g id="a_node9"><a xlink:href="formk_8f.html#a0e64ef7f777edb20419c8d441107c654" target="_top" xlink:title="Forms the LEL^T factorization of the indefinite matrix K.">
<polygon fill="none" stroke="black" points="164,-380.5 164,-399.5 205,-399.5 205,-380.5 164,-380.5"/>
<text text-anchor="middle" x="184.5" y="-387.5" font-family="Helvetica,sans-Serif" font-size="10.00">formk</text>
</a>
</g>
</g>
<!-- Node2&#45;&gt;Node9 -->
<g id="edge9" class="edge">
<title>Node2&#45;&gt;Node9</title>
<path fill="none" stroke="midnightblue" d="M106.92,-285.61C115.49,-303.62 135.66,-343.11 160,-371 160.72,-371.83 161.49,-372.65 162.28,-373.46"/>
<polygon fill="midnightblue" stroke="midnightblue" points="160.08,-376.19 169.85,-380.29 164.77,-371 160.08,-376.19"/>
</g>
<!-- Node10 -->
<g id="node10" class="node">
<title>Node10</title>
<g id="a_node10"><a xlink:href="formt_8f.html#a237bf34b63889556b05399c224ec5f71" target="_top" xlink:title="Forms the upper half of the pos. def. and symm. T.">
<polygon fill="none" stroke="black" points="165,-342.5 165,-361.5 204,-361.5 204,-342.5 165,-342.5"/>
<text text-anchor="middle" x="184.5" y="-349.5" font-family="Helvetica,sans-Serif" font-size="10.00">formt</text>
</a>
</g>
</g>
<!-- Node2&#45;&gt;Node10 -->
<g id="edge10" class="edge">
<title>Node2&#45;&gt;Node10</title>
<path fill="none" stroke="midnightblue" d="M111.58,-285.58C122.68,-297.15 142.2,-317.06 160,-333 160.97,-333.87 161.97,-334.74 162.98,-335.62"/>
<polygon fill="midnightblue" stroke="midnightblue" points="160.94,-338.47 170.86,-342.17 165.41,-333.09 160.94,-338.47"/>
</g>
<!-- Node11 -->
<g id="node11" class="node">
<title>Node11</title>
<g id="a_node11"><a xlink:href="freev_8f.html#a9e31e2bbd26db0eabd2e72c99e5a2f84" target="_top" xlink:title="This subroutine counts the entering and leaving variables when iter &gt; 0, and finds the index set of f...">
<polygon fill="none" stroke="black" points="165.5,-304.5 165.5,-323.5 203.5,-323.5 203.5,-304.5 165.5,-304.5"/>
<text text-anchor="middle" x="184.5" y="-311.5" font-family="Helvetica,sans-Serif" font-size="10.00">freev</text>
</a>
</g>
</g>
<!-- Node2&#45;&gt;Node11 -->
<g id="edge11" class="edge">
<title>Node2&#45;&gt;Node11</title>
<path fill="none" stroke="midnightblue" d="M122.94,-285.59C133.02,-290.32 145.31,-296.08 156.18,-301.18"/>
<polygon fill="midnightblue" stroke="midnightblue" points="154.74,-304.37 165.28,-305.45 157.71,-298.04 154.74,-304.37"/>
</g>
<!-- Node12 -->
<g id="node12" class="node">
<title>Node12</title>
<g id="a_node12"><a xlink:href="lnsrlb_8f.html#a1ae769fcc1d4f0f54e793a730e879dbc" target="_top" xlink:title="This subroutine calls subroutine dcsrch from the Minpack2 library to perform the line search....">
<polygon fill="none" stroke="black" points="164.5,-266.5 164.5,-285.5 204.5,-285.5 204.5,-266.5 164.5,-266.5"/>
<text text-anchor="middle" x="184.5" y="-273.5" font-family="Helvetica,sans-Serif" font-size="10.00">lnsrlb</text>
</a>
</g>
</g>
<!-- Node2&#45;&gt;Node12 -->
<g id="edge12" class="edge">
<title>Node2&#45;&gt;Node12</title>
<path fill="none" stroke="midnightblue" d="M124.21,-276C133.43,-276 144.32,-276 154.24,-276"/>
<polygon fill="midnightblue" stroke="midnightblue" points="154.49,-279.5 164.49,-276 154.49,-272.5 154.49,-279.5"/>
</g>
<!-- Node15 -->
<g id="node15" class="node">
<title>Node15</title>
<g id="a_node15"><a xlink:href="matupd_8f.html#ae0d8b7b11bf7546ed4d53b433273f74b" target="_top" xlink:title="This subroutine updates matrices WS and WY, and forms the middle matrix in B.">
<polygon fill="none" stroke="black" points="160,-228.5 160,-247.5 209,-247.5 209,-228.5 160,-228.5"/>
<text text-anchor="middle" x="184.5" y="-235.5" font-family="Helvetica,sans-Serif" font-size="10.00">matupd</text>
</a>
</g>
</g>
<!-- Node2&#45;&gt;Node15 -->
<g id="edge15" class="edge">
<title>Node2&#45;&gt;Node15</title>
<path fill="none" stroke="midnightblue" d="M122.94,-266.41C132.34,-262 143.67,-256.69 153.98,-251.85"/>
<polygon fill="midnightblue" stroke="midnightblue" points="155.5,-255 163.07,-247.59 152.53,-248.66 155.5,-255"/>
</g>
<!-- Node16 -->
<g id="node16" class="node">
<title>Node16</title>
<g id="a_node16"><a xlink:href="prn1lb_8f.html#a9d5d96d3efd3ea19322ee8d472954cc9" target="_top" xlink:title="This subroutine prints the input data, initial point, upper and lower bounds of each variable,...">
<polygon fill="none" stroke="black" points="163,-190.5 163,-209.5 206,-209.5 206,-190.5 163,-190.5"/>
<text text-anchor="middle" x="184.5" y="-197.5" font-family="Helvetica,sans-Serif" font-size="10.00">prn1lb</text>
</a>
</g>
</g>
<!-- Node2&#45;&gt;Node16 -->
<g id="edge16" class="edge">
<title>Node2&#45;&gt;Node16</title>
<path fill="none" stroke="midnightblue" d="M111.58,-266.42C122.68,-254.85 142.2,-234.94 160,-219 160.97,-218.13 161.97,-217.26 162.98,-216.38"/>
<polygon fill="midnightblue" stroke="midnightblue" points="165.41,-218.91 170.86,-209.83 160.94,-213.53 165.41,-218.91"/>
</g>
<!-- Node17 -->
<g id="node17" class="node">
<title>Node17</title>
<g id="a_node17"><a xlink:href="prn2lb_8f.html#a5df5a6f8f26c5a5a68585b45a41032bd" target="_top" xlink:title="This subroutine prints out new information after a successful line search.">
<polygon fill="none" stroke="black" points="163,-152.5 163,-171.5 206,-171.5 206,-152.5 163,-152.5"/>
<text text-anchor="middle" x="184.5" y="-159.5" font-family="Helvetica,sans-Serif" font-size="10.00">prn2lb</text>
</a>
</g>
</g>
<!-- Node2&#45;&gt;Node17 -->
<g id="edge17" class="edge">
<title>Node2&#45;&gt;Node17</title>
<path fill="none" stroke="midnightblue" d="M106.92,-266.39C115.49,-248.38 135.66,-208.89 160,-181 160.72,-180.17 161.49,-179.35 162.28,-178.54"/>
<polygon fill="midnightblue" stroke="midnightblue" points="164.77,-181 169.85,-171.71 160.08,-175.81 164.77,-181"/>
</g>
<!-- Node18 -->
<g id="node18" class="node">
<title>Node18</title>
<g id="a_node18"><a xlink:href="prn3lb_8f.html#a433c19f6cb8b79a552a65371fecffb8c" target="_top" xlink:title="This subroutine prints out information when either a built&#45;in convergence test is satisfied or when a...">
<polygon fill="none" stroke="black" points="163,-114.5 163,-133.5 206,-133.5 206,-114.5 163,-114.5"/>
<text text-anchor="middle" x="184.5" y="-121.5" font-family="Helvetica,sans-Serif" font-size="10.00">prn3lb</text>
</a>
</g>
</g>
<!-- Node2&#45;&gt;Node18 -->
<g id="edge18" class="edge">
<title>Node2&#45;&gt;Node18</title>
<path fill="none" stroke="midnightblue" d="M104.9,-266.49C111.06,-243.47 129.12,-183.67 160,-143 160.56,-142.27 161.14,-141.55 161.76,-140.84"/>
<polygon fill="midnightblue" stroke="midnightblue" points="164.25,-143.3 169.05,-133.85 159.41,-138.25 164.25,-143.3"/>
</g>
<!-- Node19 -->
<g id="node19" class="node">
<title>Node19</title>
<g id="a_node19"><a xlink:href="projgr_8f.html#a7c7b868c8b42f51efd25e48cd293cb5f" target="_top" xlink:title="This subroutine computes the infinity norm of the projected gradient.">
<polygon fill="none" stroke="black" points="164,-76.5 164,-95.5 205,-95.5 205,-76.5 164,-76.5"/>
<text text-anchor="middle" x="184.5" y="-83.5" font-family="Helvetica,sans-Serif" font-size="10.00">projgr</text>
</a>
</g>
</g>
<!-- Node2&#45;&gt;Node19 -->
<g id="edge19" class="edge">
<title>Node2&#45;&gt;Node19</title>
<path fill="none" stroke="midnightblue" d="M103.82,-266.26C107.95,-238.71 122.63,-158.74 160,-105 160.52,-104.25 161.09,-103.51 161.68,-102.78"/>
<polygon fill="midnightblue" stroke="midnightblue" points="164.19,-105.22 168.85,-95.71 159.27,-100.24 164.19,-105.22"/>
</g>
<!-- Node20 -->
<g id="node20" class="node">
<title>Node20</title>
<g id="a_node20"><a xlink:href="subsm_8f.html#a885224f17c93707dec22de0a51a4081d" target="_top" xlink:title="Performs the subspace minimization.">
<polygon fill="none" stroke="black" points="161.5,-38.5 161.5,-57.5 207.5,-57.5 207.5,-38.5 161.5,-38.5"/>
<text text-anchor="middle" x="184.5" y="-45.5" font-family="Helvetica,sans-Serif" font-size="10.00">subsm</text>
</a>
</g>
</g>
<!-- Node2&#45;&gt;Node20 -->
<g id="edge20" class="edge">
<title>Node2&#45;&gt;Node20</title>
<path fill="none" stroke="midnightblue" d="M103.07,-266.41C105.34,-235.16 115.89,-134.38 160,-67 160.5,-66.23 161.05,-65.48 161.62,-64.75"/>
<polygon fill="midnightblue" stroke="midnightblue" points="164.14,-67.17 168.71,-57.61 159.18,-62.24 164.14,-67.17"/>
</g>
<!-- Node21 -->
<g id="node21" class="node">
<title>Node21</title>
<g id="a_node21"><a xlink:href="timer_8f.html#ab582fd1ba3cb021020eb67c22b03d118" target="_top" xlink:title="This routine computes cpu time in double precision.">
<polygon fill="none" stroke="black" points="165.5,-0.5 165.5,-19.5 203.5,-19.5 203.5,-0.5 165.5,-0.5"/>
<text text-anchor="middle" x="184.5" y="-7.5" font-family="Helvetica,sans-Serif" font-size="10.00">timer</text>
</a>
</g>
</g>
<!-- Node2&#45;&gt;Node21 -->
<g id="edge21" class="edge">
<title>Node2&#45;&gt;Node21</title>
<path fill="none" stroke="midnightblue" d="M102.56,-266.19C103.23,-231.14 109.27,-109.96 160,-29 160.49,-28.22 161.02,-27.46 161.58,-26.72"/>
<polygon fill="midnightblue" stroke="midnightblue" points="164.11,-29.14 168.61,-19.55 159.11,-24.24 164.11,-29.14"/>
</g>
<!-- Node5 -->
<g id="node5" class="node">
<title>Node5</title>
<g id="a_node5"><a xlink:href="bmv_8f.html#a3b7cf8256f5c958dd10a7f72db1a0f14" target="_top" xlink:title="This subroutine computes the product of the 2m x 2m middle matrix in the compact L&#45;BFGS formula of B ...">
<polygon fill="none" stroke="black" points="250.5,-494.5 250.5,-513.5 285.5,-513.5 285.5,-494.5 250.5,-494.5"/>
<text text-anchor="middle" x="268" y="-501.5" font-family="Helvetica,sans-Serif" font-size="10.00">bmv</text>
</a>
</g>
</g>
<!-- Node4&#45;&gt;Node5 -->
<g id="edge4" class="edge">
<title>Node4&#45;&gt;Node5</title>
<path fill="none" stroke="midnightblue" d="M206.07,-475.59C216.64,-480.52 229.65,-486.58 240.92,-491.84"/>
<polygon fill="midnightblue" stroke="midnightblue" points="239.74,-495.15 250.28,-496.2 242.7,-488.81 239.74,-495.15"/>
</g>
<!-- Node6 -->
<g id="node6" class="node">
<title>Node6</title>
<g id="a_node6"><a xlink:href="hpsolb_8f.html#a94349c617519970019d2f15efcb1df41" target="_top" xlink:title="This subroutine sorts out the least element of t, and puts the remaining elements of t in a heap.">
<polygon fill="none" stroke="black" points="245.5,-456.5 245.5,-475.5 290.5,-475.5 290.5,-456.5 245.5,-456.5"/>
<text text-anchor="middle" x="268" y="-463.5" font-family="Helvetica,sans-Serif" font-size="10.00">hpsolb</text>
</a>
</g>
</g>
<!-- Node4&#45;&gt;Node6 -->
<g id="edge5" class="edge">
<title>Node4&#45;&gt;Node6</title>
<path fill="none" stroke="midnightblue" d="M208.2,-466C216.53,-466 226.12,-466 235.1,-466"/>
<polygon fill="midnightblue" stroke="midnightblue" points="235.26,-469.5 245.26,-466 235.26,-462.5 235.26,-469.5"/>
</g>
<!-- Node7&#45;&gt;Node5 -->
<g id="edge7" class="edge">
<title>Node7&#45;&gt;Node5</title>
<path fill="none" stroke="midnightblue" d="M207.77,-504C217.77,-504 229.66,-504 240.16,-504"/>
<polygon fill="midnightblue" stroke="midnightblue" points="240.45,-507.5 250.45,-504 240.45,-500.5 240.45,-507.5"/>
</g>
<!-- Node13 -->
<g id="node13" class="node">
<title>Node13</title>
<g id="a_node13"><a xlink:href="dcsrch_8f.html#a25db7a7d8ddac831be23892a10ba2a76" target="_top" xlink:title="This subroutine finds a step that satisfies a sufficient decrease condition and a curvature condition...">
<polygon fill="none" stroke="black" points="245,-266.5 245,-285.5 291,-285.5 291,-266.5 245,-266.5"/>
<text text-anchor="middle" x="268" y="-273.5" font-family="Helvetica,sans-Serif" font-size="10.00">dcsrch</text>
</a>
</g>
</g>
<!-- Node12&#45;&gt;Node13 -->
<g id="edge13" class="edge">
<title>Node12&#45;&gt;Node13</title>
<path fill="none" stroke="midnightblue" d="M204.81,-276C213.76,-276 224.63,-276 234.76,-276"/>
<polygon fill="midnightblue" stroke="midnightblue" points="234.94,-279.5 244.94,-276 234.94,-272.5 234.94,-279.5"/>
</g>
<!-- Node14 -->
<g id="node14" class="node">
<title>Node14</title>
<g id="a_node14"><a xlink:href="dcstep_8f.html#aa8518f45aef3723242c7ca3f41717a31" target="_top" xlink:title="This subroutine computes a safeguarded step for a search procedure and updates an interval that conta...">
<polygon fill="none" stroke="black" points="327,-266.5 327,-285.5 373,-285.5 373,-266.5 327,-266.5"/>
<text text-anchor="middle" x="350" y="-273.5" font-family="Helvetica,sans-Serif" font-size="10.00">dcstep</text>
</a>
</g>
</g>
<!-- Node13&#45;&gt;Node14 -->
<g id="edge14" class="edge">
<title>Node13&#45;&gt;Node14</title>
<path fill="none" stroke="midnightblue" d="M291.28,-276C299.17,-276 308.21,-276 316.76,-276"/>
<polygon fill="midnightblue" stroke="midnightblue" points="316.84,-279.5 326.84,-276 316.84,-272.5 316.84,-279.5"/>
</g>
</g>
</svg>
        <g id="navigator" transform="translate(0 0)" fill="#404254">
                <rect fill="#f2f5e9" fill-opacity="0.5" stroke="#606060" stroke-width=".5" x="0" y="0" width="60" height="60"/>
                <use id="zoomplus" xlink:href="#zoomPlus" x="17" y="9" onmousedown="handleZoom(evt,'in')"/>
                <use id="zoomminus" xlink:href="#zoomMin" x="42" y="9" onmousedown="handleZoom(evt,'out')"/>
                <use id="reset" xlink:href="#resetDef" x="30" y="36" onmousedown="handleReset()"/>
                <g id="arrowUp" xlink:href="#dirArrow" transform="translate(30 24)" onmousedown="handlePan(0,-1)">
                  <use xlink:href="#rim" fill="#404040">
                        <set attributeName="fill" to="#808080" begin="arrowUp.mouseover" end="arrowUp.mouseout"/>
                  </use>
                  <path fill="none" stroke="white" stroke-width="1.5" d="M0,-3.0v7 M-2.5,-0.5L0,-3.0L2.5,-0.5"/>
                </g>
                <g id="arrowRight" xlink:href="#dirArrow" transform="rotate(90) translate(36 -43)" onmousedown="handlePan(1,0)">
                  <use xlink:href="#rim" fill="#404040">
                        <set attributeName="fill" to="#808080" begin="arrowRight.mouseover" end="arrowRight.mouseout"/>
                  </use>
                  <path fill="none" stroke="white" stroke-width="1.5" d="M0,-3.0v7 M-2.5,-0.5L0,-3.0L2.5,-0.5"/>
                </g>
                <g id="arrowDown" xlink:href="#dirArrow" transform="rotate(180) translate(-30 -48)" onmousedown="handlePan(0,1)">
                  <use xlink:href="#rim" fill="#404040">
                        <set attributeName="fill" to="#808080" begin="arrowDown.mouseover" end="arrowDown.mouseout"/>
                  </use>
                  <path fill="none" stroke="white" stroke-width="1.5" d="M0,-3.0v7 M-2.5,-0.5L0,-3.0L2.5,-0.5"/>
                </g>
                <g id="arrowLeft" xlink:href="#dirArrow" transform="rotate(270) translate(-36 17)" onmousedown="handlePan(-1,0)">
                  <use xlink:href="#rim" fill="#404040">
                        <set attributeName="fill" to="#808080" begin="arrowLeft.mouseover" end="arrowLeft.mouseout"/>
                  </use>
                  <path fill="none" stroke="white" stroke-width="1.5" d="M0,-3.0v7 M-2.5,-0.5L0,-3.0L2.5,-0.5"/>
                </g>
        </g>
        <svg viewBox="0 0 15 15" width="100%" height="30px" preserveAspectRatio="xMaxYMin meet">
         <g id="arrow_out" transform="scale(0.3 0.3)">
          <a xlink:href="setulb_8f_a98990772aba60ae5986ecbbcc015ebed_cgraph_org.svg" target="_base">
           <rect id="button" ry="5" rx="5" y="6" x="6" height="38" width="38"
                fill="#f2f5e9" fill-opacity="0.5" stroke="#606060" stroke-width="1.0"/>
           <path id="arrow"
             d="M 11.500037,31.436501 C 11.940474,20.09759 22.043105,11.32322 32.158766,21.979434 L 37.068811,17.246167 C 37.068811,17.246167 37.088388,32 37.088388,32 L 22.160133,31.978069 C 22.160133,31.978069 26.997745,27.140456 26.997745,27.140456 C 18.528582,18.264221 13.291696,25.230495 11.500037,31.436501 z"
             style="fill:#404040;"/>
          </a>
         </g>
        </svg>
</svg>
