<?xml version="1.0" encoding="UTF-8" standalone="no"?>
<!DOCTYPE svg PUBLIC "-//W3C//DTD SVG 1.1//EN"
 "http://www.w3.org/Graphics/SVG/1.1/DTD/svg11.dtd">
<!-- Generated by graphviz version 2.40.1 (20161225.0304)
 -->
<!-- Title: subsm Pages: 1 -->
<svg width="212pt" height="104pt"
 viewBox="0.00 0.00 212.00 104.00" xmlns="http://www.w3.org/2000/svg" xmlns:xlink="http://www.w3.org/1999/xlink">
<g id="graph0" class="graph" transform="scale(1 1) rotate(0) translate(4 100)">
<title>subsm</title>
<!-- Node0 -->
<g id="node1" class="node">
<title>Node0</title>
<polygon fill="#bfbfbf" stroke="#000000" points="0,-38.5 0,-57.5 46,-57.5 46,-38.5 0,-38.5"/>
<text text-anchor="middle" x="23" y="-45.5" font-family="Helvetica,sans-Serif" font-size="10.00" fill="#000000">subsm</text>
</g>
<!-- Node1 -->
<g id="node2" class="node">
<title>Node1</title>
<g id="a_node2"><a xlink:href="dtrsl_8f.html#addd03dfa6a12af9f384b521e1f765a19" target="_top" xlink:title="dtrsl solves triangular systems. ">
<polygon fill="none" stroke="#000000" points="86,-76.5 86,-95.5 121,-95.5 121,-76.5 86,-76.5"/>
<text text-anchor="middle" x="103.5" y="-83.5" font-family="Helvetica,sans-Serif" font-size="10.00" fill="#000000">dtrsl</text>
</a>
</g>
</g>
<!-- Node0&#45;&gt;Node1 -->
<g id="edge1" class="edge">
<title>Node0&#45;&gt;Node1</title>
<path fill="none" stroke="#191970" d="M43.3135,-57.589C53.4724,-62.3845 65.8982,-68.2501 76.8159,-73.4038"/>
<polygon fill="#191970" stroke="#191970" points="75.39,-76.601 85.9272,-77.7048 78.3782,-70.2708 75.39,-76.601"/>
</g>
<!-- Node3 -->
<g id="node4" class="node">
<title>Node3</title>
<g id="a_node4"><a xlink:href="dscal_8f.html#a0590f8db475e11dc2c9137bb13887acf" target="_top" xlink:title="scales a vector by a constant. ">
<polygon fill="none" stroke="#000000" points="83.5,-38.5 83.5,-57.5 123.5,-57.5 123.5,-38.5 83.5,-38.5"/>
<text text-anchor="middle" x="103.5" y="-45.5" font-family="Helvetica,sans-Serif" font-size="10.00" fill="#000000">dscal</text>
</a>
</g>
</g>
<!-- Node0&#45;&gt;Node3 -->
<g id="edge3" class="edge">
<title>Node0&#45;&gt;Node3</title>
<path fill="none" stroke="#191970" d="M46.2839,-48C54.6945,-48 64.3147,-48 73.2363,-48"/>
<polygon fill="#191970" stroke="#191970" points="73.2742,-51.5001 83.2741,-48 73.2741,-44.5001 73.2742,-51.5001"/>
</g>
<!-- Node4 -->
<g id="node5" class="node">
<title>Node4</title>
<g id="a_node5"><a xlink:href="dcopy_8f.html#afc29c83942509cba5f3764115f0471d5" target="_top" xlink:title="copies a vector, x, to a vector, y. ">
<polygon fill="none" stroke="#000000" points="82,-.5 82,-19.5 125,-19.5 125,-.5 82,-.5"/>
<text text-anchor="middle" x="103.5" y="-7.5" font-family="Helvetica,sans-Serif" font-size="10.00" fill="#000000">dcopy</text>
</a>
</g>
</g>
<!-- Node0&#45;&gt;Node4 -->
<g id="edge4" class="edge">
<title>Node0&#45;&gt;Node4</title>
<path fill="none" stroke="#191970" d="M43.3135,-38.411C52.5613,-34.0456 63.6875,-28.7935 73.8446,-23.9988"/>
<polygon fill="#191970" stroke="#191970" points="75.6439,-27.0199 83.1929,-19.5859 72.6558,-20.6897 75.6439,-27.0199"/>
</g>
<!-- Node2 -->
<g id="node3" class="node">
<title>Node2</title>
<g id="a_node3"><a xlink:href="daxpy_8f.html#adb136e14634fe4b772a0b034f52f3939" target="_top" xlink:title="constant times a vector plus a vector. ">
<polygon fill="none" stroke="#000000" points="161,-76.5 161,-95.5 204,-95.5 204,-76.5 161,-76.5"/>
<text text-anchor="middle" x="182.5" y="-83.5" font-family="Helvetica,sans-Serif" font-size="10.00" fill="#000000">daxpy</text>
</a>
</g>
</g>
<!-- Node1&#45;&gt;Node2 -->
<g id="edge2" class="edge">
<title>Node1&#45;&gt;Node2</title>
<path fill="none" stroke="#191970" d="M121.0327,-86C129.737,-86 140.5281,-86 150.6276,-86"/>
<polygon fill="#191970" stroke="#191970" points="150.7856,-89.5001 160.7855,-86 150.7855,-82.5001 150.7856,-89.5001"/>
</g>
</g>
</svg>
